<svg width="606" height="199" fill="none" xmlns="http://www.w3.org/2000/svg"><path d="M178.04 123.68h-34.72V84.2h-34.16v39.48H45.04L136.04 3H97.12L.52 129.28v25.2h107.52V199h35.28v-44.52h34.72v-30.8zm427.788 0h-34.72V84.2h-34.16v39.48h-64.12l91-120.68h-38.92l-96.6 126.28v25.2h107.52V199h35.28v-44.52h34.72v-30.8zm-262.143 62.185a97.125 97.125 0 01-42.733 10.134 97.148 97.148 0 01-42.827-9.727c43.873-15.718 70.544-47.073 81.998-90.083a122.235 122.235 0 013.562 89.676zM318.672 62.478c31.893 31.842 45.371 70.182 36.912 116.32a97.953 97.953 0 0029.728-32.288A98.324 98.324 0 00398 104.433c-22.908-25.343-49.62-39.03-79.328-41.955zm3.643 69.045c-45.168 12.185-84.994 3.087-119.113-25.993a97.275 97.275 0 0012.95 42.029 96.887 96.887 0 0030.114 31.971c33.997-7.514 58.929-23.719 76.211-48.169l-.162.162zm-39.907 2.112c-34.483-34.4-45.087-73.106-37.032-116.401a98.068 98.068 0 00-29.694 32.301A98.453 98.453 0 00203 91.6c22.017 24.491 48.487 38.949 79.408 41.874v.162zm-21.612-33.629c11.454-43.092 37.964-74.487 82.08-90.245A96.862 96.862 0 00300.048 0a96.858 96.858 0 00-42.733 10.166c-10.321 31.557-9.147 61.815 3.481 89.677v.162zM279.09 64.55c43.468-11.738 83.941-3.453 118.708 26.115a97.27 97.27 0 00-12.836-42.17 96.887 96.887 0 00-30.106-32.114c-33.108 7.31-58.363 23.76-75.766 48.006v.163z" fill="#3F4042"/></svg>