<svg width="16" height="16" fill="none" xmlns="http://www.w3.org/2000/svg"><path d="M15.796 7.898v3.422a4.424 4.424 0 01-2.869 4.103 5.92 5.92 0 01-2.227.372H4.764a4.735 4.735 0 01-2.7-.772 4.373 4.373 0 01-1.94-2.657A4.638 4.638 0 010 11.336V4.582C0 3.42.324 2.38 1.15 1.54A4.734 4.734 0 014.132.05c.71-.065 1.42-.046 2.116-.048h4.535c1.025 0 2.01.166 2.885.733a4.387 4.387 0 011.98 2.603c.091.372.138.753.14 1.136.017 1.14 0 2.281 0 3.422l.008.002zm-14.613 0v3.455c0 1.337.71 2.244 1.846 2.863a3.666 3.666 0 001.785.39h6.113a3.937 3.937 0 002.021-.517c1.07-.62 1.657-1.534 1.657-2.776.014-2.307.02-4.614 0-6.924 0-1.365-.774-2.267-1.94-2.866a3.608 3.608 0 00-1.683-.345h-6.08a3.979 3.979 0 00-1.875.414c-1.134.59-1.818 1.507-1.844 2.82-.028 1.163 0 2.324 0 3.486z" fill="#fff"/><path d="M8.502 7.23c0 .219-.01.425-.01.63-.004.11.01.222.04.33a.33.33 0 00.114.175.114.114 0 00.1.019.426.426 0 00.163-.093c.111-.1.211-.21.299-.33.311-.417.568-.87.764-1.348.035-.08.069-.16.101-.242a.272.272 0 01.13-.146.328.328 0 01.119-.019h1.617a.51.51 0 01.13.034.16.16 0 01.085.058.15.15 0 01.03.095.638.638 0 01-.053.252 3.03 3.03 0 01-.328.58c-.243.361-.52.698-.78 1.042a5.74 5.74 0 00-.248.353.338.338 0 00-.06.225.357.357 0 00.105.204c.095.099.191.196.293.288.271.235.527.487.763.756.11.127.206.266.284.414.019.04.032.083.039.126a.223.223 0 01-.014.145.232.232 0 01-.1.107.577.577 0 01-.29.085c-.383.01-.767.007-1.15.029a.981.981 0 01-.673-.224 3.099 3.099 0 01-.39-.37c-.13-.138-.252-.277-.391-.408a.885.885 0 00-.199-.142.236.236 0 00-.295.045.609.609 0 00-.132.26 1.79 1.79 0 00-.069.446 1.097 1.097 0 01-.011.112.255.255 0 01-.06.129.267.267 0 01-.122.079.536.536 0 01-.2.039h-.52a2.613 2.613 0 01-.886-.165 3.41 3.41 0 01-1.332-.882 8.09 8.09 0 01-.963-1.25 17.518 17.518 0 01-1.17-2.16.3.3 0 01-.025-.156.107.107 0 01.02-.055.112.112 0 01.046-.038.473.473 0 01.207-.048h1.293c.077.005.15.032.212.076a.386.386 0 01.134.176c.112.286.246.564.402.83.169.296.359.58.569.85.07.1.159.188.26.26a.213.213 0 00.234.022.214.214 0 00.09-.1c.047-.106.076-.218.086-.332.028-.266.034-.534.017-.801a2.766 2.766 0 00-.051-.475c-.008-.04-.022-.077-.03-.116a.255.255 0 00-.14-.17.677.677 0 00-.296-.094c-.03 0-.04-.015-.027-.04a.276.276 0 01.044-.07.606.606 0 01.363-.182c.202-.034.407-.049.611-.044.228 0 .457 0 .686.014.1.006.198.021.294.046a.348.348 0 01.196.112c.05.058.08.13.082.206.011.121.015.243.012.365-.003.165-.013.332-.02.485z" fill="#fff"/></svg>