<svg width="16" height="17" fill="none" xmlns="http://www.w3.org/2000/svg"><path d="M15.796 8.695v3.422a4.424 4.424 0 01-2.869 4.103 5.92 5.92 0 01-2.227.372H4.764a4.734 4.734 0 01-2.7-.772 4.373 4.373 0 01-1.94-2.657A4.637 4.637 0 010 12.133V5.378c0-1.16.324-2.201 1.15-3.041A4.734 4.734 0 014.132.847C4.842.781 5.552.8 6.248.798h4.535c1.025 0 2.01.165 2.885.733a4.387 4.387 0 011.98 2.603c.091.372.138.753.14 1.136.017 1.14 0 2.281 0 3.422l.008.002zm-14.613 0v3.455c0 1.337.71 2.243 1.846 2.863a3.667 3.667 0 001.785.39h6.113a3.937 3.937 0 002.021-.518c1.07-.62 1.657-1.533 1.657-2.775.014-2.307.02-4.615 0-6.924 0-1.365-.774-2.267-1.94-2.866a3.608 3.608 0 00-1.683-.345h-6.08a3.98 3.98 0 00-1.875.414c-1.134.59-1.818 1.507-1.844 2.82-.028 1.162 0 2.324 0 3.486z" fill="#3F4042"/><path d="M8.502 8.026c0 .22-.01.426-.01.63-.004.112.01.223.04.33.017.07.058.13.114.176a.114.114 0 00.1.019.426.426 0 00.163-.094 2.21 2.21 0 00.299-.328c.311-.418.568-.87.764-1.349.035-.08.069-.16.101-.242a.272.272 0 01.13-.146.328.328 0 01.119-.019h1.617a.51.51 0 01.13.034c.035.01.064.03.085.057a.15.15 0 01.03.096.638.638 0 01-.053.252 3.03 3.03 0 01-.328.58c-.243.361-.52.697-.78 1.042a6.03 6.03 0 00-.248.352.338.338 0 00-.06.226.357.357 0 00.105.204c.095.098.191.195.293.287.271.236.527.488.763.757.11.127.206.266.284.414.019.04.032.083.039.126a.223.223 0 01-.014.145.232.232 0 01-.1.107.576.576 0 01-.29.085c-.383.01-.767.007-1.15.029a.98.98 0 01-.673-.225 3.085 3.085 0 01-.39-.37c-.13-.137-.252-.276-.391-.407a.883.883 0 00-.199-.143.236.236 0 00-.295.046.609.609 0 00-.132.26 1.792 1.792 0 00-.069.446 1.092 1.092 0 01-.011.112.255.255 0 01-.06.129.268.268 0 01-.122.079.535.535 0 01-.2.039h-.52a2.613 2.613 0 01-.886-.165 3.41 3.41 0 01-1.332-.883 8.095 8.095 0 01-.963-1.25 17.518 17.518 0 01-1.17-2.159.3.3 0 01-.025-.156.107.107 0 01.02-.055.112.112 0 01.046-.038.473.473 0 01.207-.048h1.293c.077.005.15.032.212.076a.385.385 0 01.134.176c.112.286.246.563.402.83.169.295.359.58.569.85.07.1.159.188.26.26a.213.213 0 00.234.022.214.214 0 00.09-.1c.047-.106.076-.218.086-.332.028-.266.034-.534.017-.801a2.766 2.766 0 00-.051-.476c-.008-.039-.022-.076-.03-.116a.255.255 0 00-.14-.168.677.677 0 00-.296-.095c-.03 0-.04-.015-.027-.04a.276.276 0 01.044-.07.606.606 0 01.363-.182c.202-.034.407-.049.611-.044.228 0 .457 0 .686.013.1.007.198.022.294.047a.348.348 0 01.196.112c.05.058.08.13.082.206.011.121.015.243.012.365-.003.165-.013.332-.02.485z" fill="#3F4042"/></svg>