<svg width="16" height="16" fill="none" xmlns="http://www.w3.org/2000/svg"><path d="M15.795 7.898v3.422a4.426 4.426 0 01-2.868 4.104 5.917 5.917 0 01-2.227.372H4.764a4.734 4.734 0 01-2.7-.772 4.374 4.374 0 01-1.94-2.657A4.639 4.639 0 010 11.337V4.58c0-1.16.324-2.2 1.15-3.04A4.733 4.733 0 014.132.047C4.842-.017 5.552.002 6.248 0h4.534c1.025 0 2.01.166 2.885.734a4.388 4.388 0 011.981 2.603c.09.372.138.753.14 1.136.016 1.14 0 2.281 0 3.422l.007.002zm-14.612 0v3.456c0 1.337.71 2.243 1.846 2.863a3.665 3.665 0 001.785.39h6.113a3.935 3.935 0 002.02-.518c1.07-.62 1.658-1.533 1.658-2.776a499.4 499.4 0 000-6.924c0-1.366-.774-2.268-1.941-2.866a3.606 3.606 0 00-1.683-.346h-6.08a3.978 3.978 0 00-1.874.414c-1.134.59-1.818 1.508-1.844 2.821-.028 1.162 0 2.324 0 3.486z" fill="#fff"/><path d="M7.905 11.273A3.66 3.66 0 1111.62 7.62a3.697 3.697 0 01-3.715 3.654zM5.379 7.612a2.532 2.532 0 102.533-2.485 2.523 2.523 0 00-2.533 2.485zm7.451-3.969a.779.779 0 11-.774-.807.805.805 0 01.774.807z" fill="#fff"/></svg>