<svg width="17" height="16" fill="none" xmlns="http://www.w3.org/2000/svg"><path d="M16.744 7.898v3.422a4.426 4.426 0 01-2.869 4.104 5.917 5.917 0 01-2.227.372H5.713a4.734 4.734 0 01-2.7-.772 4.374 4.374 0 01-1.941-2.657 4.638 4.638 0 01-.123-1.03V4.58c0-1.16.324-2.2 1.15-3.04A4.733 4.733 0 015.08.047C5.79-.016 6.5.003 7.197.001h4.534c1.025 0 2.01.166 2.885.734a4.388 4.388 0 011.98 2.603c.091.372.138.753.14 1.136.017 1.14 0 2.281 0 3.422l.008.002zm-14.612 0v3.456c0 1.337.71 2.243 1.846 2.863a3.665 3.665 0 001.784.39h6.114a3.936 3.936 0 002.02-.518c1.07-.62 1.657-1.533 1.657-2.776.014-2.307.02-4.615 0-6.924 0-1.366-.774-2.268-1.94-2.866a3.607 3.607 0 00-1.683-.346H5.85a3.978 3.978 0 00-1.874.414c-1.134.59-1.818 1.508-1.844 2.821-.028 1.162 0 2.324 0 3.486z" fill="#3F4042"/><path d="M8.853 11.273A3.66 3.66 0 1112.57 7.62a3.696 3.696 0 01-3.716 3.654zM6.328 7.612A2.532 2.532 0 108.86 5.127a2.523 2.523 0 00-2.532 2.485zm7.45-3.969a.78.78 0 11-.774-.807.804.804 0 01.774.807z" fill="#3F4042"/></svg>