<svg width="156" height="155" fill="none" xmlns="http://www.w3.org/2000/svg"><path d="M128.314 6.9a8361.075 8361.075 0 00-11.235 19.518c1.329 2.27 2.507 4.328 3.805 6.567h22.349c-.241-.484-.392-.908-.604-1.27-1.842-3.239-3.714-6.447-5.557-9.684-.936-1.635-.725-2.966.574-3.662 1.208-.666 2.446-.182 3.352 1.362 2.477 4.266 4.923 8.564 7.4 12.83 1.087 1.877 1.027 3.692-.061 5.569-5.677 9.835-11.355 19.7-17.033 29.565-1.148 1.998-2.809 2.875-5.074 2.875-4.772-.03-9.543 0-14.436 0v18.37c.604 0 1.238-.03 1.872 0 2.205.12 3.413 1.362 3.504 3.54v57.951c0 3.511-1.057 4.57-4.591 4.57h-6.946c-2.748 0-4.107-1.332-4.138-4.055-.03-2.663 0-5.356 0-8.019v-26.479c0-.636-.09-1.483.242-1.907.544-.666 1.419-1.362 2.205-1.452 1.026-.121 1.872.635 2.023 1.815.061.545.061 1.12.061 1.665v33.772h6.493V93.539h-6.493v8.352c0 .968.03 1.906-.031 2.875-.09 1.301-.785 2.058-2.084 2.118-1.298.061-2.114-.635-2.325-1.876-.121-.696-.091-1.392-.091-2.119v-9.38c0-3.45 1.057-4.51 4.44-4.63.332 0 .695-.061 1.087-.122V70.57c-.513-.03-1.057-.06-1.601-.06-4.318 0-8.667-.03-12.986 0-2.265 0-3.926-.908-5.074-2.906-5.647-9.865-11.355-19.73-17.033-29.565-1.088-1.876-1.118-3.692-.03-5.568L87.422 2.784C88.509.908 90.049 0 92.224 0c11.385.03 22.741.03 34.127 0 2.174 0 3.775.847 4.832 2.724 1.238 2.148 2.477 4.266 3.685 6.415.785 1.422.513 2.784-.635 3.42-1.147.665-2.446.211-3.292-1.15-.845-1.362-1.661-2.815-2.627-4.51zm-22.772 39.49c-3.624 6.325-7.399 12.861-11.204 19.488h29.989a9425.646 9425.646 0 00-11.234-19.488h-7.551zM75.311 32.955h22.47c1.298-2.27 2.506-4.327 3.775-6.537-3.624-6.294-7.4-12.83-11.235-19.518-5.013 8.715-9.936 17.279-15.01 26.055zm30.261-8.776c2.175 0 4.138-.121 6.041.06.996.091 1.48 0 2.023-.938 3.292-5.81 6.644-11.59 9.997-17.4.211-.363.392-.787.604-1.21h-29.87c3.806 6.657 7.521 13.163 11.205 19.488zm22.742 39.491c5.074-8.806 9.997-17.37 14.98-26.025h-22.44a1161.66 1161.66 0 01-3.775 6.476 2943.7 2943.7 0 0011.235 19.55zM75.341 37.645c5.044 8.716 9.967 17.31 15.01 26.025 3.896-6.748 7.671-13.315 11.235-19.488-1.329-2.33-2.507-4.358-3.745-6.537h-22.5zm27.242-2.42c-.031 3.782 3.02 6.869 6.734 6.9 3.685 0 6.826-3.118 6.826-6.81 0-3.661-3.05-6.748-6.705-6.778-3.805-.06-6.855 2.905-6.855 6.688zM55.138 93.653c0 1.847.03 3.633 0 5.45-.03 2.118-1.12 3.268-3.241 3.39-1.394.09-2.818 0-4.333 0v8.506c2.939 0 5.817.121 8.665-.03 4.03-.242 6.513 2.452 6.18 6.175-.09 1.09 0 2.21-.03 3.33-.03 3.361-2.151 5.419-5.544 5.419h-1.697c.849 3.572 1.666 6.993 2.515 10.444a2780.663 2780.663 0 013.696 15.258c.454 1.937-.485 3.42-2.12 3.36-1.395-.061-2-.939-2.303-2.21-2-8.355-4.03-16.71-6.06-25.096-.12-.545-.272-1.059-.454-1.756-3.302 0-6.635-.03-9.937.061-.303 0-.757.696-.848 1.12-2.03 8.264-4.03 16.529-6.03 24.793-.09.333-.18.696-.272 1.029-.454 1.574-1.545 2.362-2.848 2.029-1.333-.364-1.939-1.544-1.545-3.118 1.606-6.66 3.212-13.29 4.787-19.95.454-1.907.909-3.814 1.424-5.933h-2c-2.969-.061-5.15-2.12-5.301-5.117a56.71 56.71 0 010-4.54c.09-3.088 2.181-5.207 5.271-5.238 3.09-.06 6.15-.03 9.24-.06.091 0 .182-.061.394-.151v-8.325c-1.363 0-2.666.03-3.968 0-2.515-.061-3.666-1.242-3.697-3.754v-5.207c-.636-.03-1.12-.09-1.605-.09-7.06-.031-14.148-.061-21.207-.061-3.818 0-5.454-1.635-5.454-5.42v-31.18c0-3.663 1.697-5.328 5.363-5.328 5.817 0 11.603-.03 17.42.03.939 0 1.575-.242 2.15-1.029 1.03-1.423 2.212-2.755 3.303-4.147.97-1.241 2.212-1.847 3.787-1.847 4.15.03 8.27.03 12.421 0 1.727-.03 3 .666 4.03 1.968 1.12 1.423 2.211 2.876 3.423 4.238.364.424 1.06.727 1.636.757 1.606.09 3.242.03 4.847.03 3.06.03 5.03 1.998 5.03 5.025v31.786c0 3.21-1.91 5.117-5.181 5.177-3.12.03-6.271.03-9.392.03-.06.03-.151.091-.515.182zM22.45 88.749V73.128c0-1.362.333-2.543 1.878-2.876 1.576-.333 2.697.727 2.697 2.574.03 4.783 0 9.596 0 14.379 0 .515.06 1.06.09 1.574h38.537V56.055c-2.303 0-4.514-.061-6.726.03-1.242.03-2.12-.424-2.848-1.362-1.242-1.605-2.454-3.21-3.787-4.693-.424-.484-1.211-.878-1.848-.908-3.484-.09-6.968-.09-10.452 0-.666.03-1.515.454-1.969.969-1.333 1.453-2.545 2.997-3.696 4.601-.757 1.03-1.697 1.453-2.969 1.393-1.394-.06-2.787-.03-4.302-.03 0 2.028.121 3.844-.06 5.63-.061.757-.516 1.695-1.122 2.12-1.484 1.059-3.302-.182-3.362-2.21-.061-1.787 0-3.603 0-5.48H11.633V88.75H22.45zm22.631 32.664h8.634c4.181 0 4.12 0 4.181-4.178.03-1.392-.485-1.665-1.757-1.634-6.514.06-12.997.03-19.51.03-4.303 0-4.272 0-4.242 4.329 0 1.241.485 1.513 1.636 1.513 3.696-.09 7.362-.06 11.058-.06zm-5.271-27.85v4.298h10.694v-4.299H39.809z" fill="#3F4042"/><path d="M45.187 58.793c7.641-.03 13.833 6.098 13.863 13.667.03 7.599-6.131 13.756-13.742 13.786-7.702.03-13.984-6.157-13.954-13.756.03-7.57 6.222-13.697 13.833-13.697zm.06 4.506c-5.134 0-9.332 4.145-9.302 9.22.03 5.047 4.168 9.161 9.212 9.191 5.164.03 9.362-4.084 9.393-9.16 0-5.106-4.138-9.221-9.303-9.251z" fill="#3F4042"/></svg>