<svg width="129" height="171" fill="none" xmlns="http://www.w3.org/2000/svg"><path d="M106.71 58.096a18.892 18.892 0 01-16.594.079c8.509-3.038 13.682-9.098 15.903-17.411a23.543 23.543 0 01.691 17.332zm-4.851-23.847c6.186 6.154 8.8 13.564 7.159 22.481a18.962 18.962 0 008.227-14.372c-4.443-4.899-9.624-7.544-15.386-8.11zm.707 13.344c-8.76 2.355-16.485.597-23.102-5.024a18.752 18.752 0 008.352 14.303c6.594-1.452 11.429-4.584 14.781-9.31l-.031.031zm-7.74.408c-6.688-6.648-8.745-14.13-7.183-22.497a18.98 18.98 0 00-8.219 14.373c4.27 4.733 9.404 7.528 15.402 8.093v.032zm-4.192-6.5c2.221-8.328 7.363-14.396 15.919-17.441a18.839 18.839 0 00-16.594.078c-2.002 6.1-1.774 11.948.675 17.332v.032zm3.548-6.852c8.431-2.269 16.28-.667 23.023 5.047a18.751 18.751 0 00-8.328-14.357c-6.421 1.413-11.32 4.592-14.695 9.279v.031zM79.613 22.2l-15.48 7.065L0 .025v14.13l64.133 29.24 7.59-3.47a26.533 26.533 0 017.89-17.725zm16.704-7.639a29.814 29.814 0 012.057-.086 26.477 26.477 0 0116.484 5.746l13.345-6.091V0L96.317 14.561zM15.464 34.304A15.957 15.957 0 0044.508 47.53L15.464 34.303zm4.514 132.834a5.945 5.945 0 01-3.674 1.122v.966h-.918v-.966a6.13 6.13 0 01-3.682-1.13 3.875 3.875 0 01-.97-4.504c.227-.501.557-.949.97-1.313a6.075 6.075 0 013.681-1.138v-.934h.919v.934a6.07 6.07 0 013.666 1.138 3.873 3.873 0 010 5.825h.008zm-7.575-.589a5.115 5.115 0 002.982.926v-6.499a5.061 5.061 0 00-2.998.918 3.085 3.085 0 000 4.655h.016zm6.892 0a2.844 2.844 0 001.052-2.355 2.803 2.803 0 00-1.06-2.355 4.978 4.978 0 00-2.983-.91v6.499a5.083 5.083 0 002.99-.871v-.008zm6.822 1.813a4.528 4.528 0 01-1.759-1.703 4.962 4.962 0 010-4.859 4.517 4.517 0 011.759-1.696 5.14 5.14 0 012.52-.62 5.08 5.08 0 012.496.613 4.473 4.473 0 011.758 1.703 4.922 4.922 0 010 4.867 4.527 4.527 0 01-1.758 1.703 5.08 5.08 0 01-2.497.613 5.13 5.13 0 01-2.52-.621zm4.521-.785a3.54 3.54 0 001.397-1.389 3.924 3.924 0 00.51-1.978 3.923 3.923 0 00-.51-1.986 3.585 3.585 0 00-1.397-1.382 4.264 4.264 0 00-4.011 0 3.578 3.578 0 00-1.413 1.382 3.925 3.925 0 00-.518 1.986c-.01.694.17 1.378.518 1.978.329.588.82 1.07 1.413 1.389a4.253 4.253 0 004.011 0zm12.371-7.159h-3.29v8.486h-.973v-8.486h-3.28v-.847h7.543v.847zm4.31 7.945a4.584 4.584 0 01-1.759-1.704 4.96 4.96 0 010-4.859 4.579 4.579 0 011.759-1.696 5.425 5.425 0 015.024 0 4.51 4.51 0 011.75 1.704 4.921 4.921 0 010 4.867 4.561 4.561 0 01-1.75 1.703 5.426 5.426 0 01-5.024 0v-.015zm4.521-.785a3.548 3.548 0 001.397-1.39 3.83 3.83 0 00.51-1.978 3.877 3.877 0 00-.51-1.986 3.586 3.586 0 00-1.397-1.382 3.99 3.99 0 00-2.002-.502 4.043 4.043 0 00-2.009.502 3.676 3.676 0 00-1.413 1.382 3.925 3.925 0 00-.518 1.986c-.01.694.17 1.378.518 1.978a3.645 3.645 0 001.413 1.39 4.043 4.043 0 002.01.502 3.99 3.99 0 002.001-.479v-.023zm7.842.792a4.506 4.506 0 01-1.75-1.734 4.981 4.981 0 010-4.867 4.46 4.46 0 011.75-1.704 5.506 5.506 0 014.435-.267c.57.216 1.08.563 1.492 1.013l-.628.628a3.725 3.725 0 00-2.764-1.107 4.043 4.043 0 00-2.01.502 3.727 3.727 0 00-1.42 1.39 3.838 3.838 0 00-.518 1.978 3.79 3.79 0 00.518 1.97 3.672 3.672 0 001.42 1.39 4.058 4.058 0 002.01.51 3.655 3.655 0 002.764-1.123l.628.628a4 4 0 01-1.5 1.021c-.615.24-1.27.36-1.93.353a5.1 5.1 0 01-2.497-.581zm15.079-7.952h-3.28v8.486h-.974v-8.486h-3.281v-.847h7.535v.847zm10.079-.847l-4.223 7.849a3.26 3.26 0 01-1.06 1.249c-.39.269-.853.412-1.326.408a3.098 3.098 0 01-1.146-.251l.282-.785c.285.112.589.168.895.164a1.719 1.719 0 001.507-.996l.267-.456-3.83-7.182h1.051l3.258 6.327 3.336-6.327h.99zm11.32 8.477V171h-.926v-2.096h-8.149V171h-.918v-2.952h.471c.612 0 1.036-.518 1.28-1.46.284-1.313.431-2.652.44-3.995l.109-3.022h6.28v8.477h1.413zm-7.253-1.844a2.957 2.957 0 01-.88 1.844h5.754v-7.63h-4.474l-.055 2.293a23.168 23.168 0 01-.345 3.493zm10.267-6.633h.974v7.74l5.973-7.74h.895v9.341h-.973v-7.724l-5.974 7.724h-.895v-9.341zm18.612 0v9.341h-.973v-2.834h-3.32l-1.963 2.857h-1.083l2.119-3.03a2.848 2.848 0 01-1.57-1.091 3.26 3.26 0 01-.541-1.915 3.074 3.074 0 01.989-2.441 3.99 3.99 0 012.692-.864l3.65-.023zm-5.652 5.047a2.814 2.814 0 001.971.62h2.708v-4.812h-2.614a2.996 2.996 0 00-2.025.62 2.649 2.649 0 00-.04 3.572zM11.005 91.615a4.506 4.506 0 001.476 3.587 8.321 8.321 0 004.45 1.657v-10.55c-2.072.227-3.57.785-4.513 1.617a4.71 4.71 0 00-1.413 3.689zM57.02 85.65a6.82 6.82 0 00-6.617 0 6.28 6.28 0 00-2.355 2.433 8.015 8.015 0 000 7.206 6.233 6.233 0 002.355 2.425 6.774 6.774 0 006.618 0 6.178 6.178 0 002.355-2.425 7.952 7.952 0 000-7.206 6.28 6.28 0 00-2.355-2.434zm24.492 33.424c0-1.57-.965-2.355-2.896-2.355h-4.341v4.757h4.34c1.932-.016 2.897-.817 2.897-2.402zm-30.3-1.241a6.827 6.827 0 00-6.617 0 6.277 6.277 0 00-2.355 2.434 8.01 8.01 0 000 7.206 6.231 6.231 0 002.355 2.425 6.772 6.772 0 006.617 0 6.17 6.17 0 002.355-2.425 7.951 7.951 0 000-7.206 6.276 6.276 0 00-2.355-2.434zM27.631 87.926a8.124 8.124 0 00-4.458-1.617V96.92a7.897 7.897 0 004.498-1.648 4.772 4.772 0 001.428-3.69 4.584 4.584 0 00-1.468-3.657zm52.021 38.15h-5.377v4.961h5.377c1.978 0 2.967-.838 2.967-2.512 0-1.675-.989-2.491-2.967-2.449zm34.045-40.426a6.823 6.823 0 00-6.618 0 6.284 6.284 0 00-2.355 2.433 7.957 7.957 0 000 7.206 6.185 6.185 0 002.355 2.425 6.777 6.777 0 006.618 0 6.24 6.24 0 002.355-2.425 8.021 8.021 0 000-7.206 6.284 6.284 0 00-2.355-2.434z" fill="#fff"/><path d="M122.48 29.876a26.625 26.625 0 01-13.14 35.293 26.629 26.629 0 01-35.293-13.14l-9.914 4.49-10-4.553A26.62 26.62 0 015.69 29.876L0 27.278V149.54h128.164V27.279l-5.684 2.597zM14.483 127.473a5.987 5.987 0 002.355 2.425 6.951 6.951 0 003.5.864 7.159 7.159 0 005.692-2.826l4.34 3.925a11.455 11.455 0 01-4.41 3.375 14.57 14.57 0 01-5.967 1.17 14.276 14.276 0 01-6.805-1.57 11.926 11.926 0 01-4.71-4.467 13.021 13.021 0 010-12.96 11.91 11.91 0 014.71-4.458 14.185 14.185 0 016.805-1.609 14.59 14.59 0 015.966 1.177 11.465 11.465 0 014.412 3.375l-4.341 3.925a7.171 7.171 0 00-2.515-2.079 7.172 7.172 0 00-3.176-.747 7.069 7.069 0 00-3.501.856 6.066 6.066 0 00-2.355 2.433 8.15 8.15 0 000 7.207v-.016zm18.015-28.346c-2.15 1.853-5.26 2.899-9.325 3.14v2.653h-6.241v-2.653c-4.066-.298-7.175-1.345-9.326-3.14a10.253 10.253 0 010-14.914c2.136-1.822 5.25-2.884 9.342-3.187v-2.544h6.24v2.48c4.067.273 7.175 1.32 9.326 3.14a10.342 10.342 0 012.38 11.577 10.34 10.34 0 01-2.38 3.417l-.016.031zm27.074 31.203a12.193 12.193 0 01-4.788 4.482 15.423 15.423 0 01-13.753 0 12.328 12.328 0 01-6.615-10.926 12.332 12.332 0 016.615-10.927 15.357 15.357 0 0113.753 0 12.554 12.554 0 014.788 17.371zm5.809-32.184a12.2 12.2 0 01-4.788 4.482 15.423 15.423 0 01-13.753 0 12.334 12.334 0 01-4.833-17.313 12.332 12.332 0 014.833-4.54 15.362 15.362 0 0113.753 0 12.56 12.56 0 014.788 17.371zm21.634 35.96c-1.664 1.23-4.02 1.845-7.065 1.845H67.555v-24.146h11.72c2.9 0 5.144.544 6.735 1.632a5.298 5.298 0 012.402 4.64 5.689 5.689 0 01-.848 3.1 5.96 5.96 0 01-2.433 2.143 6.45 6.45 0 013.258 2.135 5.646 5.646 0 011.122 3.588 5.942 5.942 0 01-2.496 5.047v.016zm5.793-49.061H85.43v18.722h-6.727v-18.77h-7.41V79.59h21.516v5.456zm21.564 50.89l-1.892-4.71h-10.205l-1.9 4.71h-6.962l10.652-24.13h6.719l10.652 24.13h-7.064zm7.724-37.805a12.172 12.172 0 01-4.796 4.483 15.441 15.441 0 01-13.753 0 12.343 12.343 0 01-4.827-17.312 12.34 12.34 0 014.827-4.542 15.359 15.359 0 0113.753 0 12.57 12.57 0 016.071 7.671 12.563 12.563 0 01-1.275 9.7z" fill="#fff"/><path d="M104.23 126.209h6.209l-3.1-7.716-3.109 7.716z" fill="#fff"/></svg>