<svg width="29" height="28" fill="none" xmlns="http://www.w3.org/2000/svg"><path fill-rule="evenodd" clip-rule="evenodd" d="M24.327 18.252V7.165a3.28 3.28 0 00-3.275-3.275h-16.5a3.279 3.279 0 00-3.276 3.275v11.087a3.28 3.28 0 003.275 3.275h4.662a.638.638 0 110 1.276H4.55A4.556 4.556 0 010 18.253V7.164a4.556 4.556 0 014.551-4.551h16.5a4.556 4.556 0 014.552 4.551v11.087a4.556 4.556 0 01-4.551 4.551.596.596 0 00-.465.217l-.11.128c-.676.79-2.343 2.74-5.445 4.66-1.059.655-2.312-.485-1.765-1.602a16.005 16.005 0 001.21-3.378c.003-.01-.007-.025-.023-.025H11.3a.638.638 0 110-1.276h3.154c.837 0 1.457.78 1.266 1.593a17.189 17.189 0 01-1.253 3.536c.127-.08.259-.164.395-.253 1.196-.783 2.701-1.927 4.081-3.434.223-.243.442-.495.656-.757a1.862 1.862 0 011.453-.685 3.28 3.28 0 003.275-3.275z" fill="#3F4042"/><path fill-rule="evenodd" clip-rule="evenodd" d="M7.28 13.324h9.454a.665.665 0 00.519-.228.746.746 0 00.17-.484.746.746 0 00-.17-.484.664.664 0 00-.52-.228H7.282c-.222 0-.4.088-.52.228a.745.745 0 00-.17.484c0 .17.054.347.17.484.12.14.298.228.52.228zm-1.157 1.908a.71.71 0 00-.707.712.71.71 0 00.707.712h7.573a.663.663 0 00.519-.228.746.746 0 00.171-.484.745.745 0 00-.171-.484.664.664 0 00-.52-.228H6.124z" fill="#3F4042"/><path fill-rule="evenodd" clip-rule="evenodd" d="M26.904 4.187a2.865 2.865 0 00-2.862-2.862 2.865 2.865 0 00-2.862 2.862 2.865 2.865 0 002.862 2.862 2.865 2.865 0 002.862-2.862z" fill="#fff"/><path fill-rule="evenodd" clip-rule="evenodd" d="M24.042 0a4.19 4.19 0 014.187 4.187 4.19 4.19 0 01-4.187 4.187 4.19 4.19 0 01-4.187-4.187A4.19 4.19 0 0124.042 0zm0 1.325a2.865 2.865 0 012.862 2.862 2.865 2.865 0 01-2.862 2.862 2.865 2.865 0 01-2.862-2.862 2.865 2.865 0 012.862-2.862z" fill="#3F4042"/></svg>