<svg width="33" height="28" fill="none" xmlns="http://www.w3.org/2000/svg"><path fill-rule="evenodd" clip-rule="evenodd" d="M17.593 17.164a.6.6 0 00.47-.207.675.675 0 00.155-.438.675.675 0 00-.155-.438.601.601 0 00-.47-.207.6.6 0 00-.47.207.675.675 0 00-.155.438c0 .155.05.315.155.438a.6.6 0 00.47.207zm.46-.504c.073-.285-.08-.637-.46-.637.38 0 .533.352.46.637zm1.974.504h8.563a.6.6 0 00.47-.207.675.675 0 00.155-.438.675.675 0 00-.155-.438.6.6 0 00-.47-.207h-8.563a.6.6 0 00-.47.207.675.675 0 00-.155.438c0 .155.049.315.155.438a.6.6 0 00.47.207zm9.006-.84a.45.45 0 00-.443-.301h-8.563c-.398 0-.547.388-.448.678-.1-.29.05-.678.448-.678h8.563a.45.45 0 01.443.3zm-15.744 3.309a.458.458 0 00.47.4h15.88-15.88a.458.458 0 01-.47-.4zm16.99-.095a.643.643 0 00-.64-.645h-15.88a.6.6 0 00-.47.206.675.675 0 00-.156.439c0 .154.05.314.156.438a.6.6 0 00.47.206h15.88c.353 0 .64-.288.64-.644zM19.92 22.556a.494.494 0 00-.493-.496h-6.84 6.84a.494.494 0 01.493.496zm.147 0a.643.643 0 00-.64-.645h-6.84a.598.598 0 00-.47.207.675.675 0 00-.156.438c0 .155.05.315.155.438.109.127.27.207.47.207h6.841c.354 0 .64-.289.64-.645z" fill="#3F4042"/><path fill-rule="evenodd" clip-rule="evenodd" d="M19.186 6.833a.609.609 0 01-.59-.493.612.612 0 01.588-.74h12.884c.33 0 .599.276.599.617v13.035a.589.589 0 01-.192.453.613.613 0 01-.407.149.613.613 0 01-.407-.15.588.588 0 01-.192-.452V6.833H19.186zM4.69 17.863c0-.428.457-.701.847-.527a.59.59 0 01.352.532v8.268h25.58v-4.353c0-.194.075-.348.193-.453a.613.613 0 01.407-.15c.143 0 .292.048.407.15.117.105.192.26.192.453v4.97a.61.61 0 01-.6.617H5.289a.608.608 0 01-.599-.617v-8.89zm7.407-2.472a9.46 9.46 0 00.361-3.466 11.522 11.522 0 01-3.806 4.025 7.454 7.454 0 003.445-.559zm-5.035 1.43a8.553 8.553 0 01-.738-.227.332.332 0 01-.212-.218.383.383 0 01.22-.459 12.84 12.84 0 00.63-.294c1.555-.78 2.807-1.827 3.774-3.11.28-.37.534-.76.766-1.17a11.697 11.697 0 00.88-1.949c.117-.332.579-.359.69-.024a10.96 10.96 0 01.224.779 10.595 10.595 0 01-.241 5.918.358.358 0 01-.187.21 8.57 8.57 0 01-5.806.544zm-1.854-1.348c.283-.078.558-.163.825-.256 1.544-.534 2.83-1.314 3.888-2.336a9.186 9.186 0 00.563-.592c.231-.264-.023-.65-.366-.585l-.203.038-.039.006a13.01 13.01 0 01-.38.06l-.103.015c-.506.068-1.005.104-1.495.107-.466.004-.924-.022-1.375-.076-1.631-.196-3.161-.768-4.589-1.705a10.223 10.223 0 01-.318-.216 12.666 12.666 0 01-.25-.18.377.377 0 00-.496.033.334.334 0 00-.087.298 8.446 8.446 0 003.541 5.488.357.357 0 00.283.053c.204-.047.404-.098.6-.152zm-2.716-3.7a7.333 7.333 0 002.192 2.676c1.255-.321 2.325-.788 3.237-1.394a11.52 11.52 0 01-5.43-1.282zM1.194 8.552c.205.202.414.394.626.577 1.198 1.03 2.524 1.763 3.98 2.174a11.37 11.37 0 00.488.125c.1.023.202.044.305.064.343.068.546-.35.314-.615a12.848 12.848 0 01-.47-.57 11.834 11.834 0 01-.83-1.203 10.549 10.549 0 01-.632-1.23c-.655-1.512-.907-3.106-.8-4.786a11.587 11.587 0 01.064-.695.382.382 0 00-.267-.417.328.328 0 00-.309.07A8.579 8.579 0 001.769 4.32a8.548 8.548 0 00-1.1 3.51.363.363 0 00.095.277c.141.153.285.301.43.445zm1.854-4.167a7.435 7.435 0 00-1.23 3.205c.87.89 1.81 1.581 2.82 2.073a11.164 11.164 0 01-1.59-5.278zM12.318.72a.331.331 0 00-.212-.216A8.559 8.559 0 009.175 0a8.547 8.547 0 00-3.61.819.36.36 0 00-.19.217 13.042 13.042 0 00-.367 1.45c-.292 1.544-.256 3.045.109 4.485a10.042 10.042 0 00.23.775c.113.332.57.303.686-.028a13.23 13.23 0 01.26-.681c.193-.468.412-.915.657-1.342.231-.404.486-.789.764-1.154.962-1.264 2.206-2.296 3.752-3.068a11.344 11.344 0 01.631-.293.382.382 0 00.22-.46zm-2.546.426a7.445 7.445 0 00-3.43.556c-.344 1.202-.47 2.364-.388 3.482a11.463 11.463 0 013.818-4.038zm-1.27 4.21a12.043 12.043 0 01.58-.088c.49-.063.976-.095 1.456-.096.465-.002.926.026 1.38.083 1.609.202 3.144.771 4.583 1.715a13.91 13.91 0 01.566.394c.17.125.384.088.502-.04a.334.334 0 00.081-.29 8.48 8.48 0 00-1.02-2.804 8.472 8.472 0 00-2.513-2.713.357.357 0 00-.283-.054 13.707 13.707 0 00-1.438.418c-1.5.532-2.779 1.315-3.835 2.326a9.907 9.907 0 00-.566.587c-.234.263.02.653.365.589.047-.01.095-.018.143-.026zm2.042-1.31c.92-.615 1.987-1.09 3.21-1.406a7.348 7.348 0 012.204 2.714 11.64 11.64 0 00-5.414-1.307zm6.707 4.519a12.73 12.73 0 00-.633-.583c-1.224-1.055-2.555-1.778-3.978-2.186a9.938 9.938 0 00-.791-.192c-.344-.07-.549.35-.318.615a13.611 13.611 0 01.468.57c.307.396.584.803.83 1.22.236.401.444.812.623 1.233.624 1.465.898 3.053.793 4.774 0 .019-.002.037-.003.056a12.609 12.609 0 01-.058.637.382.382 0 00.283.42.329.329 0 00.292-.073 8.665 8.665 0 00.566-.523 8.563 8.563 0 002.436-5.264.363.363 0 00-.096-.278 13.61 13.61 0 00-.414-.426zm-1.881 4.164a7.41 7.41 0 001.242-3.218c-.887-.904-1.83-1.588-2.822-2.073a11.333 11.333 0 011.58 5.29z" fill="#3F4042"/></svg>