<svg width="22" height="22" fill="none" xmlns="http://www.w3.org/2000/svg"><path d="M14.693 14.109c-.52 0-.945-.367-.945-.818 0-.451.424-.818.945-.818.522 0 .946.367.946.818a.43.43 0 00.859 0c0-.787-.587-1.45-1.375-1.63v-.223a.43.43 0 00-.86 0v.224c-.788.18-1.374.841-1.374 1.629 0 .925.81 1.677 1.804 1.677.522 0 .946.367.946.819 0 .45-.424.818-.946.818-.52 0-.945-.367-.945-.818a.43.43 0 00-.86 0c0 .787.587 1.45 1.376 1.629v.185a.43.43 0 00.859 0v-.185c.788-.18 1.375-.842 1.375-1.63 0-.924-.81-1.677-1.805-1.677zm4.707-2.556a5.6 5.6 0 00-2.287-2.024.43.43 0 10-.373.775 4.755 4.755 0 012.682 4.262c0 .773-.19 1.54-.551 2.217a.43.43 0 10.759.404 5.598 5.598 0 00-.23-5.634zM15.369 8.98h-.03a.43.43 0 000 .86h.029a.43.43 0 00.002-.86zm-2.719 9.849a4.755 4.755 0 01-2.681-4.263c0-.773.19-1.539.55-2.216a.43.43 0 10-.758-.404 5.597 5.597 0 00.23 5.634 5.599 5.599 0 002.287 2.024.427.427 0 00.573-.202.43.43 0 00-.2-.573zm1.4.464h-.024a.43.43 0 10-.004.86h.029a.43.43 0 000-.86z" fill="#3F4042"/><path d="M16.646 7.527a1.963 1.963 0 00-.19-.351h1.118c1.09 0 1.977-.887 1.977-1.977s-.887-1.976-1.977-1.976h-3.44a1.979 1.979 0 00-1.63-3.094H1.977A1.98 1.98 0 000 2.105a1.98 1.98 0 001.977 1.977h3.44a1.965 1.965 0 000 2.234h-1.12A1.98 1.98 0 002.32 8.293c0 .626.293 1.184.749 1.547a1.973 1.973 0 000 3.094 1.973 1.973 0 000 3.093 1.973 1.973 0 00-.749 1.547 1.98 1.98 0 001.977 1.977H9.36a7.285 7.285 0 005.334 2.32c4.028 0 7.305-3.277 7.305-7.305 0-3.352-2.27-6.184-5.354-7.04zm.928-3.445a1.118 1.118 0 010 2.234H7.047A1.118 1.118 0 015.93 5.2c0-.616.5-1.117 1.117-1.117h10.527zm-15.597-.86A1.118 1.118 0 01.859 2.106c0-.616.502-1.117 1.118-1.117h10.527a1.118 1.118 0 010 2.235H1.977zm2.32 3.954h10.527c.173 0 .339.04.488.112A7.282 7.282 0 009.527 9.41h-5.23A1.118 1.118 0 013.18 8.293c0-.616.5-1.117 1.117-1.117zm0 3.094h4.495a7.284 7.284 0 00-1.104 2.234H4.297a1.118 1.118 0 01-1.117-1.117c0-.616.5-1.117 1.117-1.117zm0 3.093H7.49a7.32 7.32 0 00-.026 2.235H4.297a1.118 1.118 0 010-2.235zm0 5.328a1.118 1.118 0 010-2.234h3.342a7.276 7.276 0 001.031 2.234H4.297zm10.398 2.32a6.453 6.453 0 01-6.445-6.445 6.453 6.453 0 016.445-6.445 6.453 6.453 0 016.446 6.445 6.453 6.453 0 01-6.446 6.446z" fill="#3F4042"/></svg>