<svg width="25" height="24" fill="none" xmlns="http://www.w3.org/2000/svg"><path fill-rule="evenodd" clip-rule="evenodd" d="M13.195 13.873a.45.45 0 00.352-.155.506.506 0 00.117-.329.506.506 0 00-.117-.328.45.45 0 00-.352-.155.45.45 0 00-.353.155.506.506 0 00-.116.328.51.51 0 00.116.329.45.45 0 00.353.155zm.345-.378c.055-.214-.06-.478-.345-.478.284 0 .4.264.345.478zm1.48.378h6.422a.45.45 0 00.353-.155.506.506 0 00.116-.329.506.506 0 00-.116-.328.45.45 0 00-.353-.155H15.02a.45.45 0 00-.352.155.506.506 0 00-.117.328c0 .116.037.236.117.329a.45.45 0 00.352.155zm6.754-.63a.337.337 0 00-.332-.226H15.02c-.298 0-.41.291-.336.51-.074-.219.038-.51.336-.51h6.422c.175 0 .285.1.332.226zM9.966 15.725c.027.16.145.3.353.3h11.91-11.91a.343.343 0 01-.353-.3zm12.743-.072a.482.482 0 00-.48-.483h-11.91a.45.45 0 00-.353.155.506.506 0 00-.116.328.51.51 0 00.116.329.45.45 0 00.353.155h11.91c.265 0 .48-.217.48-.484zm-7.768 2.264a.37.37 0 00-.37-.372h-5.13 5.13a.37.37 0 01.37.372zm.11 0a.482.482 0 00-.48-.484h-5.13a.45.45 0 00-.353.155.506.506 0 00-.117.33c0 .115.037.235.117.328a.451.451 0 00.352.155h5.131c.265 0 .48-.217.48-.484z" fill="#3F4042"/><path fill-rule="evenodd" clip-rule="evenodd" d="M14.39 6.125a.456.456 0 01-.443-.37.459.459 0 01.441-.555h9.663c.248 0 .449.207.449.462v9.777a.441.441 0 01-.144.34.46.46 0 01-.305.112.46.46 0 01-.306-.113.441.441 0 01-.144-.34V6.126H14.39zM3.517 14.397c0-.32.342-.526.635-.395a.44.44 0 01.264.4v6.2H23.6v-3.265c0-.145.056-.26.144-.34a.46.46 0 01.306-.111.46.46 0 01.305.112.441.441 0 01.144.34v3.727a.456.456 0 01-.45.462H3.967a.456.456 0 01-.449-.462v-6.668zm5.556-1.854c.252-.848.342-1.73.27-2.6a8.642 8.642 0 01-2.854 3.02 5.603 5.603 0 002.584-.42zm-3.776 1.073a9.276 9.276 0 01-.294-.084 6.453 6.453 0 01-.26-.087.249.249 0 01-.16-.163.287.287 0 01.166-.344 9.479 9.479 0 00.473-.22c1.166-.585 2.105-1.37 2.83-2.333.21-.278.4-.57.575-.877a8.773 8.773 0 00.66-1.462c.088-.25.433-.27.516-.019a7.97 7.97 0 01.169.584 7.945 7.945 0 01-.18 4.44.27.27 0 01-.14.157 6.43 6.43 0 01-4.355.408zm-1.391-1.011c.212-.059.418-.123.618-.192 1.159-.401 2.123-.986 2.916-1.752a8.331 8.331 0 00.265-.269c.053-.057.106-.116.158-.175.173-.198-.017-.488-.274-.439a10.05 10.05 0 01-.544.09c-.38.05-.754.077-1.121.08a7.93 7.93 0 01-4.508-1.359 9.192 9.192 0 01-.392-.274.283.283 0 00-.371.025.25.25 0 00-.066.223 6.33 6.33 0 00.77 2.09 6.355 6.355 0 001.886 2.026.268.268 0 00.212.04c.153-.036.303-.074.45-.114zM1.869 9.83a5.495 5.495 0 001.644 2.007c.941-.241 1.744-.591 2.428-1.046a8.64 8.64 0 01-4.072-.961zM.896 7.414c.153.151.31.296.47.433.897.772 1.892 1.322 2.984 1.63a7.55 7.55 0 00.594.142c.258.05.41-.263.236-.461a10.538 10.538 0 01-.353-.427 8.876 8.876 0 01-.621-.903 7.91 7.91 0 01-.474-.922c-.492-1.135-.68-2.33-.601-3.59a10.958 10.958 0 01.048-.521.287.287 0 00-.2-.313.246.246 0 00-.232.052 6.433 6.433 0 00-1.42 1.706A6.41 6.41 0 00.5 6.872a.272.272 0 00.072.209c.106.114.213.225.323.333zm1.39-3.125a5.574 5.574 0 00-.923 2.403A7.628 7.628 0 003.48 8.247 8.373 8.373 0 012.286 4.29zm6.952-2.75a.248.248 0 00-.159-.161A6.4 6.4 0 006.881 1a6.41 6.41 0 00-2.708.614.27.27 0 00-.141.163 9.776 9.776 0 00-.276 1.088 7.727 7.727 0 00.18 3.715c.023.077.048.153.074.23.085.249.428.227.515-.022a9.72 9.72 0 01.195-.51 8.2 8.2 0 011.065-1.872c.722-.949 1.655-1.722 2.814-2.301a8.986 8.986 0 01.474-.22.287.287 0 00.165-.345zm-1.909.32a5.584 5.584 0 00-2.573.417 7.46 7.46 0 00-.29 2.612 8.597 8.597 0 012.863-3.029zm-.953 3.158a9.556 9.556 0 01.435-.066 8.77 8.77 0 011.092-.072c.35-.001.695.02 1.035.062a8.043 8.043 0 013.47 1.308 9.167 9.167 0 01.393.274.282.282 0 00.375-.03.25.25 0 00.062-.218 6.252 6.252 0 00-.112-.516l-.013-.048a6.333 6.333 0 00-2.526-3.574.268.268 0 00-.212-.04 10.29 10.29 0 00-1.079.314c-1.125.399-2.084.986-2.876 1.744a7.58 7.58 0 00-.424.44c-.176.198.014.49.273.442l.107-.02zm1.532-.982a7.807 7.807 0 012.408-1.055 5.512 5.512 0 011.652 2.035 8.73 8.73 0 00-4.06-.98zm5.03 3.389a9.564 9.564 0 00-.474-.438c-.919-.79-1.917-1.333-2.984-1.639a7.454 7.454 0 00-.593-.144c-.258-.052-.412.262-.239.461A9.843 9.843 0 019 6.092c.23.297.438.602.623.915.177.3.333.609.467.924.468 1.1.673 2.29.595 3.581l-.003.042a9.237 9.237 0 01-.043.478.286.286 0 00.212.315.246.246 0 00.22-.055 6.407 6.407 0 001.424-1.708 6.404 6.404 0 00.827-2.632.272.272 0 00-.073-.209c-.102-.11-.205-.216-.31-.32zm-1.41 3.122a5.578 5.578 0 00.93-2.413 7.718 7.718 0 00-2.115-1.555 8.5 8.5 0 011.184 3.968z" fill="#3F4042"/></svg>