<svg width="273" height="292" fill="none" xmlns="http://www.w3.org/2000/svg"><mask id="a" style="mask-type:alpha" maskUnits="userSpaceOnUse" x="0" y="0" width="273" height="292"><path fill="#C4C4C4" d="M.092.892h272v291h-272z"/></mask><g mask="url(#a)"><path fill="#3F4042" d="M.092.892h272v291h-272z"/><path d="M118.559 208.485c-21.353 10.379-44.836 15.832-68.659 15.943-23.823.112-47.358-5.121-68.81-15.3 70.49-24.725 113.345-74.044 131.745-141.7 20.112 44.59 22.16 95.036 5.724 141.057zM78.372 14.406c51.247 50.085 72.902 110.391 59.307 182.962 19.626-13.162 35.957-30.527 47.762-50.788 11.806-20.26 18.778-42.888 20.393-66.178-36.807-39.87-79.728-61.39-127.462-65.996zm5.857 108.601c-72.57 19.166-136.567 4.858-191.384-40.888 1.69 23.312 8.808 45.931 20.804 66.114 11.996 20.182 28.55 37.388 48.387 50.291 54.626-11.818 94.68-37.307 122.45-75.77l-.257.253zm-64.12 3.32C-35.297 72.222-52.338 11.33-39.398-56.764-59.005-43.587-75.318-26.215-87.11-5.956c-11.793 20.26-18.759 42.882-20.376 66.166 35.374 38.52 77.905 61.266 127.595 65.865v.252zm-34.728-52.9C3.78 5.65 46.378-43.735 117.259-68.517 95.816-78.726 72.278-83.98 48.449-83.87c-23.83.11-47.316 5.58-68.66 15.988-16.585 49.645-14.697 97.239 5.592 141.057v.252zm29.392-55.765c69.845-18.466 134.869-5.428 190.73 41.075-1.6-23.372-8.656-46.068-20.62-66.33s-28.515-37.546-48.372-50.514C83.318-46.607 42.733-20.735 14.773 17.41v.252z" fill="#454748"/><g clip-path="url(#clip0)" fill="#BCCABB"><path d="M70.014 57.79c-1.2.58-2.52.886-3.86.892a8.959 8.959 0 01-3.868-.857c3.963-1.384 6.372-4.146 7.406-7.935a10.518 10.518 0 01.322 7.9zm-2.259-10.87c2.88 2.805 4.098 6.182 3.334 10.246a8.717 8.717 0 002.685-2.844 8.509 8.509 0 001.146-3.706c-2.069-2.233-4.482-3.438-7.165-3.696zm.33 6.082c-4.08 1.073-7.678.272-10.76-2.29a8.416 8.416 0 001.17 3.702 8.626 8.626 0 002.72 2.817c3.07-.662 5.323-2.09 6.884-4.243l-.015.014zm-3.605.186c-3.115-3.03-4.073-6.44-3.346-10.253a8.724 8.724 0 00-2.682 2.845 8.517 8.517 0 00-1.145 3.705c1.988 2.157 4.38 3.431 7.173 3.689v.014zm-1.953-2.963c1.035-3.795 3.43-6.56 7.414-7.949a8.932 8.932 0 00-3.868-.86 8.93 8.93 0 00-3.86.896c-.932 2.78-.826 5.445.314 7.9v.014zm1.653-3.123c3.926-1.034 7.581-.304 10.722 2.3a8.414 8.414 0 00-1.16-3.714 8.624 8.624 0 00-2.719-2.829c-2.99.644-5.272 2.093-6.843 4.23v.013zm-6.785-5.673l-7.21 3.22-29.867-13.327v6.44L50.186 51.09l3.534-1.581a11.976 11.976 0 013.675-8.078zm7.78-3.482a12.502 12.502 0 018.635 2.58l6.214-2.776v-6.44l-14.85 6.636zM27.52 46.946a7.13 7.13 0 00-.176 5.548 7.339 7.339 0 003.874 4.054 7.58 7.58 0 005.668.198 7.37 7.37 0 004.16-3.772L27.52 46.946zm2.102 60.54a2.808 2.808 0 01-1.71.511v.44h-.428v-.44a2.896 2.896 0 01-1.715-.515 1.76 1.76 0 01-.571-.953c-.082-.37-.04-.755.12-1.1.105-.228.259-.432.451-.598a2.88 2.88 0 011.714-.519v-.425h.428v.425c.612-.012 1.21.17 1.708.519.193.166.347.37.454.599a1.732 1.732 0 010 1.457 1.787 1.787 0 01-.454.599h.003zm-3.527-.269a2.41 2.41 0 001.388.422v-2.962a2.396 2.396 0 00-1.396.419 1.381 1.381 0 000 2.121h.008zm3.21 0a1.293 1.293 0 00.49-1.073 1.256 1.256 0 00-.495-1.073 2.349 2.349 0 00-1.389-.415v2.962a2.41 2.41 0 001.393-.397v-.004zm3.176.827a2.092 2.092 0 01-.819-.777 2.222 2.222 0 010-2.214c.195-.326.479-.594.82-.773.36-.191.763-.288 1.173-.283a2.42 2.42 0 011.162.28c.342.179.625.448.819.776a2.205 2.205 0 010 2.218 2.082 2.082 0 01-.819.776 2.41 2.41 0 01-1.163.28 2.441 2.441 0 01-1.173-.283zm2.106-.358c.273-.147.5-.366.65-.633a1.76 1.76 0 00.238-.902 1.758 1.758 0 00-.238-.905 1.657 1.657 0 00-.65-.63 2.02 2.02 0 00-1.868 0 1.657 1.657 0 00-.658.63 1.762 1.762 0 00-.241.905c-.005.317.079.628.24.902.154.268.383.487.659.633a2.02 2.02 0 001.868 0zm5.761-3.263h-1.532v3.868h-.453v-3.868h-1.528v-.386h3.513v.386zm2.007 3.621a2.111 2.111 0 01-.819-.777 2.22 2.22 0 010-2.214 2.11 2.11 0 01.82-.773 2.566 2.566 0 012.339 0c.34.181.621.449.815.777a2.205 2.205 0 010 2.218 2.104 2.104 0 01-.815.776 2.566 2.566 0 01-2.34 0v-.007zm2.106-.358a1.63 1.63 0 00.65-.633c.161-.274.244-.586.238-.902a1.739 1.739 0 00-.238-.905 1.657 1.657 0 00-.65-.63 1.88 1.88 0 00-.933-.228 1.914 1.914 0 00-.935.228 1.7 1.7 0 00-.658.63 1.76 1.76 0 00-.242.905 1.72 1.72 0 00.9 1.535c.286.155.609.234.936.229.325.008.646-.067.932-.218v-.011zm3.652.361a2.078 2.078 0 01-.815-.79 2.233 2.233 0 010-2.218 2.06 2.06 0 01.815-.777 2.618 2.618 0 012.065-.121c.266.098.503.256.695.461l-.292.286a1.765 1.765 0 00-1.287-.504 1.906 1.906 0 00-.937.229 1.711 1.711 0 00-.902 1.535c-.005.315.078.625.241.898.157.266.386.485.661.633.287.156.609.236.936.232a1.723 1.723 0 001.288-.511l.292.286a1.862 1.862 0 01-.698.465 2.44 2.44 0 01-.9.161 2.416 2.416 0 01-1.162-.265zm7.022-3.624h-1.527v3.868h-.454v-3.868h-1.528v-.386h3.51v.386zm4.694-.386l-1.967 3.577a1.499 1.499 0 01-.493.57 1.091 1.091 0 01-.618.185 1.46 1.46 0 01-.533-.114l.13-.358c.134.051.275.077.418.075a.794.794 0 00.702-.454l.124-.208-1.784-3.273h.49l1.517 2.884 1.553-2.884h.462zm5.272 3.864v1.345h-.431v-.955h-3.795v.955h-.428v-1.345h.22c.285 0 .482-.237.596-.666.132-.598.2-1.209.205-1.821l.05-1.377h2.925v3.864h.658zm-3.378-.841c-.03.319-.175.617-.41.841h2.68v-3.478h-2.084l-.025 1.045a10.324 10.324 0 01-.16 1.592zm4.782-3.023h.453v3.528l2.782-3.528h.417v4.257h-.453v-3.52l-2.783 3.52h-.416v-4.257zm8.667 0v4.257h-.453v-1.291h-1.546l-.914 1.302h-.505l.987-1.381a1.326 1.326 0 01-.73-.497 1.464 1.464 0 01-.253-.873 1.375 1.375 0 01.46-1.113 1.89 1.89 0 011.254-.393l1.7-.011zm-2.632 2.3c.258.205.587.306.918.283h1.261v-2.193h-1.217a1.414 1.414 0 00-.943.282 1.19 1.19 0 00-.019 1.628zM25.443 73.066c-.017.305.036.61.155.893.12.283.301.537.533.742a3.926 3.926 0 002.072.755v-4.808c-.965.103-1.662.357-2.101.737a2.125 2.125 0 00-.658 1.68zm21.43-2.719a3.231 3.231 0 00-3.081 0 2.892 2.892 0 00-1.097 1.11 3.59 3.59 0 000 3.283c.254.46.634.843 1.096 1.106a3.208 3.208 0 003.083 0 2.844 2.844 0 001.096-1.106 3.561 3.561 0 000-3.284 2.892 2.892 0 00-1.096-1.11v.001zM58.28 85.58c0-.715-.45-1.073-1.349-1.073H54.91v2.168h2.021c.9-.007 1.35-.372 1.35-1.095zm-14.11-.565a3.234 3.234 0 00-3.082 0 2.89 2.89 0 00-1.097 1.11 3.587 3.587 0 000 3.283c.254.46.634.843 1.097 1.105a3.207 3.207 0 003.081 0 2.841 2.841 0 001.097-1.105 3.56 3.56 0 000-3.284 2.89 2.89 0 00-1.097-1.11zm-10.983-13.63a3.835 3.835 0 00-2.076-.737v4.836a3.727 3.727 0 002.095-.751c.227-.218.404-.48.519-.77.115-.29.165-.602.146-.912a2.04 2.04 0 00-.15-.909 2.087 2.087 0 00-.534-.758zm24.227 17.387H54.91v2.26h2.504c.921 0 1.382-.381 1.382-1.144 0-.764-.46-1.136-1.382-1.116zm15.855-18.425a3.232 3.232 0 00-3.082 0 2.893 2.893 0 00-1.097 1.11 3.563 3.563 0 000 3.283c.254.461.634.844 1.097 1.106a3.21 3.21 0 003.082 0 2.872 2.872 0 001.097-1.106 3.591 3.591 0 000-3.284 2.892 2.892 0 00-1.097-1.11v.001z"/><path d="M77.376 44.753a11.96 11.96 0 01.345 9.309 12.133 12.133 0 01-2.542 4.041 12.4 12.4 0 01-3.925 2.78 12.623 12.623 0 01-9.488.338 12.448 12.448 0 01-4.12-2.494 12.181 12.181 0 01-2.833-3.85l-4.618 2.052-4.659-2.08c-1.364 2.936-3.862 5.22-6.943 6.349a12.623 12.623 0 01-9.486-.327 12.399 12.399 0 01-3.926-2.775 12.132 12.132 0 01-2.545-4.037 11.955 11.955 0 01.333-9.306l-2.65-1.188v55.878h59.705V43.566l-2.648 1.187zm-50.31 44.604c.249.466.63.85 1.096 1.109.499.27 1.061.406 1.63.395a3.395 3.395 0 001.48-.342 3.32 3.32 0 001.172-.95l2.022 1.794a5.324 5.324 0 01-2.054 1.542 6.901 6.901 0 01-2.78.535 6.756 6.756 0 01-3.17-.718 5.512 5.512 0 01-2.194-2.041 5.864 5.864 0 01-.805-2.962c0-1.039.278-2.06.805-2.961a5.505 5.505 0 012.194-2.038 6.713 6.713 0 013.17-.735 6.911 6.911 0 012.78.538 5.33 5.33 0 012.055 1.542l-2.023 1.794a3.328 3.328 0 00-1.171-.95 3.394 3.394 0 00-1.48-.341 3.344 3.344 0 00-1.63.39 2.797 2.797 0 00-1.098 1.113 3.667 3.667 0 000 3.294v-.008zm8.392-12.955c-1.002.847-2.45 1.325-4.345 1.436v1.212h-2.907v-1.212c-1.894-.137-3.342-.615-4.344-1.436a4.686 4.686 0 01-1.108-1.552 4.61 4.61 0 010-3.711 4.687 4.687 0 011.108-1.553c.995-.832 2.445-1.318 4.352-1.456v-1.163h2.907V68.1c1.894.125 3.342.604 4.344 1.436a4.703 4.703 0 011.4 2.474 4.645 4.645 0 01-.291 2.817 4.726 4.726 0 01-1.109 1.561l-.007.014zM48.07 90.663a5.638 5.638 0 01-2.23 2.049 7.298 7.298 0 01-6.407 0 5.7 5.7 0 01-2.252-2.075 5.554 5.554 0 01-.83-2.919c0-1.03.287-2.039.83-2.919a5.7 5.7 0 012.252-2.075 7.268 7.268 0 016.407 0c.686.37 1.29.87 1.775 1.472a5.698 5.698 0 011.051 2.035 5.632 5.632 0 01-.596 4.432zm2.706-14.709a5.64 5.64 0 01-2.23 2.049 7.298 7.298 0 01-6.407 0 5.723 5.723 0 01-1.802-1.448 5.6 5.6 0 01-1.068-2.031 5.534 5.534 0 01.618-4.434 5.702 5.702 0 012.252-2.075 7.27 7.27 0 016.407 0c.686.37 1.29.87 1.775 1.473a5.7 5.7 0 011.05 2.034 5.634 5.634 0 01-.595 4.432zM60.854 92.39c-.775.562-1.872.843-3.29.843h-5.775V82.197h5.46c1.35 0 2.396.248 3.137.745.358.229.648.544.845.916.196.372.29.787.274 1.205.01.5-.127.992-.395 1.417a2.76 2.76 0 01-1.133.98 3.01 3.01 0 011.517.975c.36.472.545 1.05.523 1.64.016.449-.082.894-.285 1.297a2.73 2.73 0 01-.878 1.01v.007zm2.699-22.422h-3.437v8.556h-3.134v-8.578H53.53v-2.471h10.023v2.493zm10.046 23.258l-.882-2.153h-4.754l-.885 2.153h-3.243l4.962-11.028h3.13l4.962 11.028H73.6zm3.598-17.278a5.628 5.628 0 01-2.234 2.049 7.307 7.307 0 01-6.407 0 5.727 5.727 0 01-1.8-1.45 5.605 5.605 0 01-1.066-2.03 5.538 5.538 0 01.617-4.432 5.706 5.706 0 012.249-2.076 7.268 7.268 0 016.407 0c.686.369 1.29.87 1.776 1.472a5.703 5.703 0 011.052 2.034 5.636 5.636 0 01-.594 4.433z"/><path d="M68.676 89.15h2.96l-1.478-3.922-1.482 3.922z"/></g></g><defs><clipPath id="clip0"><path fill="#fff" transform="translate(20.32 31.312)" d="M0 0h59.705v77.934H0z"/></clipPath></defs></svg>