<svg width="273" height="292" fill="none" xmlns="http://www.w3.org/2000/svg"><mask id="a" style="mask-type:alpha" maskUnits="userSpaceOnUse" x="0" y="0" width="273" height="292"><path fill="#C4C4C4" d="M.326.892h272v291h-272z"/></mask><g mask="url(#a)"><path fill="#BCB" d="M.326.892h272v291h-272z"/><path opacity=".03" d="M118.794 208.485c-21.353 10.379-44.836 15.832-68.66 15.943-23.823.112-47.358-5.121-68.81-15.3 70.49-24.725 113.346-74.044 131.745-141.7 20.113 44.59 22.16 95.036 5.725 141.057zM78.606 14.406c51.247 50.085 72.902 110.391 59.308 182.962 19.626-13.162 35.956-30.527 47.762-50.788 11.805-20.26 18.778-42.888 20.393-66.178-36.807-39.87-79.728-61.39-127.463-65.996zm5.857 108.6c-72.57 19.167-136.566 4.859-191.384-40.887 1.691 23.312 8.808 45.931 20.805 66.114 11.996 20.182 28.55 37.388 48.386 50.291 54.627-11.818 94.681-37.307 122.45-75.77l-.257.252zm-64.12 3.321C-35.063 72.222-52.103 11.33-39.163-56.764-58.77-43.587-75.083-26.215-86.876-5.956c-11.792 20.26-18.759 42.882-20.376 66.166 35.374 38.52 77.906 61.266 127.595 65.865v.252zm-34.728-52.9C4.015 5.65 46.612-43.735 117.493-68.517 96.05-78.726 72.512-83.98 48.683-83.87c-23.829.11-47.316 5.58-68.66 15.988-16.585 49.645-14.696 97.239 5.592 141.057v.252zm29.393-55.765C84.853-.804 149.876 12.234 205.737 58.737c-1.6-23.372-8.655-46.068-20.619-66.33s-28.516-37.546-48.372-50.514C83.552-46.607 42.967-20.735 15.008 17.41v.252z" fill="#3F4042"/><g clip-path="url(#clip0)" fill="#3F4042"><path d="M70.249 57.79a8.97 8.97 0 01-3.86.892 8.958 8.958 0 01-3.868-.857c3.962-1.384 6.371-4.146 7.406-7.935a10.517 10.517 0 01.322 7.9zm-2.26-10.869c2.881 2.805 4.099 6.182 3.334 10.246a8.717 8.717 0 002.685-2.844 8.509 8.509 0 001.147-3.706c-2.07-2.233-4.482-3.438-7.166-3.696zm.33 6.082c-4.08 1.073-7.678.272-10.76-2.29a8.416 8.416 0 001.17 3.702 8.625 8.625 0 002.72 2.817c3.071-.662 5.323-2.09 6.884-4.243l-.014.014zm-3.605.186c-3.115-3.03-4.073-6.44-3.345-10.253a8.723 8.723 0 00-2.682 2.845 8.516 8.516 0 00-1.146 3.705c1.989 2.157 4.38 3.431 7.173 3.689v.014zm-1.952-2.963c1.034-3.795 3.429-6.56 7.413-7.949a8.932 8.932 0 00-3.868-.86 8.93 8.93 0 00-3.86.896c-.932 2.78-.826 5.445.315 7.9v.014zm1.652-3.123c3.927-1.034 7.582-.304 10.722 2.3a8.414 8.414 0 00-1.159-3.714 8.625 8.625 0 00-2.72-2.829c-2.99.644-5.271 2.093-6.843 4.23v.013zM57.63 41.43l-7.209 3.22-29.867-13.327v6.44L50.42 51.09l3.535-1.581a11.976 11.976 0 013.674-8.078zm7.78-3.482a12.502 12.502 0 018.635 2.58l6.214-2.776v-6.44l-14.85 6.636zm-37.655 8.998a7.129 7.129 0 00-.176 5.548 7.339 7.339 0 003.874 4.054 7.58 7.58 0 005.668.198 7.371 7.371 0 004.16-3.772l-13.526-6.028zm2.103 60.54a2.808 2.808 0 01-1.711.511v.44h-.428v-.44a2.896 2.896 0 01-1.715-.515 1.734 1.734 0 01-.452-2.053c.106-.228.26-.432.452-.598a2.88 2.88 0 011.715-.519v-.425h.428v.425c.611-.012 1.21.17 1.707.519.193.166.348.37.454.599a1.73 1.73 0 010 1.457 1.77 1.77 0 01-.454.599h.004zm-3.528-.269c.407.279.892.427 1.389.422v-2.962a2.396 2.396 0 00-1.396.419 1.381 1.381 0 000 2.121h.007zm3.21 0a1.291 1.291 0 00.49-1.073 1.257 1.257 0 00-.494-1.073 2.35 2.35 0 00-1.39-.415v2.962c.496.013.983-.125 1.393-.397v-.004zm3.177.827a2.092 2.092 0 01-.82-.777 2.221 2.221 0 010-2.214c.196-.326.48-.594.82-.773a2.44 2.44 0 011.173-.283 2.42 2.42 0 011.163.28c.341.179.624.448.818.776a2.206 2.206 0 010 2.218 2.082 2.082 0 01-.818.776 2.41 2.41 0 01-1.163.28 2.44 2.44 0 01-1.174-.283zm2.105-.358c.274-.147.5-.366.65-.633a1.76 1.76 0 00.238-.902 1.757 1.757 0 00-.237-.905 1.657 1.657 0 00-.65-.63 2.02 2.02 0 00-1.869 0 1.657 1.657 0 00-.658.63 1.76 1.76 0 00-.241.905 1.727 1.727 0 00.899 1.535 2.02 2.02 0 001.868 0zm5.761-3.263H39.05v3.868h-.453v-3.868H37.07v-.386h3.512v.386zm2.008 3.621a2.112 2.112 0 01-.82-.777 2.221 2.221 0 010-2.214 2.11 2.11 0 01.82-.773 2.566 2.566 0 012.34 0c.339.181.62.449.814.777a2.205 2.205 0 010 2.218 2.103 2.103 0 01-.815.776 2.566 2.566 0 01-2.34 0v-.007zm2.105-.358c.274-.146.5-.366.65-.633.162-.274.244-.586.238-.902a1.739 1.739 0 00-.237-.905 1.657 1.657 0 00-.65-.63 1.88 1.88 0 00-.933-.228 1.915 1.915 0 00-.936.228 1.7 1.7 0 00-.658.63 1.762 1.762 0 00-.241.905 1.72 1.72 0 00.9 1.535c.286.155.608.234.935.229.325.008.646-.067.932-.218v-.011zm3.652.361a2.078 2.078 0 01-.815-.79 2.233 2.233 0 010-2.218c.193-.328.475-.597.815-.777a2.618 2.618 0 012.066-.121c.265.098.503.256.694.461l-.292.286a1.766 1.766 0 00-1.287-.504 1.906 1.906 0 00-.936.229 1.711 1.711 0 00-.903 1.535 1.706 1.706 0 00.903 1.531c.286.156.608.236.936.232a1.723 1.723 0 001.287-.511l.292.286a1.86 1.86 0 01-.698.465 2.44 2.44 0 01-.899.161 2.415 2.415 0 01-1.163-.265zm7.023-3.624h-1.528v3.868h-.453v-3.868h-1.53v-.386h3.51v.386zm4.694-.386l-1.967 3.577a1.499 1.499 0 01-.494.57 1.09 1.09 0 01-.617.185 1.46 1.46 0 01-.534-.114l.131-.358c.133.051.275.077.417.075a.795.795 0 00.702-.454l.124-.208-1.783-3.273h.489l1.517 2.884 1.554-2.884h.461zm5.271 3.864v1.345h-.43v-.955H61.11v.955h-.428v-1.345h.22c.285 0 .482-.237.596-.666.132-.598.2-1.209.205-1.821l.05-1.377h2.925v3.864h.658zm-3.377-.841c-.03.319-.176.617-.41.841h2.68v-3.478h-2.084l-.026 1.045a10.35 10.35 0 01-.16 1.592zm4.781-3.023h.454v3.528l2.781-3.528h.417v4.257h-.453v-3.52l-2.782 3.52h-.417v-4.257zm8.668 0v4.257h-.453v-1.291h-1.547l-.914 1.302h-.504l.987-1.381a1.326 1.326 0 01-.731-.497 1.464 1.464 0 01-.252-.873 1.374 1.374 0 01.102-.607c.08-.193.202-.365.358-.506.355-.276.8-.416 1.254-.393l1.7-.011zm-2.632 2.3c.258.205.586.306.917.283h1.262v-2.193h-1.218a1.414 1.414 0 00-.943.282 1.19 1.19 0 00-.019 1.628zM25.678 73.066a2.05 2.05 0 00.687 1.635 3.927 3.927 0 002.073.755v-4.808c-.965.103-1.663.357-2.102.737-.228.216-.404.48-.518.77-.114.29-.161.6-.14.91zm21.43-2.719a3.231 3.231 0 00-3.082 0 2.892 2.892 0 00-1.097 1.11 3.59 3.59 0 000 3.283c.255.46.634.843 1.097 1.106a3.208 3.208 0 003.082 0 2.844 2.844 0 001.097-1.106 3.561 3.561 0 000-3.284 2.891 2.891 0 00-1.097-1.11v.001zM58.514 85.58c0-.715-.45-1.073-1.35-1.073h-2.02v2.168h2.02c.9-.007 1.35-.372 1.35-1.095zm-14.111-.565a3.234 3.234 0 00-3.082 0 2.89 2.89 0 00-1.097 1.11 3.586 3.586 0 000 3.283c.255.46.634.843 1.097 1.105a3.207 3.207 0 003.082 0 2.842 2.842 0 001.096-1.105 3.562 3.562 0 000-3.284 2.89 2.89 0 00-1.096-1.11zM33.42 71.385a3.835 3.835 0 00-2.076-.737v4.836a3.727 3.727 0 002.094-.751 2.133 2.133 0 00.665-1.682c.02-.31-.03-.62-.15-.909a2.087 2.087 0 00-.533-.758zm24.226 17.387h-2.504v2.26h2.504c.922 0 1.382-.381 1.382-1.144 0-.764-.46-1.136-1.382-1.116zm15.855-18.425a3.232 3.232 0 00-3.082 0 2.894 2.894 0 00-1.096 1.11 3.564 3.564 0 000 3.283c.253.461.633.844 1.096 1.106a3.21 3.21 0 003.082 0A2.872 2.872 0 0074.6 74.74a3.592 3.592 0 000-3.284 2.892 2.892 0 00-1.097-1.11v.001z"/><path d="M77.61 44.753a11.962 11.962 0 01.345 9.309 12.133 12.133 0 01-2.541 4.041 12.397 12.397 0 01-3.925 2.78A12.623 12.623 0 0162 61.22a12.448 12.448 0 01-4.12-2.494 12.18 12.18 0 01-2.833-3.85l-4.619 2.052-4.658-2.08c-1.365 2.936-3.863 5.22-6.944 6.349a12.622 12.622 0 01-9.485-.327 12.398 12.398 0 01-3.927-2.775 12.132 12.132 0 01-2.545-4.037 11.955 11.955 0 01.333-9.306l-2.65-1.188v55.878h59.705V43.566l-2.648 1.187zM27.3 89.357c.25.466.63.85 1.097 1.109.498.27 1.06.406 1.63.395a3.395 3.395 0 001.48-.342c.46-.224.861-.549 1.172-.95l2.022 1.794a5.325 5.325 0 01-2.055 1.542 6.901 6.901 0 01-2.78.535 6.755 6.755 0 01-3.17-.718 5.512 5.512 0 01-2.194-2.041 5.864 5.864 0 01-.804-2.962c0-1.039.277-2.06.804-2.961a5.505 5.505 0 012.194-2.038 6.713 6.713 0 013.17-.735 6.912 6.912 0 012.78.538 5.33 5.33 0 012.055 1.542L32.68 85.86a3.334 3.334 0 00-1.172-.95 3.395 3.395 0 00-1.48-.341 3.344 3.344 0 00-1.63.39 2.798 2.798 0 00-1.097 1.113 3.666 3.666 0 000 3.294v-.008zm8.392-12.955c-1.002.847-2.45 1.325-4.344 1.436v1.212H28.44v-1.212c-1.895-.137-3.343-.615-4.345-1.436a4.686 4.686 0 01-1.108-1.552 4.608 4.608 0 010-3.711 4.687 4.687 0 011.108-1.553c.995-.832 2.446-1.318 4.352-1.456v-1.163h2.907V68.1c1.894.125 3.342.604 4.344 1.436A4.703 4.703 0 0137.1 72.01a4.644 4.644 0 01-.292 2.817 4.726 4.726 0 01-1.109 1.561l-.007.014zm12.612 14.261a5.64 5.64 0 01-2.23 2.049 7.298 7.298 0 01-6.407 0 5.7 5.7 0 01-2.251-2.075 5.553 5.553 0 010-5.838 5.702 5.702 0 012.251-2.075 7.268 7.268 0 016.407 0c.686.37 1.29.87 1.776 1.472a5.698 5.698 0 011.05 2.035 5.634 5.634 0 01-.596 4.432zm2.706-14.709a5.641 5.641 0 01-2.23 2.049 7.298 7.298 0 01-6.407 0 5.724 5.724 0 01-1.802-1.448 5.6 5.6 0 01-1.068-2.031 5.536 5.536 0 01.619-4.434 5.701 5.701 0 012.251-2.075 7.27 7.27 0 016.407 0c.686.37 1.29.87 1.775 1.473a5.7 5.7 0 011.05 2.034 5.636 5.636 0 01-.594 4.432zM61.09 92.39c-.775.562-1.873.843-3.291.843h-5.775V82.197h5.46c1.351 0 2.396.248 3.138.745.357.229.648.544.844.916.196.372.29.787.274 1.205.01.5-.127.992-.395 1.417a2.76 2.76 0 01-1.133.98 3.01 3.01 0 011.518.975c.36.472.544 1.05.523 1.64.015.449-.083.894-.286 1.297a2.73 2.73 0 01-.877 1.01v.007zm2.698-22.422H60.35v8.556h-3.133v-8.578h-3.452v-2.471h10.023v2.493zm10.046 23.258l-.881-2.153h-4.754l-.885 2.153H64.07l4.962-11.028h3.13l4.963 11.028h-3.291zm3.598-17.278a5.628 5.628 0 01-2.234 2.049 7.307 7.307 0 01-6.407 0 5.728 5.728 0 01-1.8-1.45 5.603 5.603 0 01-1.066-2.03 5.538 5.538 0 01.617-4.432 5.706 5.706 0 012.25-2.076 7.268 7.268 0 016.406 0c.686.369 1.29.87 1.776 1.472a5.703 5.703 0 011.052 2.034 5.636 5.636 0 01-.594 4.433z"/><path d="M68.91 89.15h2.96l-1.477-3.922-1.483 3.922z"/></g></g><defs><clipPath id="clip0"><path fill="#fff" transform="translate(20.555 31.312)" d="M0 0h59.705v77.934H0z"/></clipPath></defs></svg>