<svg width="1500" height="520" fill="none" xmlns="http://www.w3.org/2000/svg"><mask id="a" style="mask-type:alpha" maskUnits="userSpaceOnUse" x="0" y="0" width="1500" height="520"><path fill="#BCB" d="M0 0h1500v520H0z"/></mask><g mask="url(#a)"><path fill="#BCB" d="M0 0h1500v520H0z"/><path opacity=".05" d="M447.641 783.645c-80.826 39.286-169.716 59.927-259.893 60.348-90.177.422-179.262-19.386-260.466-57.915 266.827-93.589 429.044-280.275 498.69-536.368 76.131 168.783 83.881 359.734 21.669 533.935zM295.522 49.007C489.504 238.59 571.474 466.864 520.016 741.563c74.289-49.823 136.104-115.554 180.791-192.244 44.687-76.691 71.08-162.341 77.193-250.504C638.675 147.896 476.208 66.444 295.522 49.007zm22.17 411.079c-274.698 72.549-516.94 18.392-724.438-154.771 6.398 88.243 33.34 173.863 78.749 250.258 45.409 76.395 108.072 141.524 183.155 190.365 206.777-44.731 358.394-141.216 463.507-286.807l-.973.955zM74.979 472.655c-209.723-204.8-274.227-435.292-225.246-693.049-74.217 49.882-135.964 115.637-180.603 192.325-44.639 76.689-71.01 162.317-77.13 250.454C-274.1 368.191-113.107 454.295 74.98 471.7v.955zM-56.474 272.414C13.173 15.86 174.417-171.073 442.718-264.878c-81.167-38.652-170.265-58.532-260.464-58.116-90.198.417-179.102 21.119-259.895 60.519-62.779 187.918-55.629 368.073 21.167 533.934v.955zM54.785 61.33c264.381-69.9 510.512-20.548 721.961 155.479-6.058-88.467-32.764-174.377-78.051-251.075-45.286-76.697-107.938-142.124-183.101-191.211-201.351 43.53-354.975 141.463-460.81 285.852v.955z" fill="#3F4042"/></g><path d="M260.111 213.224a33.902 33.902 0 01-14.61 3.38 33.913 33.913 0 01-14.642-3.244c15-5.241 24.119-15.695 28.034-30.036a39.808 39.808 0 011.218 29.9zm-8.551-41.139c10.905 10.616 15.513 23.399 12.62 38.783a33.003 33.003 0 0010.163-10.766 32.2 32.2 0 004.34-14.028c-7.832-8.452-16.966-13.015-27.123-13.991v.002zm1.246 23.02c-15.442 4.063-29.06 1.03-40.725-8.667a31.87 31.87 0 004.427 14.014 32.67 32.67 0 0010.297 10.661c11.624-2.505 20.147-7.909 26.056-16.062l-.055.054zm-13.644.704c-11.79-11.469-15.416-24.377-12.662-38.811a33.014 33.014 0 00-10.153 10.77 32.23 32.23 0 00-4.336 14.026c7.527 8.165 16.578 12.987 27.151 13.961v.055-.001zm-7.39-11.214c3.916-14.367 12.98-24.835 28.063-30.088a33.798 33.798 0 00-14.642-3.254 33.793 33.793 0 00-14.611 3.389c-3.529 10.523-3.127 20.612 1.19 29.9v.055-.002zm6.255-11.82c14.862-3.915 28.699-1.151 40.585 8.706a31.841 31.841 0 00-4.387-14.06 32.654 32.654 0 00-10.293-10.708c-11.32 2.438-19.956 7.922-25.905 16.008v.054zm-25.683-21.477l-27.288 12.188L72 113.043v24.376l113.056 50.444 13.379-5.987c.526-11.545 5.495-22.469 13.909-30.578zm29.446-13.178c1.207-.09 2.416-.14 3.627-.149 10.552-.005 20.795 3.489 29.058 9.913L298 137.376V113l-56.21 25.12zM99.26 172.179a26.988 26.988 0 00-.667 21c2.623 6.811 7.895 12.328 14.664 15.344a28.694 28.694 0 0021.455.752c6.972-2.535 12.634-7.669 15.748-14.279l-51.2-22.818v.001zm7.958 229.158a10.643 10.643 0 01-6.477 1.936v1.667h-1.618v-1.667a10.97 10.97 0 01-6.49-1.949 6.658 6.658 0 01-2.164-3.61 6.552 6.552 0 01.453-4.16c.4-.865.982-1.638 1.71-2.265a10.867 10.867 0 016.49-1.964v-1.611h1.619v1.611a10.86 10.86 0 016.463 1.964 6.683 6.683 0 011.718 2.266c.401.866.609 1.807.609 2.758 0 .951-.208 1.892-.609 2.758a6.683 6.683 0 01-1.718 2.266h.014zm-13.354-1.016a9.15 9.15 0 005.257 1.598v-11.212a9.06 9.06 0 00-5.285 1.584 5.324 5.324 0 00-1.38 1.809 5.227 5.227 0 000 4.412 5.33 5.33 0 001.38 1.809h.028zm12.15 0a4.928 4.928 0 001.425-1.813 4.818 4.818 0 00.429-2.249 4.75 4.75 0 00-.427-2.255 4.865 4.865 0 00-1.441-1.808 8.914 8.914 0 00-5.259-1.57v11.212a9.107 9.107 0 005.271-1.503v-.014h.002zm12.026 3.128a7.898 7.898 0 01-3.101-2.938 8.422 8.422 0 01-1.12-4.191c0-1.468.386-2.911 1.12-4.191a7.882 7.882 0 013.101-2.926 9.215 9.215 0 014.442-1.07 9.115 9.115 0 014.4 1.058 7.805 7.805 0 013.099 2.938 8.346 8.346 0 011.135 4.198 8.349 8.349 0 01-1.135 4.198 7.907 7.907 0 01-3.099 2.938 9.108 9.108 0 01-4.402 1.057 9.194 9.194 0 01-4.442-1.071h.002zm7.97-1.354a6.177 6.177 0 002.462-2.396 6.656 6.656 0 00.899-3.413 6.652 6.652 0 00-.899-3.426 6.259 6.259 0 00-2.462-2.384 7.647 7.647 0 00-3.536-.864 7.64 7.64 0 00-3.535.864 6.241 6.241 0 00-2.491 2.384 6.65 6.65 0 00-.913 3.426 6.507 6.507 0 00.913 3.413 6.186 6.186 0 002.491 2.396 7.632 7.632 0 007.071 0zm21.808-12.35h-5.8v14.639h-1.715v-14.639h-5.782v-1.462h13.297v1.462zm7.597 13.706a8.015 8.015 0 01-3.101-2.94 8.422 8.422 0 01-1.12-4.191c0-1.468.386-2.911 1.12-4.191a8 8 0 013.101-2.926 9.73 9.73 0 014.429-1.064 9.73 9.73 0 014.428 1.064 7.88 7.88 0 013.085 2.939 8.352 8.352 0 011.135 4.199 8.349 8.349 0 01-1.135 4.198 7.974 7.974 0 01-3.085 2.938 9.741 9.741 0 01-4.428 1.063 9.742 9.742 0 01-4.429-1.063v-.026zm7.97-1.354a6.198 6.198 0 002.463-2.398c.61-1.037.92-2.217.899-3.413a6.58 6.58 0 00-.899-3.426 6.262 6.262 0 00-2.463-2.384 7.151 7.151 0 00-3.529-.866 7.252 7.252 0 00-3.542.866 6.423 6.423 0 00-2.491 2.384 6.67 6.67 0 00-.913 3.426 6.516 6.516 0 00.913 3.413 6.37 6.37 0 002.491 2.398 7.27 7.27 0 003.544.866 7.154 7.154 0 003.527-.827v-.039zm13.824 1.366a7.863 7.863 0 01-3.085-2.992 8.446 8.446 0 01-1.119-4.198 8.45 8.45 0 011.119-4.198 7.778 7.778 0 013.085-2.939 9.9 9.9 0 017.818-.461 6.873 6.873 0 012.63 1.747l-1.107 1.084a6.569 6.569 0 00-2.232-1.452 6.684 6.684 0 00-2.64-.458 7.253 7.253 0 00-3.543.866 6.514 6.514 0 00-2.504 2.398 6.517 6.517 0 00-.913 3.412 6.437 6.437 0 00.913 3.399 6.417 6.417 0 002.504 2.398 7.271 7.271 0 003.543.88 6.57 6.57 0 002.647-.46 6.436 6.436 0 002.225-1.478l1.107 1.084a7.053 7.053 0 01-2.644 1.761 9.271 9.271 0 01-3.402.609 9.157 9.157 0 01-4.402-1.002zm26.582-13.718h-5.782v14.639h-1.717v-14.639h-5.784v-1.462h13.283v1.462zm17.767-1.462l-7.444 13.541a5.652 5.652 0 01-1.869 2.155 4.125 4.125 0 01-2.337.704 5.597 5.597 0 01-2.02-.433l.497-1.355c.502.194 1.038.29 1.578.283a3.07 3.07 0 001.577-.49 2.983 2.983 0 001.079-1.228l.471-.787-6.752-12.39h1.853l5.743 10.915 5.881-10.915h1.745-.002zm19.956 14.624V408h-1.633v-3.616h-14.365V408h-1.618v-5.093h.83c1.079 0 1.826-.893 2.256-2.518.501-2.265.76-4.575.776-6.892l.192-5.214h11.071v14.624h2.491zm-12.786-3.181a5.064 5.064 0 01-1.551 3.181h10.143v-13.162h-7.887l-.097 3.955a39.194 39.194 0 01-.608 6.026zm18.099-11.443h1.717v13.353l10.529-13.353h1.578v16.115h-1.715v-13.325l-10.531 13.325h-1.578v-16.115zm32.81 0v16.115h-1.716v-4.889h-5.852l-3.461 4.929h-1.909l3.736-5.228a5.016 5.016 0 01-2.768-1.882 5.54 5.54 0 01-.954-3.303 5.2 5.2 0 01.388-2.298 5.283 5.283 0 011.356-1.913 7.13 7.13 0 014.745-1.491l6.435-.04zm-9.964 8.707a5.037 5.037 0 003.475 1.07h4.773v-8.302h-4.608a5.363 5.363 0 00-3.569 1.07 4.513 4.513 0 00-1.257 3.068 4.514 4.514 0 001.186 3.094zM91.4 271.049a7.623 7.623 0 00.586 3.382 7.766 7.766 0 002.016 2.806 14.858 14.858 0 007.844 2.859v-18.2c-3.652.391-6.293 1.354-7.955 2.789a8.118 8.118 0 00-1.96 2.914 7.968 7.968 0 00-.531 3.45zm81.117-10.29a12.23 12.23 0 00-5.833-1.477c-2.041 0-4.048.508-5.832 1.477a10.933 10.933 0 00-4.152 4.197 13.593 13.593 0 00-1.508 6.216c0 2.158.517 4.287 1.508 6.215a10.866 10.866 0 004.152 4.184 12.15 12.15 0 005.833 1.489c2.043 0 4.051-.513 5.833-1.489a10.765 10.765 0 004.152-4.184c1-1.925 1.521-4.055 1.521-6.215s-.521-4.29-1.521-6.216a10.945 10.945 0 00-4.152-4.199l-.001.002zm43.175 57.661c0-2.708-1.701-4.063-5.105-4.063h-7.653v8.207h7.651c3.406-.028 5.107-1.41 5.107-4.144zm-53.414-2.141a12.239 12.239 0 00-5.832-1.475 12.24 12.24 0 00-5.833 1.475 10.943 10.943 0 00-4.151 4.199 13.582 13.582 0 00-1.509 6.216c0 2.159.517 4.287 1.509 6.216.963 1.742 2.4 3.19 4.151 4.183a12.147 12.147 0 005.833 1.489c2.042 0 4.05-.513 5.832-1.489a10.746 10.746 0 004.151-4.183 13.473 13.473 0 001.522-6.216c0-2.16-.521-4.29-1.522-6.216a10.936 10.936 0 00-4.151-4.199zm-41.569-51.594a14.514 14.514 0 00-7.859-2.789v18.305a14.105 14.105 0 007.929-2.843 8.208 8.208 0 001.965-2.915 8.082 8.082 0 00.553-3.451 7.766 7.766 0 00-.566-3.44 7.93 7.93 0 00-2.022-2.869v.002zm91.704 65.815h-9.479v8.558h9.479c3.487 0 5.23-1.446 5.23-4.334 0-2.889-1.743-4.297-5.23-4.224zm60.015-69.741a12.227 12.227 0 00-5.833-1.477 12.23 12.23 0 00-5.833 1.477 10.951 10.951 0 00-4.151 4.197 13.485 13.485 0 00-1.521 6.216c0 2.16.521 4.289 1.521 6.215a10.776 10.776 0 004.151 4.184 12.15 12.15 0 005.833 1.488c2.043 0 4.051-.512 5.833-1.488a10.873 10.873 0 004.152-4.184 13.591 13.591 0 001.507-6.215c0-2.159-.516-4.287-1.507-6.216a10.952 10.952 0 00-4.152-4.199v.002z" fill="#3F4042"/><path d="M287.977 163.878a45.252 45.252 0 011.307 35.237 45.926 45.926 0 01-9.621 15.298 46.935 46.935 0 01-14.857 10.521 47.696 47.696 0 01-17.828 4.144 47.77 47.77 0 01-18.088-2.865 47.098 47.098 0 01-15.593-9.437 46.105 46.105 0 01-10.725-14.574l-17.482 7.768-17.634-7.877c-5.165 11.113-14.619 19.758-26.281 24.033a47.775 47.775 0 01-35.906-1.238 46.92 46.92 0 01-14.863-10.502 45.924 45.924 0 01-9.635-15.282 45.251 45.251 0 011.263-35.226L72 159.384v211.509h226V159.385l-10.023 4.493zM97.539 332.718a10.447 10.447 0 004.153 4.195 12.443 12.443 0 006.171 1.495 12.827 12.827 0 005.602-1.292 12.568 12.568 0 004.435-3.597l7.653 6.79a20.149 20.149 0 01-7.776 5.839 26.124 26.124 0 01-10.522 2.024c-4.167.083-8.29-.85-12-2.716a20.865 20.865 0 01-8.305-7.728 22.199 22.199 0 01-3.045-11.21 22.2 22.2 0 013.045-11.211 20.848 20.848 0 018.305-7.712 25.415 25.415 0 0112-2.783c3.614-.054 7.198.64 10.52 2.036a20.17 20.17 0 017.78 5.839l-7.655 6.79a12.593 12.593 0 00-4.434-3.597 12.854 12.854 0 00-5.601-1.292 12.65 12.65 0 00-6.173 1.481 10.583 10.583 0 00-4.153 4.209 13.88 13.88 0 00-1.481 6.234c0 2.162.506 4.294 1.48 6.234v-.028zm31.767-49.038c-3.791 3.206-9.275 5.015-16.444 5.432v4.59h-11.005v-4.59c-7.17-.515-12.652-2.326-16.445-5.432a17.734 17.734 0 01-4.193-5.876 17.445 17.445 0 01-1.478-7.024c0-2.416.503-4.806 1.478-7.025a17.744 17.744 0 014.193-5.876c3.767-3.152 9.258-4.989 16.474-5.513v-4.401h11.003v4.29c7.172.473 12.652 2.284 16.445 5.432a17.806 17.806 0 015.302 9.368c.75 3.581.365 7.301-1.105 10.66a17.889 17.889 0 01-4.197 5.912l-.028.053zm47.741 53.98a21.325 21.325 0 01-8.443 7.754 27.623 27.623 0 01-12.126 2.799c-4.208 0-8.359-.958-12.125-2.799a21.568 21.568 0 01-8.522-7.853 21.013 21.013 0 01-3.143-11.048c0-3.896 1.087-7.717 3.143-11.049a21.587 21.587 0 018.522-7.855 27.511 27.511 0 0112.125-2.812c4.21 0 8.362.963 12.126 2.812a22.025 22.025 0 016.723 5.572 21.56 21.56 0 013.978 7.702 21.32 21.32 0 01.605 8.613 21.425 21.425 0 01-2.863 8.164zm10.244-55.677a21.36 21.36 0 01-8.443 7.754 27.626 27.626 0 01-12.126 2.799c-4.208 0-8.359-.958-12.126-2.799a21.66 21.66 0 01-6.82-5.481 21.2 21.2 0 01-4.043-7.687 20.946 20.946 0 01-.6-8.629 21.067 21.067 0 012.941-8.154 21.577 21.577 0 018.522-7.854 27.511 27.511 0 0112.126-2.811c4.21 0 8.361.962 12.126 2.811a22.042 22.042 0 016.719 5.574 21.577 21.577 0 013.977 7.701c.787 2.802.993 5.73.606 8.612a21.452 21.452 0 01-2.859 8.164zm38.148 62.21c-2.934 2.128-7.088 3.192-12.458 3.192h-21.857v-41.772h20.667c5.114 0 9.071.941 11.876 2.823a9.237 9.237 0 013.197 3.466 9.027 9.027 0 011.039 4.561 9.698 9.698 0 01-1.496 5.363 10.443 10.443 0 01-4.29 3.707 11.392 11.392 0 015.745 3.694 9.643 9.643 0 011.979 6.207 10.119 10.119 0 01-1.08 4.909 10.329 10.329 0 01-3.322 3.822v.028zm10.215-84.874h-13.01v32.388h-11.862v-32.471h-13.066v-9.354h37.94v9.439l-.002-.002zm38.026 88.038l-3.337-8.148h-17.995l-3.35 8.148h-12.277l18.784-41.744h11.848l18.783 41.744H273.68zm13.62-65.402a21.305 21.305 0 01-8.457 7.756 27.667 27.667 0 01-12.126 2.795c-4.208 0-8.358-.957-12.126-2.795a21.683 21.683 0 01-6.812-5.486 21.216 21.216 0 01-4.037-7.685 20.965 20.965 0 01-.599-8.626 21.088 21.088 0 012.936-8.152 21.602 21.602 0 018.512-7.858 27.512 27.512 0 0112.126-2.812c4.21 0 8.362.963 12.126 2.812a22.048 22.048 0 016.722 5.572 21.59 21.59 0 013.983 7.699c.788 2.802.996 5.731.609 8.614a21.447 21.447 0 01-2.857 8.166z" fill="#3F4042"/><path d="M255.041 331.931h11.207l-5.596-14.843-5.611 14.843z" fill="#3F4042"/></svg>