<svg width="31" height="40" fill="none" xmlns="http://www.w3.org/2000/svg"><g clip-path="url(#clip0)" fill="#3F4042"><path d="M25.756 13.59a4.679 4.679 0 01-4.005.018c2.053-.71 3.302-2.128 3.838-4.073a5.35 5.35 0 01.167 4.055zm-1.171-5.58c1.493 1.44 2.124 3.173 1.728 5.26a4.492 4.492 0 001.391-1.46 4.337 4.337 0 00.595-1.903c-1.073-1.146-2.323-1.764-3.714-1.897zm.17 3.122c-2.114.55-3.978.14-5.575-1.175.049.67.256 1.32.606 1.9.35.58.832 1.074 1.41 1.445 1.591-.34 2.758-1.072 3.567-2.177l-.007.007zm-1.868.095c-1.614-1.555-2.11-3.305-1.733-5.262a4.497 4.497 0 00-1.39 1.46 4.342 4.342 0 00-.594 1.902c1.03 1.107 2.27 1.76 3.717 1.893v.008zm-1.011-1.52c.536-1.948 1.777-3.368 3.842-4.08a4.667 4.667 0 00-4.005.018c-.483 1.427-.428 2.795.163 4.055v.007zm.856-1.603c2.035-.53 3.93-.156 5.557 1.18a4.288 4.288 0 00-.6-1.906 4.446 4.446 0 00-1.41-1.452c-1.55.33-2.732 1.074-3.547 2.17v.008zm-3.516-2.912l-3.737 1.653L0 .006V3.31l15.48 6.84 1.831-.812a6.121 6.121 0 011.905-4.146zm4.031-1.787a6.52 6.52 0 014.475 1.324l3.221-1.425V0l-7.696 3.406zM3.732 8.024c-.417.9-.45 1.924-.091 2.848a3.783 3.783 0 002.008 2.08 3.964 3.964 0 002.937.102 3.807 3.807 0 002.157-1.936l-7.01-3.094zm1.09 31.073a1.47 1.47 0 01-.887.262v.226h-.221v-.226a1.513 1.513 0 01-.89-.264.9.9 0 01-.295-.49.88.88 0 01.062-.564.913.913 0 01.234-.307 1.5 1.5 0 01.888-.266v-.219h.222v.219c.317-.007.628.087.885.266a.882.882 0 010 1.363h.002zm-1.828-.138c.21.143.462.219.72.216v-1.52a1.249 1.249 0 00-.724.215.724.724 0 00-.256.544.703.703 0 00.256.545h.004zm1.663 0a.647.647 0 00.254-.55.638.638 0 00-.256-.552 1.228 1.228 0 00-.72-.213v1.52c.257.007.51-.064.722-.203v-.002zm1.647.424a1.079 1.079 0 01-.425-.398 1.133 1.133 0 010-1.137 1.07 1.07 0 01.425-.397c.186-.098.396-.148.608-.145.21-.003.418.047.602.144.177.092.324.23.425.398a1.124 1.124 0 010 1.138 1.077 1.077 0 01-.425.399 1.257 1.257 0 01-.602.143 1.27 1.27 0 01-.609-.145zm1.09-.184a.842.842 0 00.338-.325.896.896 0 00.123-.462.896.896 0 00-.123-.465.853.853 0 00-.337-.323 1.055 1.055 0 00-.968 0 .851.851 0 00-.341.323.896.896 0 00-.125.465.876.876 0 00.466.787 1.052 1.052 0 00.968 0zm2.987-1.674h-.794v1.985h-.235v-1.985H8.56v-.198h1.82v.198zm1.04 1.858a1.092 1.092 0 01-.425-.398 1.133 1.133 0 010-1.137 1.09 1.09 0 01.425-.397 1.344 1.344 0 011.213 0c.176.093.322.23.422.399a1.123 1.123 0 010 1.138 1.08 1.08 0 01-.422.399 1.343 1.343 0 01-1.213 0v-.004zm1.091-.184a.842.842 0 00.337-.325c.084-.14.127-.3.123-.462a.886.886 0 00-.123-.465.853.853 0 00-.337-.323.987.987 0 00-.483-.118 1 1 0 00-.485.118.874.874 0 00-.466.788.875.875 0 00.466.788c.149.079.316.12.485.117a.988.988 0 00.483-.112V39.2zm1.893.186a1.073 1.073 0 01-.422-.406 1.137 1.137 0 010-1.138c.1-.169.246-.307.422-.399a1.36 1.36 0 011.07-.062.92.92 0 01.36.237l-.151.147a.903.903 0 00-.667-.26 1 1 0 00-.485.118.887.887 0 00-.468.788.873.873 0 00.468.786c.148.08.315.12.485.12a.907.907 0 00.667-.264l.152.147a.969.969 0 01-.363.24 1.28 1.28 0 01-.465.082 1.263 1.263 0 01-.603-.136zm3.64-1.86h-.792v1.985h-.235v-1.985h-.792v-.198h1.819v.198zm2.432-.198l-1.02 1.836a.77.77 0 01-.255.292.568.568 0 01-.32.095.769.769 0 01-.277-.058l.069-.184c.068.026.142.04.216.038a.424.424 0 00.215-.066.406.406 0 00.148-.167l.065-.106-.925-1.68h.254l.786 1.48.805-1.48h.24zm2.732 1.983V40h-.223v-.49h-1.967V40h-.221v-.69h.113c.148 0 .25-.122.31-.342a4.43 4.43 0 00.105-.935l.027-.706h1.515v1.983h.341zm-1.75-.432a.684.684 0 01-.213.431h1.39v-1.784h-1.08l-.014.536a5.261 5.261 0 01-.083.817zm2.478-1.551h.235v1.81l1.442-1.81h.216v2.185h-.235v-1.807l-1.442 1.807h-.216v-2.185zm4.492 0v2.185h-.235v-.663h-.801l-.474.668h-.261l.511-.709a.688.688 0 01-.379-.255.745.745 0 01-.13-.448.698.698 0 01.238-.571.984.984 0 01.65-.202l.881-.005zm-1.364 1.18a.694.694 0 00.476.145h.653v-1.125h-.63a.739.739 0 00-.49.145.61.61 0 00-.01.835zM2.656 21.43a1.032 1.032 0 00.356.839c.312.228.685.363 1.075.388V20.19c-.5.053-.862.184-1.09.378-.118.112-.21.247-.268.396a1.07 1.07 0 00-.073.467zm11.106-1.395a1.687 1.687 0 00-1.597 0 1.49 1.49 0 00-.568.57 1.828 1.828 0 000 1.685c.132.236.329.432.568.567a1.676 1.676 0 001.598 0c.24-.134.437-.33.568-.567a1.813 1.813 0 000-1.686 1.49 1.49 0 00-.568-.57v.001zm5.912 7.819c0-.368-.233-.551-.699-.551h-1.048v1.112h1.048c.466-.003.699-.19.699-.561zm-7.313-.29a1.69 1.69 0 00-1.597 0 1.49 1.49 0 00-.569.569 1.827 1.827 0 000 1.685c.132.236.329.433.569.567a1.675 1.675 0 001.597 0c.24-.134.437-.33.568-.567a1.814 1.814 0 000-1.685 1.49 1.49 0 00-.568-.57zm-5.692-6.997a2 2 0 00-1.076-.378v2.482a1.942 1.942 0 001.086-.385 1.11 1.11 0 00.269-.396c.06-.148.085-.308.075-.467a1.05 1.05 0 00-.077-.467 1.071 1.071 0 00-.277-.389zm12.556 8.924h-1.298v1.16h1.298c.477 0 .716-.195.716-.587 0-.392-.239-.582-.716-.573zm8.217-9.456a1.687 1.687 0 00-1.597 0c-.24.136-.436.333-.569.57a1.815 1.815 0 000 1.685c.132.236.329.433.569.567a1.677 1.677 0 001.597 0c.24-.135.437-.331.569-.567a1.829 1.829 0 000-1.686 1.49 1.49 0 00-.569-.57v.001z"/><path d="M29.571 6.899a6.085 6.085 0 01.179 4.778 6.22 6.22 0 01-1.317 2.074 6.428 6.428 0 01-2.034 1.427 6.586 6.586 0 01-4.918.173 6.465 6.465 0 01-2.135-1.28 6.257 6.257 0 01-1.468-1.976l-2.394 1.053-2.414-1.068a6.357 6.357 0 01-3.599 3.26 6.6 6.6 0 01-4.916-.169 6.426 6.426 0 01-2.035-1.424 6.219 6.219 0 01-1.319-2.072A6.081 6.081 0 011.374 6.9L0 6.289v28.68h30.943V6.288l-1.372.61zM3.497 29.792c.13.239.326.436.568.57.259.138.55.208.845.202.266 0 .529-.06.767-.175.239-.115.447-.282.608-.488l1.047.92a2.757 2.757 0 01-1.064.792 3.607 3.607 0 01-1.441.275 3.53 3.53 0 01-1.643-.369 2.846 2.846 0 01-1.137-1.047 2.988 2.988 0 010-3.04 2.843 2.843 0 011.137-1.046 3.507 3.507 0 011.643-.378 3.6 3.6 0 011.44.277 2.76 2.76 0 011.066.791l-1.048.92a1.72 1.72 0 00-.608-.487 1.773 1.773 0 00-.766-.175 1.748 1.748 0 00-.846.2 1.443 1.443 0 00-.568.571 1.868 1.868 0 000 1.691v-.004zm4.35-6.649c-.52.435-1.27.68-2.252.737v.622H4.088v-.622c-.982-.07-1.732-.316-2.252-.737a2.406 2.406 0 01-.574-.797 2.346 2.346 0 010-1.905c.134-.3.33-.572.574-.796.516-.428 1.268-.677 2.256-.748V18.3h1.506v.582c.982.064 1.733.31 2.252.737.37.341.623.784.726 1.27.103.485.05.99-.151 1.445-.134.303-.33.575-.575.802l-.004.007zm6.536 7.32a2.91 2.91 0 01-1.156 1.05 3.813 3.813 0 01-3.32 0A2.944 2.944 0 018.74 30.45a2.83 2.83 0 010-2.996c.281-.452.685-.82 1.166-1.065a3.796 3.796 0 013.32 0c.357.19.67.446.921.755.252.31.437.665.545 1.044a2.864 2.864 0 01-.31 2.275zm1.402-7.55a2.91 2.91 0 01-1.156 1.051 3.813 3.813 0 01-3.32 0 2.961 2.961 0 01-.934-.743 2.864 2.864 0 01-.553-1.042 2.814 2.814 0 01.32-2.276c.282-.452.685-.82 1.167-1.065a3.797 3.797 0 013.32 0c.356.19.669.447.92.756.252.31.437.664.545 1.044a2.865 2.865 0 01-.309 2.275zm5.224 8.435c-.402.289-.971.433-1.706.433H16.31v-5.664h2.83c.7 0 1.242.128 1.626.383.185.117.336.279.438.47.101.19.15.404.142.618a1.3 1.3 0 01-.205.727 1.427 1.427 0 01-.587.503c.309.084.584.26.786.5.187.243.282.54.271.842.008.23-.043.46-.148.666a1.406 1.406 0 01-.454.518v.004zm1.398-11.508h-1.781v4.392h-1.624v-4.403h-1.79V18.56h5.195v1.28zm5.206 11.937l-.456-1.105h-2.464l-.459 1.105h-1.68l2.571-5.66h1.622l2.572 5.66h-1.706zm1.865-8.868c-.28.447-.68.81-1.158 1.052a3.817 3.817 0 01-3.32 0 2.964 2.964 0 01-.933-.744 2.865 2.865 0 01-.552-1.042 2.816 2.816 0 01.32-2.275c.28-.452.684-.82 1.165-1.066a3.796 3.796 0 013.32 0c.356.19.67.447.92.756.253.309.438.664.546 1.044a2.866 2.866 0 01-.308 2.275z"/><path d="M25.063 29.685h1.534l-.766-2.012-.768 2.012z"/></g><defs><clipPath id="clip0"><path fill="#fff" d="M0 0h30.943v40H0z"/></clipPath></defs></svg>