<svg width="11" height="6" viewBox="0 0 11 6" fill="none" xmlns="http://www.w3.org/2000/svg">
<mask id="mask0" mask-type="alpha" maskUnits="userSpaceOnUse" x="0" y="0" width="11" height="6">
<rect width="10.14" height="5.67" fill="#C4C4C4"/>
</mask>
<g mask="url(#mask0)">
<path d="M25.3825 5.67247H20.3104L23.2465 0H28.3186L25.3825 5.67247ZM8.00819 0H2.93609L0 5.67247H5.0721L8.00819 0ZM18.1524 0H13.0803L10.1442 5.67247H15.2163L18.1524 0ZM89.169 0H84.1043L81.1682 5.67247H86.3064L89.169 0ZM99.3132 0H94.2411L91.3051 5.67247H96.3771L99.3132 0ZM79.0248 0H73.9748L71.0387 5.67247H76.1108L79.0248 0ZM58.7365 0H53.6644L50.7283 5.67247H55.8004L58.7365 0ZM48.5923 0H43.5202L40.5841 5.67247H45.6562L48.5923 0ZM38.4481 0H33.3687L30.4326 5.67247H35.5047L38.4481 0ZM68.8807 0H63.8086L60.8725 5.67247H65.9446L68.8807 0ZM129.753 0H124.681L121.745 5.67247H126.817L129.753 0ZM109.457 0H104.385L101.449 5.67247H106.521L109.457 0ZM119.609 0H114.537L111.601 5.67247H116.673L119.609 0ZM139.897 0H134.825L131.889 5.67247H136.961L139.897 0Z" fill="white"/>
</g>
</svg>
