<svg width="16" height="16" viewBox="0 0 16 16" fill="none" xmlns="http://www.w3.org/2000/svg">
<path d="M8.30229 1L16 6.672L8.32715 12.4688C8.31673 12.3408 8.3055 12.2646 8.3055 12.1892C8.29989 11.4551 8.29668 10.7202 8.29107 9.98606C8.29107 9.71948 8.27583 9.7049 8.00641 9.69436C6.09321 9.62387 4.42057 10.2526 2.96602 11.4883C1.64618 12.6114 0.815473 14.0505 0.334367 15.7099C0.306302 15.8063 0.279039 15.9036 0.254182 16L0.191638 15.9935C0.161168 15.8388 0.122679 15.6848 0.10103 15.5284C-0.0441589 14.5137 -0.0327983 13.4824 0.134707 12.4712C0.391778 10.9268 0.991287 9.46111 1.88834 8.18399C2.90213 6.72431 4.23647 5.52152 5.78691 4.66978C6.5147 4.27603 7.27975 3.95707 8.07056 3.7177C8.22051 3.6707 8.25098 3.59372 8.25017 3.45678C8.24456 2.71537 8.24376 1.97477 8.24135 1.23336V1.03646L8.30229 1Z" fill="white"/>
</svg>
