<svg width="14" height="14" viewBox="0 0 14 14" fill="none" xmlns="http://www.w3.org/2000/svg">
<path d="M8.64915 8.40503H5.35867V14H1.90998C1.54093 14 1.35609 13.8071 1.35578 13.4134C1.35578 11.3455 1.35578 9.27753 1.35578 7.20961V7.02565C1.32597 7.04071 1.29712 7.05784 1.2694 7.07693C0.904998 7.37471 0.447092 7.33699 0.176497 6.9833C-0.10029 6.62199 -0.0467285 6.12304 0.303435 5.80673L3.31558 3.08138L6.44569 0.25048C6.81196 -0.0803868 7.18162 -0.084688 7.54603 0.244856C9.58942 2.09308 11.6328 3.94164 13.6762 5.79052C14.0431 6.12139 14.105 6.60644 13.827 6.97635C13.549 7.34626 13.0954 7.37802 12.7124 7.06271C12.7 7.05278 12.687 7.04385 12.6421 7.01109V7.21524C12.6421 9.27742 12.6421 11.3398 12.6421 13.4025C12.6421 13.5871 12.6158 13.7634 12.4697 13.8749C12.3864 13.9385 12.2746 13.9937 12.1752 13.9944C11.0195 14.0023 9.86373 13.9997 8.70767 13.999C8.68727 13.996 8.66717 13.991 8.6476 13.9841L8.64915 8.40503Z" fill="black"/>
</svg>
