<svg width="301" height="2590" viewBox="0 0 301 2590" fill="none" xmlns="http://www.w3.org/2000/svg">
<mask id="mask0" mask-type="alpha" maskUnits="userSpaceOnUse" x="0" y="0" width="301" height="2590">
<path d="M301 0H0V2590H301V0Z" fill="#C4C4C4"/>
</mask>
<g mask="url(#mask0)">
<path d="M78.0111 -94.1386L44.5195 -108L-2709.99 6547.37L-2676.5 6561.23L78.0111 -94.1386Z" fill="black"/>
<path d="M142.195 -67.5741L108.703 -81.4355L-2645.81 6573.94L-2612.32 6587.8L142.195 -67.5741Z" fill="black"/>
<path d="M206.378 -41.0097L172.887 -54.8711L-2581.63 6600.5L-2548.14 6614.36L206.378 -41.0097Z" fill="black"/>
<path d="M270.562 -14.4452L237.07 -28.3066L-2517.44 6627.07L-2483.95 6640.93L270.562 -14.4452Z" fill="black"/>
<path d="M334.747 12.1192L301.256 -1.74219L-2453.26 6653.63L-2419.77 6667.49L334.747 12.1192Z" fill="black"/>
<path d="M398.931 38.6837L365.439 24.8223L-2389.07 6680.2L-2355.58 6694.06L398.931 38.6837Z" fill="black"/>
<path d="M463.115 65.2481L429.623 51.3867L-2324.89 6706.76L-2291.4 6720.62L463.115 65.2481Z" fill="black"/>
<path d="M527.3 91.8126L493.809 77.9512L-2260.71 6733.32L-2227.21 6747.19L527.3 91.8126Z" fill="black"/>
<path d="M591.484 118.377L557.992 104.516L-2196.52 6759.89L-2163.03 6773.75L591.484 118.377Z" fill="black"/>
<path d="M655.667 144.942L622.176 131.08L-2132.34 6786.45L-2098.85 6800.31L655.667 144.942Z" fill="black"/>
<path d="M719.853 171.506L686.361 157.645L-2068.15 6813.02L-2034.66 6826.88L719.853 171.506Z" fill="black"/>
<path d="M784.034 198.07L750.543 184.209L-2003.97 6839.58L-1970.48 6853.44L784.034 198.07Z" fill="black"/>
<path d="M848.222 224.635L814.73 210.773L-1939.78 6866.15L-1906.29 6880.01L848.222 224.635Z" fill="black"/>
<path d="M912.404 251.199L878.912 237.338L-1875.6 6892.71L-1842.11 6906.57L912.404 251.199Z" fill="black"/>
<path d="M976.587 277.764L943.096 263.902L-1811.42 6919.28L-1777.93 6933.14L976.587 277.764Z" fill="black"/>
<path d="M1040.77 304.328L1007.28 290.467L-1747.23 6945.84L-1713.74 6959.7L1040.77 304.328Z" fill="black"/>
<path d="M1104.95 330.893L1071.46 317.031L-1683.05 6972.4L-1649.56 6986.27L1104.95 330.893Z" fill="black"/>
<path d="M1169.14 357.457L1135.65 343.596L-1618.86 6998.97L-1585.37 7012.83L1169.14 357.457Z" fill="black"/>
<path d="M1233.32 384.022L1199.83 370.16L-1554.68 7025.53L-1521.19 7039.39L1233.32 384.022Z" fill="black"/>
<path d="M1297.51 410.586L1264.02 396.725L-1490.49 7052.1L-1457 7065.96L1297.51 410.586Z" fill="black"/>
<path d="M1361.69 437.15L1328.2 423.289L-1426.31 7078.66L-1392.82 7092.52L1361.69 437.15Z" fill="black"/>
<path d="M1425.88 463.715L1392.39 449.854L-1362.12 7105.23L-1328.63 7119.09L1425.88 463.715Z" fill="black"/>
<path d="M1490.06 490.279L1456.57 476.418L-1297.94 7131.79L-1264.45 7145.65L1490.06 490.279Z" fill="black"/>
<path d="M1554.24 516.844L1520.75 502.982L-1233.76 7158.36L-1200.27 7172.22L1554.24 516.844Z" fill="black"/>
<path d="M1618.43 543.41L1584.94 529.549L-1169.57 7184.92L-1136.08 7198.78L1618.43 543.41Z" fill="black"/>
<path d="M1682.61 569.973L1649.12 556.111L-1105.39 7211.48L-1071.9 7225.35L1682.61 569.973Z" fill="black"/>
<path d="M1746.8 596.537L1713.31 582.676L-1041.2 7238.05L-1007.71 7251.91L1746.8 596.537Z" fill="black"/>
<path d="M1810.98 623.102L1777.49 609.24L-977.024 7264.61L-943.532 7278.47L1810.98 623.102Z" fill="black"/>
<path d="M1875.16 649.666L1841.67 635.805L-912.844 7291.18L-879.352 7305.04L1875.16 649.666Z" fill="black"/>
<path d="M1939.35 676.231L1905.86 662.369L-848.655 7317.74L-815.163 7331.6L1939.35 676.231Z" fill="black"/>
<path d="M2003.53 702.795L1970.04 688.934L-784.473 7344.31L-750.982 7358.17L2003.53 702.795Z" fill="black"/>
<path d="M2067.72 729.36L2034.23 715.498L-720.284 7370.87L-686.792 7384.73L2067.72 729.36Z" fill="black"/>
<path d="M2131.9 755.924L2098.41 742.062L-656.104 7397.44L-622.612 7411.3L2131.9 755.924Z" fill="black"/>
<path d="M2196.08 782.488L2162.59 768.627L-591.924 7424L-558.433 7437.86L2196.08 782.488Z" fill="black"/>
<path d="M2260.27 809.053L2226.78 795.191L-527.733 7450.56L-494.241 7464.43L2260.27 809.053Z" fill="black"/>
<path d="M2324.45 835.617L2290.96 821.756L-463.553 7477.13L-430.061 7490.99L2324.45 835.617Z" fill="black"/>
<path d="M2388.64 862.182L2355.15 848.32L-399.364 7503.69L-365.872 7517.55L2388.64 862.182Z" fill="black"/>
<path d="M2452.82 888.746L2419.33 874.885L-335.184 7530.26L-301.693 7544.12L2452.82 888.746Z" fill="black"/>
<path d="M2517 915.311L2483.51 901.449L-271.004 7556.82L-237.513 7570.68L2517 915.311Z" fill="black"/>
<path d="M2581.19 941.875L2547.7 928.014L-206.815 7583.39L-173.323 7597.25L2581.19 941.875Z" fill="black"/>
<path d="M2645.37 968.44L2611.88 954.578L-142.633 7609.95L-109.142 7623.81L2645.37 968.44Z" fill="black"/>
<path d="M2709.56 995.004L2676.07 981.143L-78.4438 7636.52L-44.9523 7650.38L2709.56 995.004Z" fill="black"/>
<path d="M2773.74 1021.57L2740.25 1007.71L-14.2641 7663.08L19.2273 7676.95L2773.74 1021.57Z" fill="black"/>
<path d="M2837.92 1048.13L2804.43 1034.27L49.9158 7689.64L83.4074 7703.5L2837.92 1048.13Z" fill="black"/>
<path d="M2902.11 1074.7L2868.62 1060.84L114.107 7716.21L147.598 7730.07L2902.11 1074.7Z" fill="black"/>
<path d="M2966.29 1101.26L2932.8 1087.4L178.287 7742.77L211.778 7756.63L2966.29 1101.26Z" fill="black"/>
<path d="M3030.48 1127.82L2996.99 1113.96L242.476 7769.33L275.968 7783.2L3030.48 1127.82Z" fill="black"/>
</g>
</svg>
