<svg width="81" height="71" viewBox="0 0 81 71" fill="none" xmlns="http://www.w3.org/2000/svg">
<path d="M81 27.8167L73.6465 22.2833V17.535C69.8392 14.2449 65.7705 11.4408 61.4406 9.16008L59.4995 4.52396L48.2641 0L41.2092 2.91627C35.6101 2.13112 29.8618 1.90679 24.0014 2.2059L18.477 0L7.39078 4.59874L2.76221 15.7778L5.93502 23.4423L0 37.7994L7.91336 56.9421L13.2885 54.6988L17.0585 63.8215L25.1585 60.4566L28.07 67.5603L34.4903 64.9057L49.1599 71L61.1046 66.0274L66.0691 54.0258L81 39.0332V27.8167Z" fill="white"/>
<path d="M78 29.5535L70.6707 24.104V19.3174C66.9874 16.2981 63.1554 13.8311 59.2117 11.9164L57.3514 7.49795L48.6455 4.03682L41.9859 6.76154C36.8145 5.91467 30.8989 5.69375 23.8673 5.98831L18.9191 4L10.3248 7.53478L6.75314 16.0771L9.91553 23.6254L4 37.7645L10.1388 52.4191L15.4962 50.2098L19.2167 59.194L27.2901 55.8802L30.1921 62.8393L37.6702 59.7832L38.8607 62.6552L49.4641 67L58.914 63.1338L62.7461 53.9655L58.2815 55.8065L56.6445 51.9036L62.4113 46.2332L66.2433 44.6867L67.3967 48.2215L78 37.6908V29.5535Z" fill="black"/>
<path d="M50 59.1756L51.1314 62L55 57L50 59.1756Z" fill="white"/>
<path d="M40 53.4051L42.4637 59.1772L47 61L41.8771 49L40 53.4051Z" fill="white"/>
<path d="M64.846 31.263H72L60.8757 22.9331L65.0707 21.1774C61.9619 18.7868 58.7033 16.8817 55.2949 15.3875L53.497 11.0171L48.4405 9L42.2979 11.5401C38.1403 10.8304 31.5482 10.3074 26.9786 10.3074L28.8139 13.109L18.5886 9L13.607 11.0545L11.547 16.0226L14.3561 22.4101L17.9893 20.8786L15.5172 15.3502L18.3264 14.1922L29.0012 18.4879L21.997 21.4389L19.7497 26.8553L34.9191 20.6171L32.3347 26.8553L39.9007 23.7549L42.1106 18.4132L53.7218 23.1946L48.5904 25.3237L46.0059 24.2405L44.9197 26.8179L29.6754 33.1681L32.2973 26.8926L17.0904 33.1681L19.7122 26.8926L12.1088 30.0303L9 37.5012L12.1463 45.084L15.1801 37.8374L22.7836 34.6996L18.2515 45.6444L21.3977 53.2272L27.8026 37.8747L35.4061 34.737L29.3008 49.4171L32.4471 57L40.2378 38.2856L47.8413 35.1479L56.1564 41.386L52.9352 49.2304L59.6397 42.5813L68.4792 38.9206L63.2729 34.9984L64.846 31.263Z" fill="white"/>
</svg>
