<svg width="15" height="1088" viewBox="0 0 15 1088" fill="none" xmlns="http://www.w3.org/2000/svg">
<rect width="15" height="1088" fill="white"/>
<mask id="mask0" mask-type="alpha" maskUnits="userSpaceOnUse" x="0" y="0" width="15" height="1088">
<rect width="15" height="1088" fill="#C4C4C4"/>
</mask>
<g mask="url(#mask0)">
<path d="M25.428 358L-4.69908 387.374L-4.8042 397.005L35.0989 358.105L25.428 358Z" fill="black"/>
<path d="M-5.01465 416.288L37.8949 374.456L38 364.825L-4.90953 406.636L-5.01465 416.288Z" fill="black"/>
<path d="M-5.2251 435.571L37.6844 393.739L37.7895 384.108L-5.11998 425.919L-5.2251 435.571Z" fill="black"/>
<path d="M37.5795 403.37L-5.32997 445.202L-5.41406 454.833L37.4744 413.022L37.5795 403.37Z" fill="black"/>
<path d="M34.5098 688.803L8.56644 662.423L-1.10449 662.318L34.4046 698.455L34.5098 688.803Z" fill="black"/>
<path d="M34.0896 727.369L-7.89488 684.637L-8 694.289L34.0055 737L34.0896 727.369Z" fill="black"/>
<path d="M34.1949 717.717L34.3 708.086L-7.68443 665.354L-7.78955 675.006L34.1949 717.717Z" fill="black"/>
<path d="M-7.66357 662.234L-1.10416 662.318L35.1829 626.935L35.5823 588.39L-7.30617 630.201L-7.66357 662.234Z" fill="black"/>
<path d="M36.0027 549.824L36.4232 511.279L-6.48629 553.09L-6.88574 591.656L36.0027 549.824Z" fill="black"/>
<path d="M36.8436 472.713L37.1589 441.936L-5.72954 483.747L-6.06592 514.545L36.8436 472.713Z" fill="black"/>
<path d="M37.264 432.305L37.3691 422.653L-5.51939 464.485L-5.62451 474.116L37.264 432.305Z" fill="black"/>
<path d="M26.428 724L-3.69908 753.374L-3.8042 763.005L36.0989 724.105L26.428 724Z" fill="black"/>
<path d="M-4.01465 782.288L38.8949 740.456L39 730.825L-3.90953 772.636L-4.01465 782.288Z" fill="black"/>
<path d="M-4.2251 801.571L38.6844 759.739L38.7895 750.108L-4.11998 791.919L-4.2251 801.571Z" fill="black"/>
<path d="M38.5795 769.37L-4.32997 811.202L-4.41406 820.833L38.4744 779.022L38.5795 769.37Z" fill="black"/>
<path d="M35.5098 1054.8L9.56644 1028.42L-0.104492 1028.32L35.4046 1064.46L35.5098 1054.8Z" fill="black"/>
<path d="M35.0896 1093.37L-6.89488 1050.64L-7 1060.29L35.0055 1103L35.0896 1093.37Z" fill="black"/>
<path d="M35.1949 1083.72L35.3 1074.09L-6.68443 1031.35L-6.78955 1041.01L35.1949 1083.72Z" fill="black"/>
<path d="M-6.66357 1028.23L-0.104159 1028.32L36.1829 992.935L36.5823 954.39L-6.30617 996.201L-6.66357 1028.23Z" fill="black"/>
<path d="M37.0027 915.824L37.4232 877.279L-5.48629 919.09L-5.88574 957.656L37.0027 915.824Z" fill="black"/>
<path d="M37.8436 838.713L38.1589 807.936L-4.72954 849.747L-5.06592 880.545L37.8436 838.713Z" fill="black"/>
<path d="M38.264 798.305L38.3691 788.653L-4.51939 830.485L-4.62451 840.116L38.264 798.305Z" fill="black"/>
<path d="M25.428 -8L-4.69908 21.3745L-4.8042 31.0055L35.0989 -7.89532L25.428 -8Z" fill="black"/>
<path d="M-5.01465 50.2884L37.8949 8.45642L38 -1.17456L-4.90953 40.6365L-5.01465 50.2884Z" fill="black"/>
<path d="M-5.2251 69.5712L37.6844 27.7393L37.7895 18.1083L-5.11998 59.9193L-5.2251 69.5712Z" fill="black"/>
<path d="M37.5795 37.3702L-5.32997 79.2022L-5.41406 88.8332L37.4744 47.0222L37.5795 37.3702Z" fill="black"/>
<path d="M34.5098 322.803L8.56644 296.423L-1.10449 296.318L34.4046 332.455L34.5098 322.803Z" fill="black"/>
<path d="M34.0896 361.369L-7.89488 318.637L-8 328.289L34.0055 371L34.0896 361.369Z" fill="black"/>
<path d="M34.1949 351.717L34.3 342.086L-7.68443 299.354L-7.78955 309.006L34.1949 351.717Z" fill="black"/>
<path d="M-7.66357 296.234L-1.10416 296.318L35.1829 260.935L35.5823 222.39L-7.30617 264.201L-7.66357 296.234Z" fill="black"/>
<path d="M36.0027 183.824L36.4232 145.279L-6.48629 187.09L-6.88574 225.656L36.0027 183.824Z" fill="black"/>
<path d="M36.8436 106.713L37.1589 75.9362L-5.72954 117.747L-6.06592 148.545L36.8436 106.713Z" fill="black"/>
<path d="M37.264 66.3051L37.3691 56.6532L-5.51939 98.4851L-5.62451 108.116L37.264 66.3051Z" fill="black"/>
</g>
</svg>
