<svg width="20" height="20" viewBox="0 0 20 20" fill="none" xmlns="http://www.w3.org/2000/svg">
<path d="M19.5947 5.07227C19.7412 5.73145 19.8877 6.75684 19.9609 8.07519L19.9976 9.90625L19.9609 11.7373C19.8877 13.1289 19.7412 14.1177 19.5947 14.7769C19.4482 15.2163 19.2285 15.5825 18.9355 15.8755C18.606 16.2051 18.2397 16.4248 17.8003 16.5347C17.1411 16.7178 15.6763 16.8276 13.3325 16.9009L10 16.9375L6.66748 16.9009C4.32373 16.8276 2.82227 16.7178 2.19971 16.5347C1.76025 16.4248 1.35742 16.2051 1.06445 15.8755C0.734863 15.5825 0.515137 15.2163 0.405273 14.7769C0.222168 14.1177 0.112305 13.1289 0.0390625 11.7373L0.00244141 9.90625C0.00244141 9.39355 0.00244141 8.771 0.0390625 8.07519C0.112305 6.75684 0.222168 5.73145 0.405273 5.07227C0.515137 4.63281 0.734863 4.2666 1.06445 3.93701C1.35742 3.64404 1.76025 3.42432 2.19971 3.27783C2.82227 3.13135 4.32373 2.98486 6.66748 2.91162L10 2.875L13.3325 2.91162C15.6763 2.98486 17.1411 3.13135 17.8003 3.27783C18.2397 3.42432 18.606 3.64404 18.9355 3.93701C19.2285 4.2666 19.4482 4.63281 19.5947 5.07227ZM7.94922 12.9092L13.186 9.90625L7.94922 6.93994V12.9092Z" fill="white"/>
</svg>
