<svg width="20" height="20" viewBox="0 0 20 20" fill="none" xmlns="http://www.w3.org/2000/svg">
<path d="M17.9297 6.5625C18.7109 5.97656 19.4141 5.27344 20 4.41406C19.2188 4.76562 18.4375 5 17.6562 5.07812C18.5156 4.53125 19.1406 3.78906 19.4531 2.8125C18.6328 3.28125 17.7734 3.63281 16.8359 3.78906C16.4453 3.39844 15.9766 3.08594 15.4688 2.85156C14.9609 2.61719 14.4141 2.5 13.8281 2.5C13.0859 2.5 12.4219 2.69531 11.7969 3.04688C11.1719 3.4375 10.6641 3.94531 10.3125 4.57031C9.92188 5.19531 9.76562 5.89844 9.76562 6.60156C9.76562 6.91406 9.76562 7.22656 9.84375 7.53906C8.16406 7.46094 6.60156 7.07031 5.11719 6.28906C3.63281 5.54688 2.42188 4.53125 1.40625 3.24219C1.01562 3.90625 0.820312 4.60938 0.820312 5.3125C0.820312 6.01562 0.976562 6.67969 1.32812 7.26562C1.64062 7.89062 2.10938 8.35938 2.65625 8.75C1.99219 8.75 1.36719 8.55469 0.820312 8.20312V8.28125C0.820312 9.25781 1.13281 10.1172 1.75781 10.8594C2.38281 11.6406 3.16406 12.1094 4.10156 12.3047C3.71094 12.3828 3.35938 12.4219 3.00781 12.4219C2.77344 12.4219 2.5 12.4219 2.26562 12.3828C2.5 13.2031 2.96875 13.8672 3.67188 14.4141C4.375 14.9609 5.15625 15.1953 6.09375 15.1953C4.57031 16.3672 2.85156 16.9531 0.976562 16.9531C0.585938 16.9531 0.273438 16.9531 0 16.9141C1.875 18.1641 3.98438 18.75 6.28906 18.75C8.67188 18.75 10.7812 18.1641 12.6562 16.9141C14.3359 15.8203 15.6641 14.375 16.6016 12.5C17.5 10.7812 17.9688 8.94531 17.9688 7.07031C17.9688 6.83594 17.9297 6.67969 17.9297 6.5625Z" fill="white"/>
</svg>
