<svg width="20" height="20" viewBox="0 0 20 20" fill="none" xmlns="http://www.w3.org/2000/svg">
<path d="M14.8279 12.6625C13.827 13.257 12.4499 13.4928 11.5403 13.5816L12.3037 14.2855L15.0909 16.8926C16.1101 17.8698 14.4517 19.3972 13.4215 18.4541C12.7238 17.7912 11.701 16.8345 10.6344 15.8368L7.8472 18.4507C6.81709 19.3904 5.15867 17.8493 6.18879 16.8892C6.89745 16.2263 7.9093 15.2696 8.97595 14.2821L9.72845 13.5782C8.82984 13.4894 7.43077 13.2673 6.41892 12.659C5.22807 11.9415 4.70571 11.5212 5.16597 10.6431C5.43629 10.1442 6.17783 9.72393 7.16046 10.4483C7.16046 10.4483 8.48646 11.4358 10.6271 11.4358C12.7677 11.4358 14.0937 10.4483 14.0937 10.4483C15.0763 9.72734 15.8142 10.1442 16.0882 10.6431C16.5411 11.5212 16.0188 11.9415 14.8279 12.6625ZM5.88559 5.68173C5.88559 3.2318 8.01524 1.25 10.6234 1.25C13.2316 1.25 15.3612 3.2318 15.3612 5.68173C15.3612 8.1214 13.2316 10.1032 10.6234 10.1032C8.01524 10.1032 5.88559 8.1214 5.88559 5.68173ZM8.29651 5.68173C8.29651 6.88106 9.34124 7.85829 10.6234 7.85829C11.9056 7.85829 12.9503 6.88106 12.9503 5.68173C12.9503 4.47214 11.9056 3.49491 10.6234 3.49491C9.34124 3.49491 8.29651 4.47214 8.29651 5.68173Z" fill="white"/>
</svg>
