<svg width="20" height="20" viewBox="0 0 20 20" fill="none" xmlns="http://www.w3.org/2000/svg">
<path d="M10 5.50781C10.7812 5.50781 11.5234 5.74219 12.2266 6.13281C12.9297 6.52344 13.4766 7.07031 13.8672 7.77344C14.2578 8.47656 14.4922 9.21875 14.4922 10C14.4922 10.8203 14.2578 11.5625 13.8672 12.2656C13.4766 12.9688 12.9297 13.5156 12.2266 13.9062C11.5234 14.2969 10.7812 14.4922 10 14.4922C9.17969 14.4922 8.4375 14.2969 7.73438 13.9062C7.03125 13.5156 6.48438 12.9688 6.09375 12.2656C5.70312 11.5625 5.50781 10.8203 5.50781 10C5.50781 9.21875 5.70312 8.47656 6.09375 7.77344C6.48438 7.07031 7.03125 6.52344 7.73438 6.13281C8.4375 5.74219 9.17969 5.50781 10 5.50781ZM10 12.9297C10.7812 12.9297 11.4844 12.6562 12.0703 12.0703C12.6172 11.5234 12.9297 10.8203 12.9297 10C12.9297 9.21875 12.6172 8.51562 12.0703 7.92969C11.4844 7.38281 10.7812 7.07031 10 7.07031C9.17969 7.07031 8.47656 7.38281 7.92969 7.92969C7.34375 8.51562 7.07031 9.21875 7.07031 10C7.07031 10.8203 7.34375 11.5234 7.92969 12.0703C8.47656 12.6562 9.17969 12.9297 10 12.9297ZM15.7422 5.3125C15.7422 5.03906 15.625 4.80469 15.4297 4.57031C15.1953 4.375 14.9609 4.25781 14.6875 4.25781C14.375 4.25781 14.1406 4.375 13.9453 4.57031C13.7109 4.80469 13.6328 5.03906 13.6328 5.3125C13.6328 5.625 13.7109 5.85938 13.9453 6.05469C14.1406 6.28906 14.375 6.36719 14.6875 6.36719C14.9609 6.36719 15.1953 6.28906 15.3906 6.05469C15.5859 5.85938 15.7031 5.625 15.7422 5.3125ZM18.7109 6.36719C18.7109 7.10938 18.75 8.32031 18.75 10C18.75 11.7188 18.7109 12.9297 18.6719 13.6719C18.6328 14.4141 18.5156 15.0391 18.3594 15.5859C18.125 16.25 17.7344 16.8359 17.2656 17.3047C16.7969 17.7734 16.2109 18.125 15.5859 18.3594C15.0391 18.5547 14.375 18.6719 13.6328 18.7109C12.8906 18.75 11.6797 18.75 10 18.75C8.28125 18.75 7.07031 18.75 6.32812 18.7109C5.58594 18.6719 4.96094 18.5547 4.41406 18.3203C3.75 18.125 3.16406 17.7734 2.69531 17.3047C2.22656 16.8359 1.875 16.25 1.64062 15.5859C1.44531 15.0391 1.32812 14.4141 1.28906 13.6719C1.25 12.9297 1.25 11.7188 1.25 10C1.25 8.32031 1.25 7.10938 1.28906 6.36719C1.32812 5.625 1.44531 4.96094 1.64062 4.41406C1.875 3.78906 2.22656 3.20312 2.69531 2.73438C3.16406 2.26562 3.75 1.875 4.41406 1.64062C4.96094 1.48438 5.58594 1.36719 6.32812 1.32812C7.07031 1.28906 8.28125 1.25 10 1.25C11.6797 1.25 12.8906 1.28906 13.6328 1.32812C14.375 1.36719 15.0391 1.48438 15.5859 1.64062C16.2109 1.875 16.7969 2.26562 17.2656 2.73438C17.7344 3.20312 18.125 3.78906 18.3594 4.41406C18.5156 4.96094 18.6328 5.625 18.7109 6.36719ZM16.8359 15.1562C16.9922 14.7266 17.0703 14.0234 17.1484 13.0469C17.1484 12.5 17.1875 11.6797 17.1875 10.625V9.375C17.1875 8.32031 17.1484 7.5 17.1484 6.95312C17.0703 5.97656 16.9922 5.27344 16.8359 4.84375C16.5234 4.0625 15.9375 3.47656 15.1562 3.16406C14.7266 3.00781 14.0234 2.92969 13.0469 2.85156C12.4609 2.85156 11.6406 2.8125 10.625 2.8125H9.375C8.32031 2.8125 7.5 2.85156 6.95312 2.85156C5.97656 2.92969 5.27344 3.00781 4.84375 3.16406C4.02344 3.47656 3.47656 4.0625 3.16406 4.84375C3.00781 5.27344 2.89062 5.97656 2.85156 6.95312C2.8125 7.53906 2.8125 8.35938 2.8125 9.375V10.625C2.8125 11.6797 2.8125 12.5 2.85156 13.0469C2.89062 14.0234 3.00781 14.7266 3.16406 15.1562C3.47656 15.9766 4.0625 16.5234 4.84375 16.8359C5.27344 16.9922 5.97656 17.1094 6.95312 17.1484C7.5 17.1875 8.32031 17.1875 9.375 17.1875H10.625C11.6797 17.1875 12.5 17.1875 13.0469 17.1484C14.0234 17.1094 14.7266 16.9922 15.1562 16.8359C15.9375 16.5234 16.5234 15.9375 16.8359 15.1562Z" fill="white"/>
</svg>
