<svg width="20" height="20" viewBox="0 0 20 20" fill="none" xmlns="http://www.w3.org/2000/svg">
<path d="M19.4116 5.41504C19.3384 5.78125 19.0454 6.40381 18.5327 7.24609C18.1665 7.86865 17.7271 8.56445 17.2144 9.37012C16.7749 10.0293 16.5186 10.3589 16.5186 10.3589C16.3721 10.5786 16.2988 10.7617 16.2988 10.8716C16.2988 11.0181 16.3721 11.1646 16.5186 11.311L16.8481 11.6772C18.606 13.5083 19.5947 14.7534 19.8145 15.4126C19.8877 15.7056 19.8511 15.9619 19.7046 16.1084C19.5581 16.2549 19.375 16.3281 19.082 16.3281H16.9214C16.6284 16.3281 16.4087 16.2549 16.189 16.0718C16.0425 15.9985 15.7495 15.7422 15.3833 15.3027C15.0171 14.8633 14.6875 14.4971 14.3945 14.2041C13.4058 13.2886 12.6733 12.8125 12.2339 12.8125C12.0142 12.8125 11.8677 12.8491 11.7944 12.9224C11.7212 12.9956 11.6846 13.1787 11.6846 13.3984C11.6479 13.5815 11.6479 13.9478 11.6479 14.5337V15.4858C11.6479 15.7788 11.5747 15.9985 11.4282 16.1084C11.2085 16.2549 10.769 16.3281 10.1099 16.3281C8.93799 16.3281 7.80273 15.9985 6.63086 15.3027C5.45898 14.6436 4.43359 13.6548 3.55469 12.373C2.7124 11.2744 2.0166 10.1392 1.46729 8.96729C1.02783 8.08838 0.661621 7.28271 0.405273 6.51367C0.222168 5.92773 0.148926 5.48828 0.148926 5.23193C0.148926 4.8291 0.368652 4.60938 0.881348 4.60938H3.04199C3.29834 4.60938 3.48145 4.68262 3.62793 4.79248C3.77441 4.93896 3.88428 5.15869 3.99414 5.45166C4.32373 6.44043 4.72656 7.39258 5.23926 8.30811C5.67871 9.18701 6.11816 9.88281 6.55762 10.3955C6.99707 10.9448 7.32666 11.2012 7.58301 11.2012C7.72949 11.2012 7.80273 11.1646 7.87598 11.0547C7.94922 10.9448 7.98584 10.7251 7.98584 10.3955V7.20947C7.94922 6.84326 7.87598 6.47705 7.72949 6.18408C7.65625 6.0376 7.50977 5.85449 7.36328 5.63477C7.18018 5.41504 7.10693 5.26855 7.10693 5.12207C7.10693 4.97559 7.14355 4.86572 7.25342 4.75586C7.36328 4.68262 7.50977 4.60938 7.65625 4.60938H11.062C11.2817 4.60938 11.4282 4.68262 11.5015 4.79248C11.5747 4.93896 11.6479 5.12207 11.6479 5.41504V9.66309C11.6479 9.88281 11.6846 10.0659 11.7578 10.1392C11.8311 10.249 11.9043 10.2856 12.0142 10.2856C12.124 10.2856 12.2705 10.249 12.417 10.1758C12.5635 10.1025 12.7466 9.91943 13.0029 9.62646C13.4424 9.11377 13.9185 8.49121 14.3945 7.72217C14.6875 7.20947 15.0171 6.62354 15.3101 5.96436L15.6763 5.23193C15.8228 4.8291 16.1523 4.60938 16.5918 4.60938H18.7524C19.3384 4.60938 19.5581 4.90234 19.4116 5.41504Z" fill="white"/>
</svg>
