<svg width="122" height="42" viewBox="0 0 122 42" fill="none" xmlns="http://www.w3.org/2000/svg">
<rect x="0.5" y="0.5" width="121" height="40.3559" rx="4.5" stroke="#474747"/>
<path d="M30.0276 14.8602C26.9839 18.0472 27.1613 20.715 30.6976 23.0186C29.866 24.8313 29.0278 26.6978 27.2548 27.7879C26.617 28.1801 25.5034 28.2121 24.7711 27.95C23.3076 27.426 21.9534 27.33 20.5429 27.9699C19.4416 28.4697 18.4455 28.3215 17.4936 27.5491C14.7969 25.3621 13.0907 19.9016 14.06 16.5815C14.8197 13.9795 17.7835 11.5279 20.9964 13.2482C22.2015 13.8933 23.3096 13.5859 24.4786 13.1073C26.7699 12.1695 28.5755 12.7738 30.0276 14.8602Z" fill="white"/>
<path d="M25.8861 8.271C26.1334 10.6635 24.5778 12.5933 22.2424 12.8736C21.6812 10.7989 23.3772 8.61161 25.8861 8.271Z" fill="white"/>
<path d="M44.0076 17.921H42.0991V11.9443H44.0076C44.9097 11.9443 45.6384 12.2341 46.194 12.8135C46.7495 13.387 47.0273 14.0948 47.0273 14.9371C47.0273 15.7854 46.7495 16.4962 46.194 17.0697C45.6444 17.6372 44.9156 17.921 44.0076 17.921ZM44.0076 17.455C44.7723 17.455 45.3756 17.2161 45.8177 16.7382C46.2657 16.2603 46.4897 15.6599 46.4897 14.9371C46.4897 14.2143 46.2687 13.614 45.8266 13.1361C45.3846 12.6522 44.7782 12.4103 44.0076 12.4103H42.6098V17.455H44.0076Z" fill="white"/>
<path d="M50.1131 18.0285C49.4919 18.0285 48.9901 17.8104 48.6078 17.3744C48.2255 16.9383 48.0343 16.3977 48.0343 15.7525C48.0343 15.1074 48.2255 14.5697 48.6078 14.1396C48.9901 13.7036 49.4919 13.4855 50.1131 13.4855C50.7404 13.4855 51.2451 13.7036 51.6275 14.1396C52.0098 14.5697 52.2009 15.1074 52.2009 15.7525C52.2009 16.3977 52.0098 16.9383 51.6275 17.3744C51.2451 17.8104 50.7404 18.0285 50.1131 18.0285ZM50.1131 17.6073C50.603 17.6073 50.9883 17.4281 51.269 17.0697C51.5558 16.7053 51.6991 16.2663 51.6991 15.7525C51.6991 15.2448 51.5558 14.8117 51.269 14.4533C50.9883 14.0889 50.603 13.9067 50.1131 13.9067C49.6293 13.9067 49.244 14.0889 48.9572 14.4533C48.6765 14.8117 48.5361 15.2448 48.5361 15.7525C48.5361 16.2603 48.6765 16.6964 48.9572 17.0608C49.244 17.4251 49.6293 17.6073 50.1131 17.6073Z" fill="white"/>
<path d="M57.5619 17.921H57.1138L55.9042 14.2203L54.6856 17.921H54.2375L52.8307 13.5931H53.3325L54.4795 17.2668L55.6981 13.5931H56.1013L57.3199 17.2668L58.4669 13.5931H58.9687L57.5619 17.921Z" fill="white"/>
<path d="M63.2316 17.921H62.7656V14.9909C62.7656 14.5966 62.676 14.3189 62.4968 14.1576C62.3176 13.9903 62.0578 13.9067 61.7173 13.9067C61.4485 13.9067 61.1826 13.9784 60.9198 14.1217C60.657 14.2651 60.4539 14.4413 60.3105 14.6504V17.921H59.8445V13.5931H60.3105V14.2472C60.4837 14.0441 60.7137 13.8678 61.0004 13.7185C61.2872 13.5632 61.5769 13.4855 61.8696 13.4855C62.7776 13.4855 63.2316 13.9545 63.2316 14.8923V17.921Z" fill="white"/>
<path d="M65.1495 17.921H64.6835V11.9443H65.1495V17.921Z" fill="white"/>
<path d="M68.4278 18.0285C67.8066 18.0285 67.3048 17.8104 66.9225 17.3744C66.5401 16.9383 66.349 16.3977 66.349 15.7525C66.349 15.1074 66.5401 14.5697 66.9225 14.1396C67.3048 13.7036 67.8066 13.4855 68.4278 13.4855C69.055 13.4855 69.5598 13.7036 69.9421 14.1396C70.3244 14.5697 70.5156 15.1074 70.5156 15.7525C70.5156 16.3977 70.3244 16.9383 69.9421 17.3744C69.5598 17.8104 69.055 18.0285 68.4278 18.0285ZM68.4278 17.6073C68.9177 17.6073 69.3029 17.4281 69.5837 17.0697C69.8704 16.7053 70.0138 16.2663 70.0138 15.7525C70.0138 15.2448 69.8704 14.8117 69.5837 14.4533C69.3029 14.0889 68.9177 13.9067 68.4278 13.9067C67.9439 13.9067 67.5586 14.0889 67.2719 14.4533C66.9912 14.8117 66.8508 15.2448 66.8508 15.7525C66.8508 16.2603 66.9912 16.6964 67.2719 17.0608C67.5586 17.4251 67.9439 17.6073 68.4278 17.6073Z" fill="white"/>
<path d="M74.9357 17.921H74.4697V17.4102C74.0934 17.8224 73.6036 18.0285 73.0002 18.0285C72.6 18.0285 72.2476 17.9001 71.9429 17.6432C71.6382 17.3803 71.4859 17.0279 71.4859 16.5859C71.4859 16.1378 71.6353 15.7884 71.9339 15.5375C72.2386 15.2806 72.594 15.1522 73.0002 15.1522C73.6095 15.1522 74.0994 15.3583 74.4697 15.7704V14.8923C74.4697 14.5817 74.3592 14.3398 74.1382 14.1665C73.9172 13.9873 73.6394 13.8977 73.3049 13.8977C72.7732 13.8977 72.3222 14.1098 71.9519 14.5339L71.692 14.2113C72.14 13.7275 72.6956 13.4855 73.3587 13.4855C73.8246 13.4855 74.2039 13.602 74.4966 13.835C74.7893 14.068 74.9357 14.4144 74.9357 14.8744V17.921ZM73.1615 17.6611C73.729 17.6611 74.1651 17.464 74.4697 17.0697V16.1199C74.1591 15.7197 73.723 15.5196 73.1615 15.5196C72.8091 15.5196 72.5223 15.6211 72.3013 15.8242C72.0863 16.0273 71.9787 16.2842 71.9787 16.5948C71.9787 16.9054 72.0863 17.1623 72.3013 17.3654C72.5223 17.5625 72.8091 17.6611 73.1615 17.6611Z" fill="white"/>
<path d="M80.0564 17.921H79.5815V17.231C79.4203 17.464 79.2052 17.6551 78.9364 17.8045C78.6736 17.9538 78.3868 18.0285 78.0762 18.0285C77.4967 18.0285 77.0278 17.8224 76.6694 17.4102C76.317 16.998 76.1407 16.4485 76.1407 15.7615C76.1407 15.0805 76.3199 14.5309 76.6784 14.1128C77.0368 13.6946 77.5027 13.4855 78.0762 13.4855C78.6974 13.4855 79.1992 13.7543 79.5815 14.292V11.9443H80.0564V17.921ZM78.1568 17.6073C78.4495 17.6073 78.7273 17.5327 78.9902 17.3833C79.253 17.234 79.4501 17.0518 79.5815 16.8367V14.6952C79.4501 14.4742 79.253 14.289 78.9902 14.1396C78.7273 13.9843 78.4495 13.9067 78.1568 13.9067C77.6909 13.9067 77.3205 14.0829 77.0457 14.4353C76.7769 14.7818 76.6425 15.2239 76.6425 15.7615C76.6425 16.2991 76.7769 16.7412 77.0457 17.0876C77.3205 17.4341 77.6909 17.6073 78.1568 17.6073Z" fill="white"/>
<path d="M85.6574 18.0285C85.0362 18.0285 84.5344 17.8104 84.1521 17.3744C83.7698 16.9383 83.5786 16.3977 83.5786 15.7525C83.5786 15.1074 83.7698 14.5697 84.1521 14.1396C84.5344 13.7036 85.0362 13.4855 85.6574 13.4855C86.2847 13.4855 86.7894 13.7036 87.1717 14.1396C87.5541 14.5697 87.7452 15.1074 87.7452 15.7525C87.7452 16.3977 87.5541 16.9383 87.1717 17.3744C86.7894 17.8104 86.2847 18.0285 85.6574 18.0285ZM85.6574 17.6073C86.1473 17.6073 86.5326 17.4281 86.8133 17.0697C87.1001 16.7053 87.2434 16.2663 87.2434 15.7525C87.2434 15.2448 87.1001 14.8117 86.8133 14.4533C86.5326 14.0889 86.1473 13.9067 85.6574 13.9067C85.1736 13.9067 84.7883 14.0889 84.5015 14.4533C84.2208 14.8117 84.0804 15.2448 84.0804 15.7525C84.0804 16.2603 84.2208 16.6964 84.5015 17.0608C84.7883 17.4251 85.1736 17.6073 85.6574 17.6073Z" fill="white"/>
<path d="M92.3356 17.921H91.8696V14.9909C91.8696 14.5966 91.78 14.3189 91.6008 14.1576C91.4216 13.9903 91.1617 13.9067 90.8212 13.9067C90.5524 13.9067 90.2866 13.9784 90.0238 14.1217C89.7609 14.2651 89.5578 14.4413 89.4144 14.6504V17.921H88.9485V13.5931H89.4144V14.2472C89.5877 14.0441 89.8177 13.8678 90.1044 13.7185C90.3911 13.5632 90.6809 13.4855 90.9736 13.4855C91.8816 13.4855 92.3356 13.9545 92.3356 14.8923V17.921Z" fill="white"/>
<path d="M97.0472 18.0285C96.4797 18.0285 96.196 17.7149 96.196 17.0876V14.0052H95.4791V13.5931H96.196V12.4103H96.6709V13.5931H97.549V14.0052H96.6709V17.016C96.6709 17.4102 96.8202 17.6073 97.1189 17.6073C97.316 17.6073 97.4773 17.5386 97.6028 17.4013L97.782 17.7597C97.5908 17.9389 97.3459 18.0285 97.0472 18.0285Z" fill="white"/>
<path d="M101.961 17.921H101.495V14.973C101.495 14.5787 101.405 14.3039 101.226 14.1486C101.047 13.9873 100.787 13.9067 100.447 13.9067C100.178 13.9067 99.9121 13.9784 99.6492 14.1217C99.3864 14.2651 99.1833 14.4413 99.0399 14.6504V17.921H98.574V11.9443H99.0399V14.2472C99.2132 14.0441 99.4432 13.8678 99.7299 13.7185C100.017 13.5632 100.306 13.4855 100.599 13.4855C101.507 13.4855 101.961 13.9485 101.961 14.8744V17.921Z" fill="white"/>
<path d="M105.331 18.0285C104.697 18.0285 104.178 17.8164 103.771 17.3923C103.365 16.9682 103.162 16.4216 103.162 15.7525C103.162 15.1193 103.359 14.5847 103.753 14.1486C104.154 13.7066 104.653 13.4855 105.25 13.4855C105.883 13.4855 106.382 13.7066 106.746 14.1486C107.111 14.5847 107.293 15.1283 107.293 15.7794V15.9049H103.673C103.697 16.3947 103.861 16.8039 104.166 17.1324C104.47 17.461 104.871 17.6253 105.366 17.6253C105.94 17.6253 106.412 17.4251 106.782 17.0249L107.024 17.3296C106.576 17.7955 106.012 18.0285 105.331 18.0285ZM106.818 15.5375C106.812 15.1193 106.672 14.74 106.397 14.3995C106.128 14.059 105.743 13.8888 105.241 13.8888C104.769 13.8888 104.393 14.059 104.112 14.3995C103.837 14.734 103.691 15.1133 103.673 15.5375H106.818Z" fill="white"/>
<path d="M47.5201 28.2599H46.0685L45.7012 27.2474H43.1385L42.7621 28.2599H41.3105L43.6223 22.2833H45.2173L47.5201 28.2599ZM45.3517 26.1274L44.4198 23.5557L43.4879 26.1274H45.3517Z" fill="white"/>
<path d="M50.5183 28.3675C49.9747 28.3675 49.5296 28.1464 49.1831 27.7044V29.9087H48.0452V23.932H49.1831V24.4786C49.5236 24.0426 49.9687 23.8245 50.5183 23.8245C51.0857 23.8245 51.5457 24.0276 51.8982 24.4338C52.2566 24.8341 52.4358 25.3866 52.4358 26.0915C52.4358 26.7964 52.2566 27.3519 51.8982 27.7582C51.5457 28.1644 51.0857 28.3675 50.5183 28.3675ZM50.1598 27.3549C50.4884 27.3549 50.7512 27.2384 50.9484 27.0055C51.1515 26.7725 51.253 26.4678 51.253 26.0915C51.253 25.7211 51.1515 25.4195 50.9484 25.1865C50.7512 24.9535 50.4884 24.837 50.1598 24.837C49.9747 24.837 49.7895 24.8848 49.6043 24.9804C49.4191 25.076 49.2787 25.1925 49.1831 25.3299V26.8621C49.2787 26.9995 49.4191 27.116 49.6043 27.2116C49.7954 27.3071 49.9806 27.3549 50.1598 27.3549Z" fill="white"/>
<path d="M55.7423 28.3675C55.1987 28.3675 54.7536 28.1464 54.4072 27.7044V29.9087H53.2692V23.932H54.4072V24.4786C54.7477 24.0426 55.1927 23.8245 55.7423 23.8245C56.3098 23.8245 56.7697 24.0276 57.1222 24.4338C57.4806 24.8341 57.6598 25.3866 57.6598 26.0915C57.6598 26.7964 57.4806 27.3519 57.1222 27.7582C56.7697 28.1644 56.3098 28.3675 55.7423 28.3675ZM55.3838 27.3549C55.7124 27.3549 55.9752 27.2384 56.1724 27.0055C56.3755 26.7725 56.477 26.4678 56.477 26.0915C56.477 25.7211 56.3755 25.4195 56.1724 25.1865C55.9752 24.9535 55.7124 24.837 55.3838 24.837C55.1987 24.837 55.0135 24.8848 54.8283 24.9804C54.6431 25.076 54.5027 25.1925 54.4072 25.3299V26.8621C54.5027 26.9995 54.6431 27.116 54.8283 27.2116C55.0195 27.3071 55.2046 27.3549 55.3838 27.3549Z" fill="white"/>
<path d="M62.9363 28.3675C61.873 28.3675 61.0307 28.0509 60.4095 27.4177L61.0994 26.4499C61.6132 26.9876 62.2464 27.2564 62.999 27.2564C63.3276 27.2564 63.5815 27.1936 63.7607 27.0682C63.9459 26.9368 64.0385 26.7785 64.0385 26.5933C64.0385 26.432 63.9518 26.2976 63.7786 26.1901C63.6113 26.0826 63.3993 26.0049 63.1424 25.9571C62.8915 25.9093 62.6167 25.8406 62.318 25.751C62.0194 25.6614 61.7416 25.5599 61.4847 25.4464C61.2338 25.3329 61.0218 25.1537 60.8485 24.9087C60.6813 24.6638 60.5976 24.3651 60.5976 24.0127C60.5976 23.499 60.8037 23.0689 61.2159 22.7224C61.6281 22.3699 62.1777 22.1937 62.8646 22.1937C63.8144 22.1937 64.591 22.4715 65.1943 23.027L64.4865 23.9589C64.0146 23.5228 63.4351 23.3048 62.7481 23.3048C62.4793 23.3048 62.2703 23.3586 62.1209 23.4661C61.9716 23.5736 61.8969 23.72 61.8969 23.9052C61.8969 24.0485 61.9805 24.171 62.1478 24.2725C62.321 24.3681 62.5331 24.4398 62.784 24.4876C63.0409 24.5354 63.3156 24.6071 63.6084 24.7026C63.907 24.7922 64.1818 24.8968 64.4327 25.0163C64.6896 25.1298 64.9016 25.312 65.0689 25.5628C65.2421 25.8078 65.3288 26.1035 65.3288 26.4499C65.3288 27.0234 65.1227 27.4864 64.7105 27.8388C64.3043 28.1912 63.7129 28.3675 62.9363 28.3675Z" fill="white"/>
<path d="M67.4877 28.3675C67.0874 28.3675 66.7828 28.2659 66.5737 28.0628C66.3646 27.8597 66.2601 27.567 66.2601 27.1847V24.9267H65.5432V23.932H66.2601V22.7493H67.407V23.932H68.2851V24.9267H67.407V26.88C67.407 27.0174 67.4429 27.1309 67.5145 27.2205C67.5862 27.3101 67.6818 27.3549 67.8013 27.3549C67.9805 27.3549 68.1119 27.3131 68.1955 27.2295L68.4375 28.0897C68.2284 28.2749 67.9118 28.3675 67.4877 28.3675Z" fill="white"/>
<path d="M72.7375 27.7134C72.3194 28.1494 71.7638 28.3675 71.0709 28.3675C70.3779 28.3675 69.8224 28.1494 69.4042 27.7134C68.992 27.2713 68.7859 26.7307 68.7859 26.0915C68.7859 25.4523 68.992 24.9147 69.4042 24.4786C69.8224 24.0426 70.3779 23.8245 71.0709 23.8245C71.7638 23.8245 72.3194 24.0426 72.7375 24.4786C73.1557 24.9147 73.3647 25.4523 73.3647 26.0915C73.3647 26.7307 73.1557 27.2713 72.7375 27.7134ZM70.2644 26.9965C70.4616 27.2355 70.7304 27.3549 71.0709 27.3549C71.4114 27.3549 71.6802 27.2355 71.8773 26.9965C72.0804 26.7516 72.182 26.4499 72.182 26.0915C72.182 25.7391 72.0804 25.4434 71.8773 25.2044C71.6802 24.9595 71.4114 24.837 71.0709 24.837C70.7304 24.837 70.4616 24.9595 70.2644 25.2044C70.0673 25.4434 69.9687 25.7391 69.9687 26.0915C69.9687 26.4499 70.0673 26.7516 70.2644 26.9965Z" fill="white"/>
<path d="M75.347 28.2599H74.209V23.932H75.347V24.5234C75.5083 24.3203 75.7143 24.1531 75.9652 24.0216C76.2161 23.8902 76.47 23.8245 76.7269 23.8245V24.9356C76.6492 24.9177 76.5447 24.9087 76.4133 24.9087C76.2221 24.9087 76.019 24.9565 75.8039 25.0521C75.5889 25.1477 75.4366 25.2642 75.347 25.4016V28.2599Z" fill="white"/>
<path d="M79.4719 28.3675C78.8029 28.3675 78.2503 28.1584 77.8142 27.7402C77.3782 27.3221 77.1601 26.7725 77.1601 26.0915C77.1601 25.4523 77.3692 24.9147 77.7874 24.4786C78.2115 24.0426 78.7491 23.8245 79.4002 23.8245C80.0454 23.8245 80.5681 24.0455 80.9683 24.4876C81.3685 24.9237 81.5687 25.4971 81.5687 26.208V26.4589H78.3519C78.3877 26.7456 78.5161 26.9846 78.7372 27.1757C78.9582 27.3669 79.2449 27.4625 79.5974 27.4625C79.7885 27.4625 79.9946 27.4236 80.2156 27.346C80.4426 27.2683 80.6218 27.1638 80.7533 27.0324L81.2551 27.7671C80.819 28.1674 80.2246 28.3675 79.4719 28.3675ZM80.4665 25.6883C80.4486 25.4434 80.35 25.2223 80.1708 25.0252C79.9976 24.8281 79.7407 24.7295 79.4002 24.7295C79.0777 24.7295 78.8268 24.8281 78.6476 25.0252C78.4683 25.2164 78.3638 25.4374 78.3339 25.6883H80.4665Z" fill="white"/>
</svg>
