<svg width="195" height="55" viewBox="0 0 195 55" fill="none" xmlns="http://www.w3.org/2000/svg">
<mask id="mask0" mask-type="alpha" maskUnits="userSpaceOnUse" x="0" y="0" width="195" height="55">
<path d="M0 0H195V55H0V0Z" fill="black"/>
</mask>
<g mask="url(#mask0)">
<path fill-rule="evenodd" clip-rule="evenodd" d="M8.42337 55.5H16.0432L41.5429 0H33.9231L8.42337 55.5ZM3.41086 0H11.0307L-14.4691 55.5H-22.0889L3.41086 0ZM18.6504 0H26.2702L0.770494 55.5H-6.84928L18.6504 0ZM64.3802 0H72L46.5003 55.5H38.8805L64.3802 0ZM49.1296 0H56.7604L31.2496 55.5H23.6299L49.1296 0ZM85.4234 55.5H93.0432L118.543 0H110.923L85.4234 55.5ZM80.4109 0H88.0307L62.5309 55.5H54.9111L80.4109 0ZM95.6504 0H103.27L77.7705 55.5H70.1507L95.6504 0ZM141.38 0H149L123.5 55.5H115.88L141.38 0ZM126.13 0H133.76L108.25 55.5H100.63L126.13 0Z" fill="white"/>
<path d="M171.043 55.5H163.423L188.923 0H196.543L171.043 55.5ZM166.031 0H158.411L132.911 55.5H140.531L166.031 0ZM181.27 0H173.65L148.151 55.5H155.77L181.27 0ZM227 0H219.38L193.88 55.5H201.5L227 0ZM211.76 0H204.13L178.63 55.5H186.25L211.76 0Z" fill="white"/>
</g>
</svg>
