<svg width="122" height="42" viewBox="0 0 122 42" fill="none" xmlns="http://www.w3.org/2000/svg">
<rect x="0.5" y="0.5" width="121" height="40.3559" rx="4.5" stroke="#474747"/>
<path d="M52.4864 18.0384C51.6321 18.0384 50.9123 17.7486 50.3269 17.1692C49.7474 16.5897 49.4577 15.846 49.4577 14.938C49.4577 14.03 49.7474 13.2893 50.3269 12.7158C50.9123 12.1364 51.6321 11.8467 52.4864 11.8467C53.3944 11.8467 54.144 12.1872 54.7354 12.8682L54.3501 13.1459C54.1351 12.8891 53.8633 12.686 53.5347 12.5366C53.2122 12.3873 52.8627 12.3126 52.4864 12.3126C51.7755 12.3126 51.1811 12.5575 50.7032 13.0474C50.2313 13.5372 49.9954 14.1674 49.9954 14.938C49.9954 15.7027 50.2313 16.3329 50.7032 16.8287C51.1811 17.3245 51.7755 17.5724 52.4864 17.5724C52.8508 17.5724 53.1853 17.5007 53.4899 17.3574C53.7946 17.214 54.0455 17.0437 54.2426 16.8466V15.4129H51.9846V14.956H54.7534V17.0437C54.162 17.7068 53.4063 18.0384 52.4864 18.0384Z" fill="white"/>
<path d="M57.9517 18.0294C57.3185 18.0294 56.7988 17.8173 56.3926 17.3932C55.9863 16.9691 55.7832 16.4225 55.7832 15.7534C55.7832 15.1202 55.9804 14.5856 56.3746 14.1495C56.7749 13.7075 57.2737 13.4864 57.871 13.4864C58.5042 13.4864 59.003 13.7075 59.3674 14.1495C59.7318 14.5856 59.914 15.1292 59.914 15.7803V15.9058H56.294C56.3179 16.3956 56.4822 16.8048 56.7868 17.1333C57.0915 17.4619 57.4917 17.6262 57.9875 17.6262C58.561 17.6262 59.0329 17.4261 59.4033 17.0258L59.6452 17.3305C59.1972 17.7964 58.6327 18.0294 57.9517 18.0294ZM59.4391 15.5384C59.4331 15.1202 59.2928 14.7409 59.018 14.4004C58.7492 14.0599 58.3639 13.8897 57.8621 13.8897C57.3902 13.8897 57.0138 14.0599 56.7331 14.4004C56.4583 14.7349 56.3119 15.1143 56.294 15.5384H59.4391Z" fill="white"/>
<path d="M62.059 18.0294C61.4915 18.0294 61.2077 17.7158 61.2077 17.0885V14.0061H60.4909V13.594H61.2077V12.4112H61.6827V13.594H62.5608V14.0061H61.6827V17.0169C61.6827 17.4111 61.832 17.6083 62.1307 17.6083C62.3278 17.6083 62.4891 17.5396 62.6145 17.4022L62.7937 17.7606C62.6026 17.9398 62.3577 18.0294 62.059 18.0294Z" fill="white"/>
<path d="M66.1376 12.913C66.042 12.913 65.9584 12.8771 65.8867 12.8054C65.815 12.7338 65.7792 12.6501 65.7792 12.5546C65.7792 12.459 65.815 12.3783 65.8867 12.3126C65.9584 12.2409 66.042 12.2051 66.1376 12.2051C66.2392 12.2051 66.3228 12.2409 66.3885 12.3126C66.4602 12.3783 66.496 12.459 66.496 12.5546C66.496 12.6561 66.4602 12.7427 66.3885 12.8144C66.3228 12.8801 66.2392 12.913 66.1376 12.913ZM66.3706 17.9219H65.9046V13.594H66.3706V17.9219Z" fill="white"/>
<path d="M68.7618 18.0294C68.1943 18.0294 67.9106 17.7158 67.9106 17.0885V14.0061H67.1937V13.594H67.9106V12.4112H68.3855V13.594H69.2636V14.0061H68.3855V17.0169C68.3855 17.4111 68.5348 17.6083 68.8335 17.6083C69.0306 17.6083 69.1919 17.5396 69.3174 17.4022L69.4966 17.7606C69.3054 17.9398 69.0605 18.0294 68.7618 18.0294Z" fill="white"/>
<path d="M74.4354 18.0294C73.8141 18.0294 73.3124 17.8114 72.93 17.3753C72.5477 16.9392 72.3566 16.3986 72.3566 15.7534C72.3566 15.1083 72.5477 14.5707 72.93 14.1406C73.3124 13.7045 73.8141 13.4864 74.4354 13.4864C75.0626 13.4864 75.5674 13.7045 75.9497 14.1406C76.332 14.5707 76.5232 15.1083 76.5232 15.7534C76.5232 16.3986 76.332 16.9392 75.9497 17.3753C75.5674 17.8114 75.0626 18.0294 74.4354 18.0294ZM74.4354 17.6083C74.9252 17.6083 75.3105 17.429 75.5913 17.0706C75.878 16.7062 76.0214 16.2672 76.0214 15.7534C76.0214 15.2457 75.878 14.8126 75.5913 14.4542C75.3105 14.0898 74.9252 13.9076 74.4354 13.9076C73.9515 13.9076 73.5662 14.0898 73.2795 14.4542C72.9987 14.8126 72.8584 15.2457 72.8584 15.7534C72.8584 16.2612 72.9987 16.6973 73.2795 17.0617C73.5662 17.4261 73.9515 17.6083 74.4354 17.6083Z" fill="white"/>
<path d="M81.1135 17.9219H80.6476V14.9918C80.6476 14.5975 80.558 14.3198 80.3788 14.1585C80.1996 13.9912 79.9397 13.9076 79.5992 13.9076C79.3304 13.9076 79.0646 13.9793 78.8017 14.1226C78.5389 14.266 78.3358 14.4422 78.1924 14.6513V17.9219H77.7265V13.594H78.1924V14.2481C78.3657 14.045 78.5956 13.8688 78.8824 13.7194C79.1691 13.5641 79.4588 13.4864 79.7515 13.4864C80.6595 13.4864 81.1135 13.9554 81.1135 14.8932V17.9219Z" fill="white"/>
<path d="M52.4236 28.3773C51.5276 28.3773 50.7719 28.0906 50.1566 27.5171C49.5473 26.9437 49.2427 26.197 49.2427 25.277C49.2427 24.3511 49.5473 23.6044 50.1566 23.0369C50.7719 22.4694 51.5276 22.1857 52.4236 22.1857C53.5108 22.1857 54.3352 22.6307 54.8967 23.5208L53.8394 24.0942C53.696 23.8672 53.4989 23.6821 53.248 23.5387C53.0031 23.3893 52.7283 23.3147 52.4236 23.3147C51.88 23.3147 51.432 23.4999 51.0796 23.8702C50.7271 24.2406 50.5509 24.7095 50.5509 25.277C50.5509 25.8445 50.7271 26.3134 51.0796 26.6838C51.432 27.0542 51.88 27.2394 52.4236 27.2394C52.6745 27.2394 52.9165 27.1946 53.1494 27.105C53.3824 27.0153 53.5646 26.9078 53.696 26.7824V26.0655H52.119V24.9544H54.9684V27.2483C54.2934 28.001 53.4451 28.3773 52.4236 28.3773Z" fill="white"/>
<path d="M59.6254 27.7143C59.2072 28.1503 58.6517 28.3684 57.9587 28.3684C57.2658 28.3684 56.7103 28.1503 56.2921 27.7143C55.8799 27.2722 55.6738 26.7316 55.6738 26.0924C55.6738 25.4532 55.8799 24.9156 56.2921 24.4795C56.7103 24.0435 57.2658 23.8254 57.9587 23.8254C58.6517 23.8254 59.2072 24.0435 59.6254 24.4795C60.0435 24.9156 60.2526 25.4532 60.2526 26.0924C60.2526 26.7316 60.0435 27.2722 59.6254 27.7143ZM57.1523 26.9974C57.3494 27.2364 57.6182 27.3558 57.9587 27.3558C58.2992 27.3558 58.5681 27.2364 58.7652 26.9974C58.9683 26.7525 59.0698 26.4508 59.0698 26.0924C59.0698 25.74 58.9683 25.4443 58.7652 25.2053C58.5681 24.9604 58.2992 24.838 57.9587 24.838C57.6182 24.838 57.3494 24.9604 57.1523 25.2053C56.9552 25.4443 56.8566 25.74 56.8566 26.0924C56.8566 26.4508 56.9552 26.7525 57.1523 26.9974Z" fill="white"/>
<path d="M64.7706 27.7143C64.3525 28.1503 63.7969 28.3684 63.104 28.3684C62.4111 28.3684 61.8555 28.1503 61.4374 27.7143C61.0252 27.2722 60.8191 26.7316 60.8191 26.0924C60.8191 25.4532 61.0252 24.9156 61.4374 24.4795C61.8555 24.0435 62.4111 23.8254 63.104 23.8254C63.7969 23.8254 64.3525 24.0435 64.7706 24.4795C65.1888 24.9156 65.3979 25.4532 65.3979 26.0924C65.3979 26.7316 65.1888 27.2722 64.7706 27.7143ZM62.2976 26.9974C62.4947 27.2364 62.7635 27.3558 63.104 27.3558C63.4445 27.3558 63.7133 27.2364 63.9104 26.9974C64.1135 26.7525 64.2151 26.4508 64.2151 26.0924C64.2151 25.74 64.1135 25.4443 63.9104 25.2053C63.7133 24.9604 63.4445 24.838 63.104 24.838C62.7635 24.838 62.4947 24.9604 62.2976 25.2053C62.1004 25.4443 62.0019 25.74 62.0019 26.0924C62.0019 26.4508 62.1004 26.7525 62.2976 26.9974Z" fill="white"/>
<path d="M68.0163 30.0171C67.2696 30.0171 66.6483 29.802 66.1525 29.3719L66.6633 28.5476C66.9858 28.906 67.4368 29.0852 68.0163 29.0852C68.3389 29.0852 68.6166 28.9986 68.8496 28.8254C69.0886 28.6581 69.208 28.3803 69.208 27.992V27.553C68.8496 28.007 68.4046 28.234 67.8729 28.234C67.3114 28.234 66.8514 28.0428 66.493 27.6605C66.1406 27.2722 65.9643 26.7286 65.9643 26.0297C65.9643 25.3368 66.1406 24.7961 66.493 24.4079C66.8514 24.0196 67.3114 23.8254 67.8729 23.8254C68.4105 23.8254 68.8556 24.0464 69.208 24.4885V23.933H70.355V27.9652C70.355 28.3594 70.2833 28.6969 70.1399 28.9777C70.0025 29.2584 69.8144 29.4705 69.5754 29.6139C69.3365 29.7572 69.0886 29.8588 68.8317 29.9185C68.5808 29.9842 68.309 30.0171 68.0163 30.0171ZM68.2313 27.2214C68.4165 27.2214 68.6017 27.1736 68.7869 27.0781C68.9721 26.9825 69.1125 26.866 69.208 26.7286V25.3308C69.1125 25.1874 68.9721 25.0709 68.7869 24.9813C68.6077 24.8857 68.4225 24.838 68.2313 24.838C67.9028 24.838 67.637 24.9455 67.4339 25.1605C67.2367 25.3756 67.1382 25.6653 67.1382 26.0297C67.1382 26.3941 67.2367 26.6838 67.4339 26.8989C67.637 27.1139 67.9028 27.2214 68.2313 27.2214Z" fill="white"/>
<path d="M72.6216 28.2608H71.4836V22.2842H72.6216V28.2608Z" fill="white"/>
<path d="M75.784 28.3684C75.115 28.3684 74.5624 28.1593 74.1263 27.7411C73.6903 27.323 73.4722 26.7734 73.4722 26.0924C73.4722 25.4532 73.6813 24.9156 74.0995 24.4795C74.5236 24.0435 75.0612 23.8254 75.7123 23.8254C76.3575 23.8254 76.8802 24.0464 77.2804 24.4885C77.6806 24.9246 77.8808 25.498 77.8808 26.2089V26.4598H74.664C74.6998 26.7465 74.8282 26.9855 75.0493 27.1766C75.2703 27.3678 75.557 27.4634 75.9095 27.4634C76.1006 27.4634 76.3067 27.4245 76.5277 27.3469C76.7547 27.2692 76.9339 27.1647 77.0654 27.0333L77.5672 27.768C77.1311 28.1683 76.5367 28.3684 75.784 28.3684ZM76.7786 25.6892C76.7607 25.4443 76.6621 25.2233 76.4829 25.0261C76.3097 24.829 76.0528 24.7304 75.7123 24.7304C75.3898 24.7304 75.1389 24.829 74.9597 25.0261C74.7805 25.2173 74.6759 25.4383 74.646 25.6892H76.7786Z" fill="white"/>
<path d="M82.2946 28.2608H81.0222V22.2842H83.8179C84.4451 22.2842 84.935 22.4694 85.2874 22.8398C85.6458 23.2042 85.825 23.6611 85.825 24.2107C85.825 24.7543 85.6458 25.2113 85.2874 25.5817C84.929 25.952 84.4392 26.1372 83.8179 26.1372H82.2946V28.2608ZM83.6477 25.0172C83.9045 25.0172 84.1136 24.9455 84.2749 24.8021C84.4422 24.6528 84.5258 24.4556 84.5258 24.2107C84.5258 23.9658 84.4422 23.7717 84.2749 23.6283C84.1136 23.479 83.9045 23.4043 83.6477 23.4043H82.2946V25.0172H83.6477Z" fill="white"/>
<path d="M87.7249 28.2608H86.5869V22.2842H87.7249V28.2608Z" fill="white"/>
<path d="M92.5898 28.2608H91.4518V27.8128C91.1412 28.1832 90.6842 28.3684 90.0808 28.3684C89.6926 28.3684 89.3431 28.2429 89.0325 27.992C88.7278 27.7352 88.5755 27.3827 88.5755 26.9347C88.5755 26.4688 88.7248 26.1193 89.0235 25.8863C89.3282 25.6534 89.6806 25.5369 90.0808 25.5369C90.6961 25.5369 91.1531 25.7131 91.4518 26.0655V25.4831C91.4518 25.2621 91.3652 25.0859 91.1919 24.9544C91.0187 24.823 90.7887 24.7573 90.502 24.7573C90.0301 24.7573 89.6089 24.9276 89.2386 25.2681L88.8085 24.5064C89.3222 24.0524 89.9524 23.8254 90.6991 23.8254C91.2547 23.8254 91.7087 23.9539 92.0611 24.2107C92.4135 24.4676 92.5898 24.8857 92.5898 25.4652V28.2608ZM90.5378 27.5978C90.9619 27.5978 91.2666 27.4723 91.4518 27.2214V26.6838C91.2666 26.4329 90.9619 26.3075 90.5378 26.3075C90.3049 26.3075 90.1107 26.3672 89.9554 26.4867C89.8001 26.6002 89.7224 26.7585 89.7224 26.9616C89.7224 27.1587 89.8001 27.314 89.9554 27.4275C90.1107 27.541 90.3049 27.5978 90.5378 27.5978Z" fill="white"/>
<path d="M93.5662 29.9544L93.7364 28.9329C93.8439 28.9807 93.9634 29.0046 94.0948 29.0046C94.3995 29.0046 94.5996 28.9 94.6952 28.691L94.8565 28.3236L93.1002 23.933H94.3189L95.4479 26.9437L96.5769 23.933H97.8045L95.7704 28.9687C95.6211 29.351 95.412 29.6169 95.1432 29.7662C94.8744 29.9215 94.5369 30.0051 94.1307 30.0171C93.9216 30.0171 93.7334 29.9962 93.5662 29.9544Z" fill="white"/>
<path d="M15.1648 20.991C15.1648 18.4443 15.1646 15.8976 15.165 13.351C15.1651 10.9556 15.9899 10.4663 18.0518 11.6375C22.6433 14.2457 27.2349 16.8533 31.8263 19.4615C31.9 19.5034 31.9732 19.5466 32.0461 19.5899C33.4945 20.4488 33.51 21.5654 32.075 22.4148C30.8589 23.1346 29.6401 23.8503 28.4102 24.5462C24.8922 26.5364 21.3687 28.517 17.8451 30.4969C17.5508 30.6623 17.2493 30.8298 16.9308 30.9351C16.1608 31.1897 15.503 30.8383 15.3002 30.0573C15.2093 29.7071 15.1718 29.3338 15.1704 28.9708C15.1599 26.3107 15.1646 23.6509 15.1648 20.991ZM15.8238 12.1741C15.8238 18.1003 15.8238 23.9223 15.8238 29.6417C18.744 26.7428 21.6765 23.8315 24.5817 20.9473C21.7332 18.0939 18.837 15.1926 15.8238 12.1741ZM16.6146 11.4991C16.6039 11.538 16.593 11.5771 16.5823 11.616C19.492 14.5191 22.4016 17.4223 25.2276 20.2423C26.0026 19.4773 26.8434 18.6476 27.7188 17.7836C24.0324 15.6974 20.3235 13.5982 16.6146 11.4991ZM27.7189 24.2365C26.8291 23.3465 25.9986 22.516 25.2645 21.7818C22.3953 24.643 19.4959 27.5343 16.5964 30.4255C16.6063 30.458 16.6163 30.4903 16.6261 30.5227C20.3339 28.4215 24.0416 26.3204 27.7189 24.2365ZM25.6738 20.8427C26.7034 21.8646 27.6362 22.7908 28.5925 23.7399C29.663 23.1293 30.8302 22.4924 31.9671 21.8054C32.7314 21.3436 32.7727 20.7341 32.0549 20.2852C30.9771 19.6111 29.8597 18.999 28.7423 18.3913C28.6006 18.3144 28.2906 18.3497 28.1728 18.4577C27.3004 19.2572 26.4572 20.0882 25.6738 20.8427Z" fill="white"/>
</svg>
