<svg width="80" height="33" viewBox="0 0 80 33" fill="none" xmlns="http://www.w3.org/2000/svg">
<path d="M16.7383 12.2301L23.9114 16.3068L28.6929 0L16.7383 12.2301Z" fill="black"/>
<path d="M23.9114 16.3073L16.7383 20.384L28.6929 32.6137L23.9114 16.3073Z" fill="black"/>
<path d="M16.7383 20.3835L23.9115 16.3068L16.7383 12.2301V20.3835Z" fill="#666666"/>
<path d="M28.6919 32.6133L0 16.3069L16.7373 20.3836L28.6919 32.6133Z" fill="#666666"/>
<path d="M16.7373 12.2301L0 16.3068L28.6919 0L16.7373 12.2301Z" fill="#666666"/>
<path d="M28.6916 32.6133L23.9102 16.3068L28.6916 0V32.6133Z" fill="#666666"/>
<path d="M0 16.3068L16.7373 20.3835V12.2301L0 16.3068Z" fill="black"/>
<path d="M33.9137 14.5952L35.372 19.3066H36.494L37.9522 14.5952V19.3066H39.0369V13.3066H37.3916L35.933 17.9448L34.5121 13.3066H32.8295V19.3066H33.9137V14.5952ZM44.197 11.0612C44.3092 11.1716 44.4588 11.2449 44.6458 11.2449H46.5903C46.7399 11.2449 46.9269 11.1712 47.0391 11.0612L47.8245 10.288L47.2261 9.5885L46.5529 10.214C46.5155 10.2508 46.4781 10.2508 46.4033 10.2508H44.8698C44.8324 10.2508 44.795 10.2508 44.7576 10.214L44.384 9.84622C44.3466 9.8094 44.3466 9.77258 44.3466 9.73576V6.7908C44.3466 6.75398 44.3466 6.71716 44.384 6.68035L44.7576 6.31256C44.795 6.27575 44.8324 6.27575 44.8698 6.27575H46.2907C46.3655 6.27575 46.4029 6.27575 46.4403 6.31256L47.1135 6.93807L47.8241 6.20211L47.0387 5.42896C46.9265 5.31851 46.7395 5.24487 46.5899 5.24487H44.6454C44.4584 5.24487 44.3088 5.31851 44.1966 5.42896L43.4486 6.16491C43.299 6.31218 43.2242 6.45945 43.2242 6.60671V9.88265C43.2242 10.0299 43.299 10.1772 43.4486 10.3245L44.197 11.0612ZM42.5144 22.2884L41.7667 21.5521C41.6545 21.4416 41.5049 21.368 41.3179 21.368H39.0369C38.8873 21.368 38.7377 21.4416 38.5881 21.5521L37.84 22.2884C37.7278 22.4357 37.6534 22.5829 37.6534 22.7302V26.0061C37.6534 26.1534 37.7282 26.3007 37.84 26.4476L38.5881 27.1839C38.7377 27.2943 38.8873 27.368 39.0369 27.368H41.3179C41.5049 27.368 41.6545 27.2943 41.7667 27.1839L42.5144 26.4476C42.664 26.3003 42.7388 26.153 42.7388 26.0061V22.7306C42.7388 22.5829 42.664 22.4357 42.5144 22.2884ZM41.5797 25.8224C41.5797 25.8593 41.5797 25.8957 41.5423 25.9325L41.1687 26.3007C41.1313 26.3379 41.0939 26.3379 41.0565 26.3379H39.3361C39.2613 26.3379 39.2239 26.3379 39.1865 26.3007L38.8499 25.9325C38.8125 25.8957 38.7751 25.8593 38.7751 25.8224V22.9139C38.7751 22.8771 38.8125 22.8407 38.8499 22.8038L39.1865 22.4357C39.2239 22.3985 39.2613 22.3985 39.3361 22.3985H41.0565C41.0939 22.3985 41.1313 22.3985 41.1687 22.4357L41.5423 22.8038C41.5797 22.8407 41.5797 22.8771 41.5797 22.9139V25.8224ZM51.1524 27.3684H52.2367V22.3985H54.8169V27.3684H55.9016V21.368H51.1524V27.3684ZM61.5479 22.2884L60.7999 21.5521C60.6503 21.4416 60.5007 21.368 60.3515 21.368H58.3696C58.2196 21.368 58.0704 21.4416 57.9208 21.5521L57.1728 22.2884C57.061 22.4357 56.9862 22.5829 56.9862 22.7302V27.3684H58.0708V25.5275H60.6507V27.3684H61.7353V22.7306C61.7353 22.5829 61.6605 22.4357 61.5479 22.2884ZM60.6507 24.5707H58.0708V22.9139C58.0708 22.8771 58.1082 22.8407 58.1452 22.8038L58.4814 22.4357C58.5192 22.3985 58.5562 22.3985 58.6314 22.3985H60.0897C60.1645 22.3985 60.2019 22.3985 60.2393 22.4357L60.5755 22.8038C60.6133 22.8407 60.6503 22.8771 60.6503 22.9139V24.5707H60.6507ZM55.3031 15.773H52.6855V13.3066H51.6012V19.3066H52.6855V16.8038H55.3031V19.3066H56.3874V13.3066H55.3031V15.773ZM69.8871 26.0065V21.368H68.8029V27.3684H70.2985L72.4674 22.7302V27.3684H73.5517V21.368H72.0556L69.8871 26.0065ZM62.0345 14.227L61.2865 13.4911C61.1743 13.3806 61.0247 13.307 60.8377 13.307H58.8936C58.7066 13.307 58.557 13.3806 58.4448 13.4911L57.6968 14.227C57.5476 14.3743 57.4728 14.5216 57.4728 14.6688V19.3066H58.557V17.4662H61.1373V19.3066H62.2215V14.6688C62.2211 14.5216 62.1837 14.3739 62.0345 14.227ZM61.1369 16.5089H58.5566V14.8525C58.5566 14.8157 58.5566 14.7789 58.5944 14.7421L58.968 14.3739C59.0054 14.3371 59.0428 14.3371 59.0802 14.3371H60.6137C60.6511 14.3371 60.6885 14.3371 60.7259 14.3739L61.0995 14.7421C61.1373 14.7789 61.1373 14.8157 61.1373 14.8525V16.5089H61.1369ZM37.2416 6.01803L36.6432 5.42896C36.531 5.31851 36.3814 5.24487 36.2318 5.24487H32.8291V11.2449H33.9133V9.22033H36.2322C36.3818 9.22033 36.5314 9.14669 36.6436 9.03624L37.242 8.44717C37.3916 8.29991 37.4664 8.18946 37.4664 8.00537V6.45945C37.466 6.27575 37.3916 6.12848 37.2416 6.01803ZM39.4105 8.96299C39.5227 9.14708 39.7097 9.14708 39.7471 9.14708H39.8967L38.8121 11.2453H40.0089L43.0006 5.24526H41.8038L40.4203 8.11659H40.3081C40.2333 8.11659 40.1959 8.04296 40.1585 7.96932L38.9621 5.24526H37.6156L39.4105 8.96299ZM50.143 18.2757V13.3066H47.0021C46.8151 13.3066 46.6655 13.3803 46.5533 13.4907L45.8056 14.2267C45.656 14.3739 45.6186 14.5212 45.6186 14.6685V18.2757H44.908V19.3066H50.7788V18.2757H50.143ZM46.7025 18.2757V14.8894C46.7025 14.8525 46.7025 14.8157 46.7399 14.7789L47.1887 14.3371C47.2261 14.3003 47.2635 14.3003 47.3009 14.3003H49.0584V18.2757H46.7025ZM41.1683 14.5952L41.3927 14.3743C41.4301 14.3375 41.4675 14.3375 41.5049 14.3375H44.1596V13.3066H41.2801C41.1305 13.3066 40.9809 13.3803 40.8687 13.4907L40.2703 14.0798C40.1207 14.1902 40.0459 14.3375 40.0459 14.5216V18.092C40.0459 18.2757 40.1207 18.4234 40.2703 18.5335L40.8687 19.1225C40.9809 19.233 41.1305 19.3062 41.2801 19.3062H44.1596V18.2754H41.5049C41.4675 18.2754 41.4301 18.2754 41.3927 18.2385L41.1683 18.0176C41.1309 17.9808 41.1309 17.9444 41.1309 17.9076V16.767H44.1596V15.773H41.1309V14.7053C41.1309 14.6688 41.1309 14.6316 41.1683 14.5952ZM66.5215 23.8343H63.9038V21.3676H62.8195V27.368H63.9038V24.8648H66.5215V27.368H67.6057V21.368H66.5215V23.8343ZM33.9137 6.27575H35.9704C36.0452 6.27575 36.0826 6.27575 36.12 6.31256L36.3444 6.53346C36.3818 6.57028 36.3818 6.6071 36.3818 6.64391V7.82167C36.3818 7.85849 36.3818 7.8953 36.3444 7.93212L36.12 8.15302C36.0826 8.18984 36.0452 8.18984 35.9704 8.18984H33.9137V6.27575ZM33.9137 24.9384H34.2503C34.3251 24.9384 34.3625 24.9753 34.3999 25.0121L36.1574 27.3684H37.6156L35.2972 24.3866L37.5034 21.368H36.1574L34.4747 23.7243C34.3625 23.8715 34.3251 23.9448 34.2503 23.9448H33.9137V21.368H32.8295V27.3684H33.9137V24.9384ZM75.8701 21.368C75.7205 21.368 75.5709 21.4416 75.4587 21.5521L74.8229 22.1407C74.7107 22.2516 74.6359 22.3985 74.6359 22.5826V24.1285C74.6359 24.3126 74.7107 24.423 74.8229 24.5703L75.4587 25.159C75.5709 25.2694 75.6827 25.3431 75.8327 25.3431H75.9823L74.3741 27.3676H75.6457L77.1417 25.4163C77.1791 25.3795 77.2162 25.3431 77.2913 25.3431H78.1138V27.3676H79.1984V21.368H75.8701ZM78.1138 24.4234H76.1693C76.0949 24.4234 76.0575 24.4234 76.0197 24.3866L75.7579 24.1289C75.7205 24.092 75.7205 24.0556 75.7205 24.0188V22.767C75.7205 22.7302 75.7205 22.6934 75.7579 22.6562L75.9823 22.4357C76.0197 22.3985 76.0571 22.3985 76.1319 22.3985H78.1138V24.4234ZM44.8328 22.6562L46.2911 27.3684H47.4127L48.8714 22.6562V27.3684H49.9556V21.368H48.3103L46.8521 26.0065L45.4313 21.368H43.7486V27.3684H44.8332V22.6562H44.8328ZM63.4928 6.1653L62.7447 5.42934C62.6325 5.31889 62.4829 5.24526 62.2963 5.24526H60.3519C60.1653 5.24526 60.0153 5.31889 59.9034 5.42934L59.1554 6.1653C59.0054 6.31256 58.931 6.45983 58.931 6.6071V11.2453H60.0153V9.4048H62.5955V11.2453H63.6798V6.6071C63.6794 6.45983 63.642 6.31256 63.4928 6.1653ZM62.5951 8.44756H60.0149V6.79118C60.0149 6.75437 60.0149 6.71755 60.0523 6.68073L60.4267 6.31295C60.4641 6.27613 60.5011 6.27613 60.5385 6.27613H62.0719C62.1093 6.27613 62.1463 6.27613 62.1841 6.31295L62.5581 6.68073C62.5955 6.71755 62.5955 6.75437 62.5955 6.79118V8.44756H62.5951ZM64.4274 13.3066C64.2778 13.3066 64.1282 13.3803 64.016 13.4907L63.3802 14.0798C63.268 14.1902 63.1932 14.3375 63.1932 14.5216V16.0675C63.1932 16.2512 63.268 16.362 63.3802 16.5089L64.016 17.0984C64.1282 17.2084 64.2404 17.2821 64.39 17.2821H64.5396L62.9314 19.3062H64.203L65.699 17.3557C65.7364 17.3185 65.7734 17.2821 65.8486 17.2821H66.6714V19.3062H67.7557V13.3066H64.4274ZM66.6714 16.362H64.7266C64.6522 16.362 64.6148 16.362 64.5774 16.3252L64.3156 16.0675C64.2778 16.0307 64.2778 15.9939 64.2778 15.9571V14.7053C64.2778 14.6685 64.2778 14.6316 64.3156 14.5948L64.5396 14.3739C64.5774 14.3371 64.6144 14.3371 64.6892 14.3371H66.6714V16.362ZM65.886 5.24526C65.736 5.24526 65.5864 5.31889 65.4742 5.42934L64.8388 6.01841C64.7262 6.12886 64.6518 6.27613 64.6518 6.46021V8.00614C64.6518 8.19022 64.7262 8.30067 64.8388 8.44794L65.4742 9.03701C65.5864 9.14746 65.6986 9.2211 65.8482 9.2211H65.9978L64.39 11.2456H65.6616L67.1573 9.29473C67.1951 9.25791 67.2321 9.2211 67.3069 9.2211H68.1293V11.2456H69.2139V5.24526H65.886ZM68.1293 8.30067H66.1852C66.1104 8.30067 66.073 8.30067 66.0352 8.26386L65.7734 8.00614C65.736 7.96932 65.736 7.9325 65.736 7.89569V6.6443C65.736 6.60748 65.736 6.57066 65.7734 6.53385L65.9978 6.31295C66.0352 6.27613 66.0726 6.27613 66.1478 6.27613H68.1293V8.30067ZM54.8169 8.81573H55.1535C55.2283 8.81573 55.2657 8.85254 55.3031 8.88936L57.061 11.2453H58.5192L56.2008 8.26386L58.407 5.24526H57.061L55.3783 7.60115C55.2661 7.74842 55.2287 7.82205 55.1539 7.82205H54.8173V5.24526H53.7331V11.2453H54.8173V8.81573H54.8169ZM49.4324 11.0612C49.5446 11.1716 49.6942 11.2449 49.8812 11.2449H51.8256C51.9748 11.2449 52.1622 11.1712 52.2744 11.0612L53.0599 10.288L52.4614 9.5885L51.7882 10.214C51.7508 10.2508 51.7134 10.2508 51.6386 10.2508H50.1056C50.0682 10.2508 50.0308 10.2508 49.9934 10.214L49.6194 9.84622C49.582 9.8094 49.582 9.77258 49.582 9.73576V6.7908C49.582 6.75398 49.582 6.71716 49.6194 6.68035L49.9934 6.31256C50.0308 6.27575 50.0682 6.27575 50.1056 6.27575H51.5264C51.6012 6.27575 51.6386 6.27575 51.676 6.31256L52.3492 6.93807L53.0595 6.20211L52.2741 5.42896C52.1618 5.31851 51.9745 5.24487 51.8252 5.24487H49.8808C49.6938 5.24487 49.5442 5.31851 49.432 5.42896L48.6843 6.16491C48.5347 6.31218 48.4599 6.45945 48.4599 6.60671V9.88265C48.4599 10.0299 48.5347 10.1772 48.6843 10.3245L49.4324 11.0612Z" fill="#666666"/>
</svg>
