<svg width="33" height="32" viewBox="0 0 33 32" fill="none" xmlns="http://www.w3.org/2000/svg">
<path fill-rule="evenodd" clip-rule="evenodd" d="M0.40918 16C0.40918 7.16923 7.57841 0 16.4092 0C25.24 0 32.4092 7.16923 32.4092 16C32.4092 24.8308 25.24 32 16.4092 32C7.57841 32 0.40918 24.8308 0.40918 16ZM22.8632 24.4143C23.2368 24.3154 23.6127 24.2158 23.9938 24.1231C23.9938 22.8489 24.004 21.5951 24.0141 20.356C24.0368 17.5703 24.0589 14.8584 23.963 12.1538C23.8553 9.12308 22.1323 7.38462 19.1784 6.93846C16.1323 6.47692 13.163 6.84615 10.2553 7.84615C10.1638 7.88277 10.0777 7.93573 9.98084 7.99531C9.91492 8.03585 9.84402 8.07946 9.76303 8.12308C9.8215 8.31444 9.87263 8.50213 9.92275 8.68615C10.0177 9.03472 10.1091 9.3701 10.2399 9.69231C10.7169 10.8462 11.3015 11.2308 12.5476 11.1846C13.0351 11.1724 13.5226 11.0927 14.0025 11.0141C14.1284 10.9935 14.2537 10.973 14.3784 10.9538C15.4707 10.8 16.563 10.6462 17.6399 11.0154C18.6553 11.3692 19.1169 12.2 18.8246 13.3077C18.0246 13.3846 17.1938 13.4769 16.363 13.5692C14.7784 13.7538 13.2399 14.0769 11.7784 14.7692C8.82456 16.1538 8.25533 19.0308 9.23995 21.6462C9.96303 23.5846 11.6553 24.4308 13.5476 24.8615C15.9015 25.4154 18.2707 25.3385 20.6399 24.9385C21.3871 24.8054 22.1207 24.6111 22.8632 24.4143ZM18.9327 21.2463V16.8156C17.7481 16.6002 15.825 16.8771 14.9327 17.354C13.5019 18.1232 13.3481 20.1386 14.7019 20.954C16.0404 21.7694 17.4712 21.6771 18.9327 21.2463Z" fill="#666666"/>
</svg>
