<svg width="16" height="12" viewBox="0 0 16 12" fill="none" xmlns="http://www.w3.org/2000/svg">
<path d="M15.6758 2.05786C15.793 2.5852 15.9102 3.40552 15.9688 4.4602L15.998 5.92505L15.9688 7.38989C15.9102 8.50317 15.793 9.29419 15.6758 9.82153C15.5586 10.1731 15.3828 10.4661 15.1484 10.7004C14.8848 10.9641 14.5918 11.1399 14.2402 11.2278C13.7129 11.3743 12.541 11.4622 10.666 11.5208L8 11.55L5.33398 11.5208C3.45898 11.4622 2.25781 11.3743 1.75977 11.2278C1.4082 11.1399 1.08594 10.9641 0.851562 10.7004C0.587891 10.4661 0.412109 10.1731 0.324219 9.82153C0.177734 9.29419 0.0898438 8.50317 0.03125 7.38989L0.00195312 5.92505C0.00195312 5.51489 0.00195312 5.01684 0.03125 4.4602C0.0898438 3.40552 0.177734 2.5852 0.324219 2.05786C0.412109 1.7063 0.587891 1.41333 0.851562 1.14966C1.08594 0.915283 1.4082 0.739502 1.75977 0.622314C2.25781 0.505127 3.45898 0.387939 5.33398 0.329346L8 0.300049L10.666 0.329346C12.541 0.387939 13.7129 0.505127 14.2402 0.622314C14.5918 0.739502 14.8848 0.915283 15.1484 1.14966C15.3828 1.41333 15.5586 1.7063 15.6758 2.05786ZM6.35938 8.32739L10.5488 5.92505L6.35938 3.552V8.32739Z" fill="white"/>
</svg>
