<svg width="16" height="13" viewBox="0 0 16 13" fill="none" xmlns="http://www.w3.org/2000/svg">
<path d="M14.3438 3.25C14.9688 2.78125 15.5312 2.21875 16 1.53125C15.375 1.8125 14.75 2 14.125 2.0625C14.8125 1.625 15.3125 1.03125 15.5625 0.25C14.9062 0.625 14.2188 0.90625 13.4688 1.03125C13.1562 0.71875 12.7812 0.46875 12.375 0.28125C11.9688 0.09375 11.5312 0 11.0625 0C10.4688 0 9.9375 0.15625 9.4375 0.4375C8.9375 0.75 8.53125 1.15625 8.25 1.65625C7.9375 2.15625 7.8125 2.71875 7.8125 3.28125C7.8125 3.53125 7.8125 3.78125 7.875 4.03125C6.53125 3.96875 5.28125 3.65625 4.09375 3.03125C2.90625 2.4375 1.9375 1.625 1.125 0.59375C0.8125 1.125 0.65625 1.6875 0.65625 2.25C0.65625 2.8125 0.78125 3.34375 1.0625 3.8125C1.3125 4.3125 1.6875 4.6875 2.125 5C1.59375 5 1.09375 4.84375 0.65625 4.5625V4.625C0.65625 5.40625 0.90625 6.09375 1.40625 6.6875C1.90625 7.3125 2.53125 7.6875 3.28125 7.84375C2.96875 7.90625 2.6875 7.9375 2.40625 7.9375C2.21875 7.9375 2 7.9375 1.8125 7.90625C2 8.5625 2.375 9.09375 2.9375 9.53125C3.5 9.96875 4.125 10.1562 4.875 10.1562C3.65625 11.0938 2.28125 11.5625 0.78125 11.5625C0.46875 11.5625 0.21875 11.5625 0 11.5312C1.5 12.5312 3.1875 13 5.03125 13C6.9375 13 8.625 12.5312 10.125 11.5312C11.4688 10.6562 12.5312 9.5 13.2812 8C14 6.625 14.375 5.15625 14.375 3.65625C14.375 3.46875 14.3438 3.34375 14.3438 3.25Z" fill="white"/>
</svg>
