<svg width="16" height="11" viewBox="0 0 16 11" fill="none" xmlns="http://www.w3.org/2000/svg">
<path d="M15.5293 1.33203C15.4707 1.625 15.2363 2.12305 14.8262 2.79688C14.5332 3.29492 14.1816 3.85156 13.7715 4.49609C13.4199 5.02344 13.2148 5.28711 13.2148 5.28711C13.0977 5.46289 13.0391 5.60938 13.0391 5.69727C13.0391 5.81445 13.0977 5.93164 13.2148 6.04883L13.4785 6.3418C14.8848 7.80664 15.6758 8.80273 15.8516 9.33008C15.9102 9.56445 15.8809 9.76953 15.7637 9.88672C15.6465 10.0039 15.5 10.0625 15.2656 10.0625H13.5371C13.3027 10.0625 13.127 10.0039 12.9512 9.85742C12.834 9.79883 12.5996 9.59375 12.3066 9.24219C12.0137 8.89062 11.75 8.59766 11.5156 8.36328C10.7246 7.63086 10.1387 7.25 9.78711 7.25C9.61133 7.25 9.49414 7.2793 9.43555 7.33789C9.37695 7.39648 9.34766 7.54297 9.34766 7.71875C9.31836 7.86523 9.31836 8.1582 9.31836 8.62695V9.38867C9.31836 9.62305 9.25977 9.79883 9.14258 9.88672C8.9668 10.0039 8.61523 10.0625 8.08789 10.0625C7.15039 10.0625 6.24219 9.79883 5.30469 9.24219C4.36719 8.71484 3.54688 7.92383 2.84375 6.89844C2.16992 6.01953 1.61328 5.11133 1.17383 4.17383C0.822266 3.4707 0.529297 2.82617 0.324219 2.21094C0.177734 1.74219 0.119141 1.39062 0.119141 1.18555C0.119141 0.863281 0.294922 0.6875 0.705078 0.6875H2.43359C2.63867 0.6875 2.78516 0.746094 2.90234 0.833984C3.01953 0.951172 3.10742 1.12695 3.19531 1.36133C3.45898 2.15234 3.78125 2.91406 4.19141 3.64648C4.54297 4.34961 4.89453 4.90625 5.24609 5.31641C5.59766 5.75586 5.86133 5.96094 6.06641 5.96094C6.18359 5.96094 6.24219 5.93164 6.30078 5.84375C6.35938 5.75586 6.38867 5.58008 6.38867 5.31641V2.76758C6.35938 2.47461 6.30078 2.18164 6.18359 1.94727C6.125 1.83008 6.00781 1.68359 5.89062 1.50781C5.74414 1.33203 5.68555 1.21484 5.68555 1.09766C5.68555 0.980469 5.71484 0.892578 5.80273 0.804688C5.89062 0.746094 6.00781 0.6875 6.125 0.6875H8.84961C9.02539 0.6875 9.14258 0.746094 9.20117 0.833984C9.25977 0.951172 9.31836 1.09766 9.31836 1.33203V4.73047C9.31836 4.90625 9.34766 5.05273 9.40625 5.11133C9.46484 5.19922 9.52344 5.22852 9.61133 5.22852C9.69922 5.22852 9.81641 5.19922 9.93359 5.14062C10.0508 5.08203 10.1973 4.93555 10.4023 4.70117C10.7539 4.29102 11.1348 3.79297 11.5156 3.17773C11.75 2.76758 12.0137 2.29883 12.248 1.77148L12.541 1.18555C12.6582 0.863281 12.9219 0.6875 13.2734 0.6875H15.002C15.4707 0.6875 15.6465 0.921875 15.5293 1.33203Z" fill="white"/>
</svg>
