<svg width="37" height="37" viewBox="0 0 37 37" fill="none" xmlns="http://www.w3.org/2000/svg">
<path fill-rule="evenodd" clip-rule="evenodd" d="M0.341797 18.4998C0.341797 8.59964 8.37918 0.562256 18.2793 0.562256C28.1794 0.562256 36.2168 8.59964 36.2168 18.4998C36.2168 28.3999 28.1794 36.4373 18.2793 36.4373C8.37918 36.4373 0.341797 28.3999 0.341797 18.4998ZM25.5149 27.933C25.9337 27.8221 26.3552 27.7104 26.7824 27.6065C26.7824 26.178 26.7938 24.7724 26.8051 23.3832C26.8305 20.2603 26.8553 17.2199 26.7479 14.1879C26.6271 10.7901 24.6954 8.8411 21.3839 8.34092C17.9688 7.82349 14.6401 8.23744 11.3803 9.35853C11.2776 9.39958 11.1811 9.45895 11.0725 9.52574C10.9986 9.5712 10.9191 9.62009 10.8283 9.66899C10.8939 9.88352 10.9512 10.0939 11.0074 10.3002C11.1138 10.691 11.2163 11.067 11.363 11.4282C11.8977 12.7218 12.5531 13.153 13.9502 13.1013C14.4967 13.0876 15.0432 12.9982 15.5812 12.9101C15.7223 12.887 15.8628 12.864 16.0026 12.8425C17.2272 12.6701 18.4518 12.4976 19.6591 12.9115C20.7974 13.3082 21.3149 14.2396 20.9872 15.4814C20.0903 15.5677 19.1589 15.6712 18.2276 15.7746C16.4511 15.9816 14.7263 16.3438 13.0878 17.1199C9.77623 18.6722 9.13807 21.8975 10.2419 24.8296C11.0526 27.0028 12.9498 27.9514 15.0712 28.4344C17.7101 29.0553 20.3663 28.969 23.0224 28.5206C23.86 28.3714 24.6824 28.1536 25.5149 27.933ZM21.108 24.3813V19.414C19.78 19.1726 17.624 19.483 16.6236 20.0177C15.0196 20.8801 14.8471 23.1395 16.3649 24.0536C17.8655 24.9677 19.4695 24.8643 21.108 24.3813Z" fill="#666666"/>
</svg>
