<svg width="80" height="34" viewBox="0 0 80 34" fill="none" xmlns="http://www.w3.org/2000/svg">
<g clip-path="url(#clip0)">
<path d="M16.7383 12.8893L23.9114 16.966L28.6929 0.65918L16.7383 12.8893Z" fill="black"/>
<path d="M23.9114 16.9664L16.7383 21.0431L28.6929 33.2729L23.9114 16.9664Z" fill="black"/>
<path d="M16.7383 21.0427L23.9115 16.966L16.7383 12.8893V21.0427Z" fill="#666666"/>
<path d="M28.6919 33.2725L0 16.9661L16.7373 21.0428L28.6919 33.2725Z" fill="#666666"/>
<path d="M16.7373 12.8893L0 16.966L28.6919 0.65918L16.7373 12.8893Z" fill="#666666"/>
<path d="M28.6916 33.2724L23.9102 16.966L28.6916 0.65918V33.2724Z" fill="#666666"/>
<path d="M0 16.966L16.7373 21.0427V12.8893L0 16.966Z" fill="black"/>
<path d="M33.9128 15.2544L35.371 19.9658H36.493L37.9513 15.2544V19.9658H39.0359V13.9658H37.3906L35.932 18.604L34.5112 13.9658H32.8285V19.9658H33.9128V15.2544ZM44.196 11.7204C44.3082 11.8308 44.4579 11.9041 44.6449 11.9041H46.5893C46.7389 11.9041 46.9259 11.8304 47.0381 11.7204L47.8235 10.9472L47.2251 10.2477L46.5519 10.8732C46.5145 10.91 46.4771 10.91 46.4023 10.91H44.8689C44.8315 10.91 44.7941 10.91 44.7567 10.8732L44.3831 10.5054C44.3457 10.4686 44.3457 10.4318 44.3457 10.3949V7.44998C44.3457 7.41316 44.3457 7.37634 44.3831 7.33953L44.7567 6.97174C44.7941 6.93492 44.8315 6.93493 44.8689 6.93493H46.2897C46.3645 6.93493 46.4019 6.93492 46.4393 6.97174L47.1125 7.59725L47.8232 6.86129L47.0377 6.08814C46.9255 5.97769 46.7385 5.90405 46.5889 5.90405H44.6445C44.4575 5.90405 44.3079 5.97769 44.1957 6.08814L43.4476 6.82409C43.298 6.97136 43.2232 7.11863 43.2232 7.26589V10.5418C43.2232 10.6891 43.298 10.8364 43.4476 10.9836L44.196 11.7204ZM42.5134 22.9476L41.7658 22.2112C41.6536 22.1008 41.504 22.0272 41.317 22.0272H39.0359C38.8863 22.0272 38.7367 22.1008 38.5871 22.2112L37.8391 22.9476C37.7269 23.0948 37.6525 23.2421 37.6525 23.3894V26.6653C37.6525 26.8126 37.7273 26.9599 37.8391 27.1067L38.5871 27.8431C38.7367 27.9535 38.8863 28.0272 39.0359 28.0272H41.317C41.504 28.0272 41.6536 27.9535 41.7658 27.8431L42.5134 27.1067C42.663 26.9595 42.7378 26.8122 42.7378 26.6653V23.3898C42.7378 23.2421 42.663 23.0948 42.5134 22.9476ZM41.5788 26.4816C41.5788 26.5184 41.5788 26.5549 41.5414 26.5917L41.1677 26.9599C41.1303 26.9971 41.0929 26.9971 41.0555 26.9971H39.3351C39.2603 26.9971 39.2229 26.9971 39.1855 26.9599L38.8489 26.5917C38.8115 26.5549 38.7741 26.5184 38.7741 26.4816V23.5731C38.7741 23.5363 38.8115 23.4998 38.8489 23.463L39.1855 23.0948C39.2229 23.0576 39.2603 23.0576 39.3351 23.0576H41.0555C41.0929 23.0576 41.1303 23.0576 41.1677 23.0948L41.5414 23.463C41.5788 23.4998 41.5788 23.5363 41.5788 23.5731V26.4816ZM51.1514 28.0275H52.2357V23.0576H54.816V28.0275H55.9006V22.0272H51.1514V28.0275ZM61.5469 22.9476L60.7989 22.2112C60.6493 22.1008 60.4997 22.0272 60.3505 22.0272H58.3686C58.2187 22.0272 58.0694 22.1008 57.9198 22.2112L57.1718 22.9476C57.06 23.0948 56.9852 23.2421 56.9852 23.3894V28.0275H58.0698V26.1867H60.6497V28.0275H61.7343V23.3898C61.7343 23.2421 61.6595 23.0948 61.5469 22.9476ZM60.6497 25.2298H58.0698V23.5731C58.0698 23.5363 58.1072 23.4998 58.1442 23.463L58.4805 23.0948C58.5182 23.0576 58.5553 23.0576 58.6304 23.0576H60.0887C60.1635 23.0576 60.2009 23.0576 60.2383 23.0948L60.5745 23.463C60.6123 23.4998 60.6493 23.5363 60.6493 23.5731V25.2298H60.6497ZM55.3022 16.4321H52.6845V13.9658H51.6003V19.9658H52.6845V17.463H55.3022V19.9658H56.3864V13.9658H55.3022V16.4321ZM69.8862 26.6657V22.0272H68.8019V28.0275H70.2976L72.4664 23.3894V28.0275H73.5507V22.0272H72.0546L69.8862 26.6657ZM62.0335 14.8862L61.2855 14.1503C61.1733 14.0398 61.0237 13.9662 60.8367 13.9662H58.8926C58.7056 13.9662 58.556 14.0398 58.4438 14.1503L57.6958 14.8862C57.5466 15.0335 57.4718 15.1808 57.4718 15.328V19.9658H58.556V18.1253H61.1363V19.9658H62.2205V15.328C62.2202 15.1808 62.1828 15.0331 62.0335 14.8862ZM61.1359 17.1681H58.5556V15.5117C58.5556 15.4749 58.5556 15.4381 58.5934 15.4013L58.9671 15.0331C59.0045 14.9963 59.0419 14.9963 59.0793 14.9963H60.6127C60.6501 14.9963 60.6875 14.9963 60.7249 15.0331L61.0985 15.4013C61.1363 15.4381 61.1363 15.4749 61.1363 15.5117V17.1681H61.1359ZM37.2407 6.67721L36.6422 6.08814C36.53 5.97769 36.3804 5.90405 36.2308 5.90405H32.8281V11.9041H33.9124V9.87951H36.2312C36.3808 9.87951 36.5304 9.80587 36.6426 9.69542L37.241 9.10635C37.3906 8.95909 37.4654 8.84864 37.4654 8.66455V7.11863C37.4651 6.93493 37.3906 6.78766 37.2407 6.67721ZM39.4095 9.62217C39.5217 9.80626 39.7087 9.80626 39.7461 9.80626H39.8957L38.8111 11.9044H40.0079L42.9996 5.90444H41.8028L40.4193 8.77577H40.3071C40.2323 8.77577 40.1949 8.70214 40.1575 8.6285L38.9611 5.90444H37.6147L39.4095 9.62217ZM50.142 18.9349V13.9658H47.0011C46.8141 13.9658 46.6645 14.0394 46.5523 14.1499L45.8047 14.8858C45.6551 15.0331 45.6177 15.1804 45.6177 15.3276V18.9349H44.9071V19.9658H50.7778V18.9349H50.142ZM46.7015 18.9349V15.5485C46.7015 15.5117 46.7015 15.4749 46.7389 15.4381L47.1877 14.9963C47.2251 14.9595 47.2625 14.9595 47.2999 14.9595H49.0574V18.9349H46.7015ZM41.1674 15.2544L41.3918 15.0335C41.4292 14.9967 41.4666 14.9967 41.504 14.9967H44.1586V13.9658H41.2792C41.1296 13.9658 40.98 14.0394 40.8678 14.1499L40.2693 14.739C40.1197 14.8494 40.0449 14.9967 40.0449 15.1808V18.7512C40.0449 18.9349 40.1197 19.0826 40.2693 19.1926L40.8678 19.7817C40.98 19.8922 41.1296 19.9654 41.2792 19.9654H44.1586V18.9345H41.504C41.4666 18.9345 41.4292 18.9345 41.3918 18.8977L41.1674 18.6768C41.13 18.64 41.13 18.6036 41.13 18.5668V17.4262H44.1586V16.4321H41.13V15.3645C41.13 15.328 41.13 15.2908 41.1674 15.2544ZM66.5205 24.4935H63.9028V22.0268H62.8186V28.0272H63.9028V25.524H66.5205V28.0272H67.6047V22.0272H66.5205V24.4935ZM33.9128 6.93493H35.9694C36.0442 6.93493 36.0816 6.93492 36.119 6.97174L36.3434 7.19264C36.3808 7.22946 36.3808 7.26628 36.3808 7.30309V8.48085C36.3808 8.51767 36.3808 8.55448 36.3434 8.5913L36.119 8.8122C36.0816 8.84902 36.0442 8.84902 35.9694 8.84902H33.9128V6.93493ZM33.9128 25.5976H34.2494C34.3242 25.5976 34.3616 25.6344 34.399 25.6713L36.1564 28.0275H37.6147L35.2962 25.0458L37.5025 22.0272H36.1564L34.4738 24.3834C34.3616 24.5307 34.3242 24.604 34.2494 24.604H33.9128V22.0272H32.8285V28.0275H33.9128V25.5976ZM75.8691 22.0272C75.7195 22.0272 75.5699 22.1008 75.4577 22.2112L74.8219 22.7999C74.7097 22.9108 74.6349 23.0576 74.6349 23.2417V24.7877C74.6349 24.9717 74.7097 25.0822 74.8219 25.2295L75.4577 25.8181C75.5699 25.9286 75.6817 26.0022 75.8317 26.0022H75.9813L74.3731 28.0268H75.6447L77.1408 26.0755C77.1782 26.0387 77.2152 26.0022 77.2904 26.0022H78.1128V28.0268H79.1974V22.0272H75.8691ZM78.1128 25.0826H76.1683C76.0939 25.0826 76.0565 25.0826 76.0187 25.0458L75.7569 24.788C75.7195 24.7512 75.7195 24.7148 75.7195 24.678V23.4262C75.7195 23.3894 75.7195 23.3526 75.7569 23.3154L75.9813 23.0948C76.0187 23.0576 76.0561 23.0576 76.1309 23.0576H78.1128V25.0826ZM44.8319 23.3154L46.2901 28.0275H47.4117L48.8704 23.3154V28.0275H49.9546V22.0272H48.3094L46.8511 26.6657L45.4303 22.0272H43.7476V28.0275H44.8323V23.3154H44.8319ZM63.4918 6.82447L62.7438 6.08852C62.6316 5.97807 62.482 5.90444 62.2953 5.90444H60.3509C60.1643 5.90444 60.0143 5.97807 59.9025 6.08852L59.1545 6.82447C59.0045 6.97174 58.93 7.11901 58.93 7.26628V11.9044H60.0143V10.064H62.5946V11.9044H63.6788V7.26628C63.6784 7.11901 63.641 6.97174 63.4918 6.82447ZM62.5942 9.10674H60.0139V7.45036C60.0139 7.41354 60.0139 7.37673 60.0513 7.33991L60.4257 6.97213C60.4631 6.93531 60.5001 6.93531 60.5375 6.93531H62.0709C62.1083 6.93531 62.1454 6.93531 62.1831 6.97213L62.5572 7.33991C62.5946 7.37673 62.5946 7.41354 62.5946 7.45036V9.10674H62.5942ZM64.4264 13.9658C64.2768 13.9658 64.1272 14.0394 64.015 14.1499L63.3792 14.739C63.267 14.8494 63.1922 14.9967 63.1922 15.1808V16.7267C63.1922 16.9104 63.267 17.0212 63.3792 17.1681L64.015 17.7576C64.1272 17.8676 64.2394 17.9413 64.389 17.9413H64.5386L62.9304 19.9654H64.202L65.698 18.0149C65.7354 17.9777 65.7725 17.9413 65.8476 17.9413H66.6705V19.9654H67.7547V13.9658H64.4264ZM66.6705 17.0212H64.7256C64.6512 17.0212 64.6138 17.0212 64.5764 16.9844L64.3146 16.7267C64.2768 16.6899 64.2768 16.653 64.2768 16.6162V15.3645C64.2768 15.3276 64.2768 15.2908 64.3146 15.254L64.5386 15.0331C64.5764 14.9963 64.6134 14.9963 64.6882 14.9963H66.6705V17.0212ZM65.8851 5.90444C65.7351 5.90444 65.5855 5.97807 65.4733 6.08852L64.8378 6.67759C64.7252 6.78804 64.6508 6.93531 64.6508 7.11939V8.66532C64.6508 8.8494 64.7252 8.95985 64.8378 9.10712L65.4733 9.69619C65.5855 9.80664 65.6977 9.88028 65.8473 9.88028H65.9969L64.389 11.9048H65.6606L67.1563 9.95391C67.1941 9.91709 67.2311 9.88028 67.3059 9.88028H68.1283V11.9048H69.2129V5.90444H65.8851ZM68.1283 8.95985H66.1843C66.1095 8.95985 66.0721 8.95985 66.0343 8.92304L65.7725 8.66532C65.7351 8.6285 65.7351 8.59168 65.7351 8.55487V7.30348C65.7351 7.26666 65.7351 7.22984 65.7725 7.19303L65.9969 6.97213C66.0343 6.93531 66.0717 6.93531 66.1469 6.93531H68.1283V8.95985ZM54.816 9.47491H55.1526C55.2274 9.47491 55.2648 9.51172 55.3022 9.54854L57.06 11.9044H58.5182L56.1998 8.92304L58.406 5.90444H57.06L55.3773 8.26033C55.2651 8.4076 55.2277 8.48123 55.1529 8.48123H54.8163V5.90444H53.7321V11.9044H54.8163V9.47491H54.816ZM49.4314 11.7204C49.5436 11.8308 49.6932 11.9041 49.8802 11.9041H51.8247C51.9739 11.9041 52.1613 11.8304 52.2735 11.7204L53.0589 10.9472L52.4605 10.2477L51.7873 10.8732C51.7499 10.91 51.7125 10.91 51.6377 10.91H50.1046C50.0672 10.91 50.0298 10.91 49.9924 10.8732L49.6184 10.5054C49.581 10.4686 49.581 10.4318 49.581 10.3949V7.44998C49.581 7.41316 49.581 7.37634 49.6184 7.33953L49.9924 6.97174C50.0298 6.93492 50.0672 6.93493 50.1046 6.93493H51.5255C51.6003 6.93493 51.6377 6.93492 51.6751 6.97174L52.3483 7.59725L53.0585 6.86129L52.2731 6.08814C52.1609 5.97769 51.9735 5.90405 51.8243 5.90405H49.8798C49.6928 5.90405 49.5432 5.97769 49.431 6.08814L48.6834 6.82409C48.5338 6.97136 48.459 7.11863 48.459 7.26589V10.5418C48.459 10.6891 48.5338 10.8364 48.6834 10.9836L49.4314 11.7204Z" fill="#666666"/>
</g>
<defs>
<clipPath id="clip0">
<rect width="79.2045" height="32.6136" fill="white" transform="translate(0 0.65918)"/>
</clipPath>
</defs>
</svg>
